<svg xmlns="http://www.w3.org/2000/svg" width="15.899" height="10.336" viewBox="0 0 15.899 10.336">
  <path id="hat-cowboy-solid" d="M12.258,69.787C12.022,68.36,11.277,64,9.831,64a1.511,1.511,0,0,0-.919.348,1.446,1.446,0,0,1-1.754,0A1.527,1.527,0,0,0,6.238,64c-1.446,0-2.191,4.36-2.427,5.787a13.653,13.653,0,0,0,4.224.574A13.653,13.653,0,0,0,12.258,69.787Zm3.55-.924a.4.4,0,0,0-.492.037,11.31,11.31,0,0,1-7.285,2.256A11.4,11.4,0,0,1,.747,68.9a.4.4,0,0,0-.639.43,8.393,8.393,0,0,0,7.926,5.006,8.4,8.4,0,0,0,7.926-5.006A.4.4,0,0,0,15.809,68.862Z" transform="translate(-0.086 -64)" fill="#456345"/>
</svg>
