<svg xmlns="http://www.w3.org/2000/svg" xmlns:xlink="http://www.w3.org/1999/xlink" width="154.998" height="148.473" viewBox="0 0 154.998 148.473">
  <defs>
    <clipPath id="clip-path">
      <path id="Sustracción_1" data-name="Sustracción 1" d="M155,148.472H14a14,14,0,0,1-14-14V14A14,14,0,0,1,14,0H155V148.471Z" transform="translate(179.999 538.411)" fill="#fdf4e5"/>
    </clipPath>
    <linearGradient id="linear-gradient" y1="0.5" x2="1" y2="0.5" gradientUnits="objectBoundingBox">
      <stop offset="0.425" stop-color="#789401"/>
      <stop offset="0.442" stop-color="#7e9b01"/>
      <stop offset="0.506" stop-color="#8dae01"/>
      <stop offset="0.549" stop-color="#93b501"/>
    </linearGradient>
  </defs>
  <g id="Grupo_1115261" data-name="Grupo 1115261" transform="translate(-148.001 -537.324)">
    <g id="Enmascarar_grupo_1098756" data-name="Enmascarar grupo 1098756" transform="translate(-31.999 -1.086)" clip-path="url(#clip-path)">
      <g id="Grupo_1111793" data-name="Grupo 1111793" transform="translate(153.895 537.595)">
        <g id="Grupo_1111741" data-name="Grupo 1111741" transform="translate(0 27.623)">
          <path id="Trazado_902309" data-name="Trazado 902309" d="M210.722,359.967l-3.584.133a27.305,27.305,0,0,0-7.123-5.7l-57.684-33.3c-12.942-7.472-32.521-8.284-43.731-1.814L19.238,365.1a20.424,20.424,0,0,0-3,2.092l-4.568.17v8.674c-.015,4.97,3.613,10.217,10.706,14.311l57.685,33.3c12.942,7.472,32.524,8.284,43.731,1.811l79.361-45.818c5.024-2.9,7.512-6.772,7.564-10.834h0v-8.844Z" transform="translate(-11.671 -306.15)" fill="url(#linear-gradient)"/>
          <path id="Trazado_902310" data-name="Trazado 902310" d="M203.153,375.618l-79.361,45.818C112.584,427.909,93,427.1,80.061,419.625l-57.685-33.3c-7.093-4.095-10.72-9.341-10.7-14.311v4.43c-.015,4.97,3.613,10.217,10.7,14.311l57.685,33.3c12.942,7.472,32.524,8.284,43.731,1.812l79.361-45.818c5.024-2.9,7.512-6.772,7.564-10.835h0v-4.43h0C210.666,368.846,208.178,372.717,203.153,375.618Z" transform="translate(-11.671 -306.554)" fill="#7a3d23"/>
          <path id="Trazado_902311" data-name="Trazado 902311" d="M200.724,350.262l-57.684-33.3c-12.942-7.472-32.521-8.284-43.731-1.814L148.6,402.755v4.659l55.261-31.9c5.058-2.92,7.547-6.824,7.567-10.917v-4.659A34.222,34.222,0,0,0,200.724,350.262Z" transform="translate(-12.38 -306.117)" fill="#875937"/>
          <path id="Trazado_902312" data-name="Trazado 902312" d="M203.153,370.812,123.793,416.63C112.584,423.1,93,422.291,80.061,414.819l-57.684-33.3c-12.943-7.472-14.347-18.777-3.139-25.247L98.6,310.446c11.211-6.47,30.789-5.658,43.731,1.814l57.685,33.3C212.959,353.037,214.362,364.342,203.153,370.812Z" transform="translate(-11.671 -306.079)" fill="#a6cc02"/>
          <path id="Trazado_902313" data-name="Trazado 902313" d="M200.273,345.565l-57.684-33.3c-12.942-7.472-32.521-8.284-43.731-1.814L43.6,342.353l104.553,60.365,55.261-31.9C214.62,364.342,213.217,353.037,200.273,345.565Z" transform="translate(-11.929 -306.079)" fill="#a26b42"/>
        </g>
        <g id="Grupo_1111742" data-name="Grupo 1111742" transform="translate(33.473 61.509)">
          <path id="Trazado_902314" data-name="Trazado 902314" d="M45.416,342.211l103.769,59.912,3.412-1.971L48.828,340.241Z" transform="translate(-45.416 -340.241)" fill="#c1c8e0"/>
        </g>
        <g id="Grupo_1111745" data-name="Grupo 1111745" transform="translate(62.218 0)">
          <path id="Trazado_902315" data-name="Trazado 902315" d="M104.76,371.1l-6.7-3.87c-5.356-3.093-4.678-8.544,1.507-12.115L145.6,328.531c6.185-3.571,15.628-3.963,20.984-.87l6.7,3.87c5.356,3.093,4.678,8.544-1.507,12.115l-46.042,26.582C119.558,373.8,110.116,374.192,104.76,371.1Z" transform="translate(-74.558 -278.613)" fill="#c1c8e0"/>
          <g id="Grupo_1111744" data-name="Grupo 1111744" transform="translate(0 0)">
            <path id="Trazado_902316" data-name="Trazado 902316" d="M102.958,327.054c-.971-5.958-2.8-5.836-3.08-9.909s3.754-10.359,3.468-14.728,8.232-9.33,9.807-8.9,5.533,2.143,5.059,10.311,2.41,8.333-1.716,20.1c-.972,2.771-3.509,9.509-3.438,12.8s-1.45,3.695-1.48,5.485-.579,5.695,0,8.739.482,3.617.351,4.692-2.668,1.964-4.459,1.642-2.759-1.325-2.435-2.274.609-3.814,1.181-4.96,1.039-8.989.322-10.385-.527-2.625-.057-4.9S102.958,327.054,102.958,327.054Z" transform="translate(-74.602 -278.354)" fill="#942f11"/>
            <path id="Trazado_902317" data-name="Trazado 902317" d="M82.731,296.672c1,.048,4.894,1.521,5.422,2.523s.24,1.958,1.243,3.247-1.937,2.013-3.513,1.678-1.528-1.671-1.958-3.1a7.4,7.4,0,0,0-2.492-3.534C80.526,296.862,82.731,296.672,82.731,296.672Z" transform="translate(-74.451 -278.379)" fill="#ba4f2c"/>
            <path id="Trazado_902318" data-name="Trazado 902318" d="M81.591,297.418c1.838-.071,3.39,1.611,3.056,3.026s1.05,2.872,1.05,2.991-.326.517-.788,0S83.836,299.256,81.591,297.418Z" transform="translate(-74.454 -278.385)" fill="#eb874b"/>
            <path id="Trazado_902319" data-name="Trazado 902319" d="M102.447,308.734c4.158.2,10.631.777,16.008,1.3.415,3.408.83,6.061-1.96,14.015-.972,2.771-3.509,9.51-3.438,12.8s-1.45,3.694-1.48,5.485-.579,5.695,0,8.739.482,3.618.351,4.692c-.082.677-1.123,1.281-2.328,1.554.061-6.841-.258-6.51.36-6.989.649-.5-.166-5.766,0-7.163s-.113-5.336-1.46-6.589c-.57-.531-1.306-1.281-1.991-2.018.083-2.425-3.553-7.387-3.553-7.387a17.652,17.652,0,0,0-1.976-6.012c-.377-1.254-.748-2.516-1.09-3.732,0-.056-.01-.109-.014-.167C99.744,315.29,101.075,312.047,102.447,308.734Z" transform="translate(-74.602 -278.477)" fill="#82260a"/>
            <path id="Trazado_902320" data-name="Trazado 902320" d="M109.4,354.068c1.954-.747,1.678-.829,2.514-.924a8.865,8.865,0,0,1,.058,2.984c-.131,1.074-2.668,1.964-4.459,1.642s-2.76-1.325-2.435-2.274a21.324,21.324,0,0,0,.533-2.561C105.452,353.824,106.964,355,109.4,354.068Z" transform="translate(-74.643 -278.834)" fill="#33373b"/>
            <path id="Trazado_902321" data-name="Trazado 902321" d="M140.7,301.7c.321,2.614,2.716,4.694,4.1,6.544a36.235,36.235,0,0,1,3.18,9.042c.287.836-.074,2.326,0,3.879s.642,5.576.71,5.9a5.333,5.333,0,0,1-.166,1.863,16.154,16.154,0,0,0-.258,1.6,6.9,6.9,0,0,0,.035,2.309c.293.928,1.146.969,2.194,1.06s3.215-1.168,3.151-1.742a17.159,17.159,0,0,1,0-1.972c.011-.429-.476-2.5-.51-4.515s-1.009-3.4-.974-4.756,1.215-4.982,1.483-9.422-.453-3.09-1.085-4.512a4.215,4.215,0,0,1-.3-3.829,39.66,39.66,0,0,0,.8-9.564c-.074-3.547,1-6.017,1.18-9.707s4.283-.974-.153-5.26c-1.412-1.227-8.328.791-10.218,1.921s-2.62,1.937-3.093,3.951C138.659,293.474,140.377,299.087,140.7,301.7Z" transform="translate(-74.924 -278.23)" fill="#82260a"/>
            <path id="Trazado_902322" data-name="Trazado 902322" d="M147.949,332.841c-.1.968,1.335,1.511,2.385,1.6s3.438-1.3,3.375-1.871a17.159,17.159,0,0,1,0-1.972,2.1,2.1,0,0,0-1.658.658c-1.147.924-3.777-.053-3.659-.8a2.907,2.907,0,0,1-.062.488C148.237,331.792,148.009,332.292,147.949,332.841Z" transform="translate(-74.99 -278.653)" fill="#33373b"/>
            <path id="Trazado_902323" data-name="Trazado 902323" d="M148.5,334.04a2.3,2.3,0,0,1,.929-.664s.157,1.069.133,1.2S148.5,334.04,148.5,334.04Z" transform="translate(-74.995 -278.676)" fill="#fff"/>
            <path id="Trazado_902324" data-name="Trazado 902324" d="M88.079,318.322a51.706,51.706,0,0,0,4.693,5.066c3.008-.43,6.948.257,8.307,3.34s8.617,6.417,11.413,7.562,9.647-1.378,12.8-3.241,10.383-1.863,18.119-4.584,10.324-8.343,12.547-9.237,2.865-.539,5.8-4.12a6.444,6.444,0,0,0,.722-1.18c2.819-5.685,6.108-23.883,5.581-25.465-.573-1.719-4.333-4.178-6.12-4.252s-6.9-4.109-9.987-3.747a20.394,20.394,0,0,0-9.706,3.259c-4.08,2.51-10.08,7.428-15.741,9.645s-10.281.826-13.721,2.53c-9.645,4.779-7.425,6.35-10.721,7.258-4.674,1.286-6,1.316-8.507,1.172s-7.231,8.807-7.662,11.529C85.723,314.929,86.761,316.642,88.079,318.322Z" transform="translate(-74.488 -278.232)" fill="#ad4929"/>
            <path id="Trazado_902325" data-name="Trazado 902325" d="M100.761,311.942c1.958.86,2.627,5.348,2.627,7.648s2.278,1.64,4.379,4.075,1.4,4.512,4.16,6.113,3.876.859,4.4,0a18.248,18.248,0,0,0,2.1-5.1,27.169,27.169,0,0,1,1.124-3.97c.455-1.737,12.928-7.789,14.124-11.928a19.949,19.949,0,0,1,2.242,4.639,12.858,12.858,0,0,1,.716,5.264c-.143,1.54.931,4.727,2.328,5.121s4.666-1.385,8.427-3.606a11.226,11.226,0,0,0,5.121-5.824c.752-1.42,2.148-2.734,2.507-3.915a14.521,14.521,0,0,0,.454-4.775s5.3-4.358,10.286-4.263a57.01,57.01,0,0,1-3.27,10.689,6.479,6.479,0,0,1-.722,1.18c-2.934,3.582-3.582,3.226-5.8,4.12s-4.812,6.515-12.547,9.237-14.967,2.722-18.118,4.584-10.008,4.387-12.8,3.242-10.049-4.485-11.413-7.562-5.3-3.769-8.307-3.34a51.7,51.7,0,0,1-4.693-5.066c-.291-.37-.563-.741-.816-1.107C90.469,314.01,99.166,311.243,100.761,311.942Z" transform="translate(-74.5 -278.418)" fill="#942f11"/>
            <path id="Trazado_902326" data-name="Trazado 902326" d="M149.115,323.957c-.136-1.059,1.739-3.2,4.3-4.736s1.713-3.285,3.862-5.511a9.43,9.43,0,0,1,4.346-2.689s-.215,6.383-3.463,10.634S149.852,325.122,149.115,323.957Z" transform="translate(-75 -278.495)" fill="#ffa399"/>
            <path id="Trazado_902327" data-name="Trazado 902327" d="M149.629,323.38v3.4a.746.746,0,1,0,1.471,0v-3.4Z" transform="translate(-75.004 -278.595)" fill="#ffa399"/>
            <path id="Trazado_902328" data-name="Trazado 902328" d="M156.963,324.718a.76.76,0,1,0,1.5,0v-3.4h-1.5v3.4Z" transform="translate(-75.063 -278.579)" fill="#ffa399"/>
            <path id="Trazado_902329" data-name="Trazado 902329" d="M152.13,326.7a.76.76,0,1,0,1.5,0v-3.4h-1.5Z" transform="translate(-75.024 -278.595)" fill="#ffa399"/>
            <path id="Trazado_902330" data-name="Trazado 902330" d="M158.855,318.079v3.4c0,.48.293.869.654.869h0c.361,0,.654-.389.654-.869v-3.4Z" transform="translate(-75.079 -278.552)" fill="#ffa399"/>
            <path id="Trazado_902331" data-name="Trazado 902331" d="M154.911,322.719v3.4c0,.48.293.869.654.869h0c.361,0,.654-.389.654-.869v-3.4Z" transform="translate(-75.047 -278.59)" fill="#ffa399"/>
            <path id="Trazado_902332" data-name="Trazado 902332" d="M75.038,329.055a7.4,7.4,0,0,0,2.585,2.332,6.241,6.241,0,0,0,1.394.47,3.122,3.122,0,0,1,1.969,1.16s.6.453,2.269-.444a28.694,28.694,0,0,0,3.7-2.552c2.647-.361,5.72-3.218,7.667-4.532s4-1.7,5.511-4.425a16.879,16.879,0,0,0,1.444-3.277,9.74,9.74,0,0,0,.132-5.031c-.716-3.221-1.863-6.3-4.229-7.947s-3.85-2.635-5.409-2.876c-4.107-.636-5.784-.205-7.236,1.238-3.15,3.131-3.4,8.01-4.185,10.376s-2.4,8.86-3.827,10.071C74.5,325.589,74.346,327.962,75.038,329.055Z" transform="translate(-74.398 -278.42)" fill="#ad4929"/>
            <path id="Trazado_902333" data-name="Trazado 902333" d="M106.087,309.236c.364-1.416-1.931-4.041-4.356-3.916s-4.233,1.186-6.913,0a2.376,2.376,0,0,0-.356,3.012c.481.657,1.412,3.545,2.63,3.211s1.11-1.941,1.432-2.056C99.718,309.061,103.456,310.318,106.087,309.236Z" transform="translate(-74.555 -278.449)" fill="#ba4f2c"/>
            <path id="Trazado_902334" data-name="Trazado 902334" d="M92.786,304.68c.179.915,1.039,1.416.663,1.917s-1.863.555-1.773,0S91.945,304.875,92.786,304.68Z" transform="translate(-74.535 -278.444)" fill="#f7f7ff"/>
            <path id="Trazado_902335" data-name="Trazado 902335" d="M88.064,302.49c.18.915,1.039,1.415.663,1.917s-1.862.555-1.773,0S87.222,302.686,88.064,302.49Z" transform="translate(-74.497 -278.426)" fill="#f7f7ff"/>
            <path id="Trazado_902336" data-name="Trazado 902336" d="M105.331,309.191c-.263-1.122-1.337-3.048-3.438-2.455s-2.985,1.25-4.346,1.172c-.167.686-.334,2.261.477,1.413S102.156,310.027,105.331,309.191Z" transform="translate(-74.582 -278.46)" fill="#eb874b"/>
            <path id="Trazado_902337" data-name="Trazado 902337" d="M77.647,331.518a8.137,8.137,0,0,0,1.461.7,3.226,3.226,0,0,1,1.9.925s.437,1.3,2.108.406a8.679,8.679,0,0,0,2.548-2.02c1.592-.24,6.593-3.724,8.54-5.038s4.441-2.579,5.948-5.3a16.88,16.88,0,0,0,1.444-3.277c-.71.842-1.283,1.057-1.908,1.989-.532.8-1.533,2.172-2.484,2.051-1.038-.132-2.143-.9-3.019-.332-.452.292-.225,1.316-.426,1.814-1.22,3.072-3.612,3.44-6.429,5.157a5.585,5.585,0,0,1-2.239.752,18.556,18.556,0,0,1-2.453-.2c-.751-.074-.4.832-1.016.372-.71-.526-.316-1.684-1.279-1.2-.649.329-.562-.126-.977.473l-.424-.247A12.03,12.03,0,0,1,77.647,331.518Z" transform="translate(-74.422 -278.551)" fill="#942f11"/>
            <path id="Trazado_902338" data-name="Trazado 902338" d="M86.8,317.288a6.435,6.435,0,0,1,.475-1.235c.751-1.411,2.331-.689,3.359-1.463a10.665,10.665,0,0,0,2.581-3.595c-.03.058.481,1.657.525,1.884a2.774,2.774,0,0,0,.948,1.847,2.536,2.536,0,0,1,.428.3.98.98,0,0,1,.116,1.042,3.869,3.869,0,0,1-.639.9c-1.407,1.714-2.145,4.13-4.137,5.1-1.009.491-2.2.523-3.181,1.073-1.289.726-2.026,2.257-3.4,2.813.334-.135.835-2.5.982-2.911q.574-1.607,1.212-3.191C86.382,319.072,86.552,318.145,86.8,317.288Z" transform="translate(-74.472 -278.495)" fill="#a63513"/>
            <path id="Trazado_902339" data-name="Trazado 902339" d="M90.48,315.62l.171-.045c.771-.208,1.547-.395,2.321-.591a.647.647,0,0,1,.2-.029.434.434,0,0,1,.341.463,1.4,1.4,0,0,1-.215.59,8.64,8.64,0,0,1-1.632,2.667,5.741,5.741,0,0,1-3.284,1.025,10.747,10.747,0,0,0,.392-1.282,6.893,6.893,0,0,0,.444-1.676,1.876,1.876,0,0,1,.045-.381C89.389,315.914,90.026,315.738,90.48,315.62Z" transform="translate(-74.509 -278.527)" fill="#a63513"/>
            <g id="Grupo_1111743" data-name="Grupo 1111743" transform="translate(80.091 5.568)">
              <path id="Trazado_902340" data-name="Trazado 902340" d="M157.119,310.937c.321,2.614,2.716,4.694,4.1,6.544a36.281,36.281,0,0,1,3.18,9.042c.287.836-.074,2.326,0,3.879s.642,5.576.71,5.9a5.326,5.326,0,0,1-.166,1.862,16.146,16.146,0,0,0-.258,1.6,6.9,6.9,0,0,0,.035,2.309c.293.928,1.146.969,2.194,1.06s3.215-1.168,3.151-1.742a17.141,17.141,0,0,1,0-1.971c.011-.43-.476-2.5-.51-4.515s-1.009-3.4-.974-4.756.7-4.4.967-8.842.063-3.67-.569-5.093a4.215,4.215,0,0,1-.3-3.829,34.549,34.549,0,0,0,1.217-9.3c-.074-3.547,1-6.017,1.18-9.707s-.2-5.173-4.632-9.459c-2.069-.344-2.447.521-3.943,2.137a42.056,42.056,0,0,0-4.579,5.049C152.363,298.48,156.8,308.324,157.119,310.937Z" transform="translate(-155.139 -283.843)" fill="#ad4929"/>
              <path id="Trazado_902341" data-name="Trazado 902341" d="M161.217,317.572c-1.381-1.851-3.776-3.931-4.1-6.544-.215-1.752-3.187-7.35-1.245-15.87.694.485.39,4.939.39,4.939.586,5.895,1.966,10.2,3.868,12.4s2.214,2.85,3.693,3.306,1.336.621,1.022,2.722.535,2.2,1.065,5.682-.718,2.285-1.044,5.109,1.066,2.168,1.44,3.746a32.233,32.233,0,0,1,.613,5.088c.07,1.307-.407,4.591-.327,5.037-.9-.081-1.614-.2-1.876-1.033a6.9,6.9,0,0,1-.035-2.309c.074-.659.184-1.272.258-1.6a5.3,5.3,0,0,0,.166-1.862c-.068-.32-.642-4.343-.71-5.9s.287-3.043,0-3.879A36.382,36.382,0,0,0,161.217,317.572Z" transform="translate(-155.14 -283.935)" fill="#942f11"/>
              <path id="Trazado_902342" data-name="Trazado 902342" d="M164.379,342.108c-.1.968,1.335,1.511,2.384,1.6s3.439-1.3,3.375-1.871a17.145,17.145,0,0,1,0-1.971,2.1,2.1,0,0,0-1.658.658c-1.148.924-3.777-.053-3.659-.8a2.91,2.91,0,0,1-.062.488C164.666,341.059,164.438,341.56,164.379,342.108Z" transform="translate(-155.214 -284.296)" fill="#33373b"/>
              <path id="Trazado_902343" data-name="Trazado 902343" d="M164.926,343.307a2.3,2.3,0,0,1,.929-.664s.157,1.069.133,1.2S164.926,343.307,164.926,343.307Z" transform="translate(-155.218 -284.319)" fill="#fff"/>
            </g>
            <path id="Trazado_902344" data-name="Trazado 902344" d="M122.212,334.125c-1.965-5.707-2.308-3.283-2.682-7.348s1.6-13.937,1.212-18.3,6.179-6.331,7.764-5.939,6.614,4.123,6.334,12.3.27,12.342-2.371,18.8c-1.36,3.329-3.181,7.572-3.031,10.864s-1.362,3.729-1.349,5.519-.443,6.942.208,9.972.568,3.6.463,4.682-2.621,2.026-4.418,1.747-2.79-1.26-2.489-2.216.518-3.828,1.063-4.986.824-10.247.075-11.627-.29-4.42.127-6.7S122.212,334.125,122.212,334.125Z" transform="translate(-74.76 -278.426)" fill="#ad4929"/>
            <path id="Trazado_902345" data-name="Trazado 902345" d="M124.548,366.5a8.107,8.107,0,0,1,1.627-4.289c.788-.752.25-2.324.349-2.954.24-1.52.367-1.04,0-4.406s-.618-4.692.17-5.336,1.992-3.112,1.254-6.518c-.374-1.724,1.432-4.692,2.148-6.733s-2.041-1.468-.609-5.121,1.848.189,3.116-4.264a59.22,59.22,0,0,0,1.648-15.159,21.073,21.073,0,0,0-.272-2.873,15.838,15.838,0,0,1,.9,6.048c-.28,8.178.27,12.342-2.371,18.8-1.36,3.329-3.181,7.571-3.031,10.863s-1.362,3.729-1.349,5.519-.443,6.942.208,9.973.568,3.6.463,4.682C128.7,365.776,126.33,366.7,124.548,366.5Z" transform="translate(-74.801 -278.478)" fill="#942f11"/>
            <path id="Trazado_902346" data-name="Trazado 902346" d="M126.16,363.164c1.936-.794,1.658-.869,2.493-.984a8.861,8.861,0,0,1,.129,2.982c-.105,1.077-2.621,2.027-4.418,1.748s-2.79-1.26-2.489-2.216a21.139,21.139,0,0,0,.471-2.574C122.209,363.014,123.746,364.152,126.16,363.164Z" transform="translate(-74.779 -278.909)" fill="#33373b"/>
            <path id="Trazado_902347" data-name="Trazado 902347" d="M90.15,316.738c.191-.334,1.193-1.218,1.767-1.039s.143,1.182-.382,1.469-1.958.818-1.958.818Z" transform="translate(-74.518 -278.533)" fill="#22222c"/>
            <path id="Trazado_902348" data-name="Trazado 902348" d="M75.287,325.381c.843-.2,1.1,1.15,1.1,1.15s2.506,1.809,3.76,1.264a2.018,2.018,0,0,1,2.513.819c.513.584,1.526.129,1.743,1.089a5.19,5.19,0,0,1-.061,2.769,2.384,2.384,0,0,1-1.751,1.442,13.322,13.322,0,0,1-2.148-.048c-.948-.134-1.92-1.452-4.353-2.419-1.907-.758-1.4-2.993-1.565-3.9s-.265-1.658.248-1.911Z" transform="translate(-74.396 -278.611)" fill="#ffa399"/>
            <path id="Trazado_902349" data-name="Trazado 902349" d="M81.5,329.095a4.039,4.039,0,0,1,.053,1.959,4,4,0,0,1-2.189.811c-.93-.116.562-.7,1.111-1.717S81.5,329.095,81.5,329.095Z" transform="translate(-74.433 -278.642)" fill="#eb874b"/>
            <path id="Trazado_902350" data-name="Trazado 902350" d="M75.439,326.372c.509.776.306,1.3.618,2.306s.831,1.308.545,1.3a2.432,2.432,0,0,1-1.206-1.6,19.312,19.312,0,0,0-.455-2.016Z" transform="translate(-74.4 -278.619)" fill="#eb874b"/>
          </g>
        </g>
        <g id="Grupo_1111776" data-name="Grupo 1111776" transform="translate(34.84 32.521)">
          <g id="Grupo_1111760" data-name="Grupo 1111760" transform="translate(0 0)">
            <g id="Grupo_1111752" data-name="Grupo 1111752">
              <g id="Grupo_1111747" data-name="Grupo 1111747">
                <g id="Grupo_1111746" data-name="Grupo 1111746">
                  <path id="Trazado_902351" data-name="Trazado 902351" d="M52.152,312.489l-2.55-1.473-2.807,1.621,2.55,1.473Z" transform="translate(-46.795 -311.016)" fill="#e8b969"/>
                </g>
              </g>
              <g id="Grupo_1111749" data-name="Grupo 1111749" transform="translate(0 29.644)">
                <g id="Grupo_1111748" data-name="Grupo 1111748">
                  <path id="Trazado_902352" data-name="Trazado 902352" d="M52.152,342.375,49.6,340.9l-2.807,1.621L49.345,344Z" transform="translate(-46.795 -340.902)" fill="#e8b969"/>
                </g>
              </g>
              <g id="Grupo_1111750" data-name="Grupo 1111750" transform="translate(0 1.621)">
                <path id="Trazado_902353" data-name="Trazado 902353" d="M49.345,314.123l-2.55-1.473v29.644l2.55,1.473Z" transform="translate(-46.795 -312.65)" fill="#d6934b"/>
              </g>
              <g id="Grupo_1111751" data-name="Grupo 1111751" transform="translate(2.55 1.473)">
                <path id="Trazado_902354" data-name="Trazado 902354" d="M52.173,312.5v29.644l-2.807,1.621V314.122Z" transform="translate(-49.366 -312.501)" fill="#e3ae52"/>
              </g>
              <path id="Trazado_902355" data-name="Trazado 902355" d="M50.132,335.651l46.753,26.993V360.5L50.132,333.507Z" transform="translate(-46.822 -311.198)" fill="#c98f4d"/>
              <path id="Trazado_902356" data-name="Trazado 902356" d="M50.132,333.5l46.753,26.994,1.828-1.056L51.96,332.443Z" transform="translate(-46.822 -311.189)" fill="#e8b969"/>
            </g>
            <g id="Grupo_1111755" data-name="Grupo 1111755" transform="translate(3.31 8.924)">
              <g id="Grupo_1111753" data-name="Grupo 1111753" transform="translate(0 1.056)">
                <path id="Trazado_902357" data-name="Trazado 902357" d="M50.132,323.221l46.753,26.994v-2.144L50.132,321.078Z" transform="translate(-50.132 -321.078)" fill="#c98f4d"/>
              </g>
              <g id="Grupo_1111754" data-name="Grupo 1111754">
                <path id="Trazado_902358" data-name="Trazado 902358" d="M50.132,321.069l46.753,26.993,1.828-1.055L51.96,320.013Z" transform="translate(-50.132 -320.013)" fill="#e8b969"/>
              </g>
            </g>
            <g id="Grupo_1111757" data-name="Grupo 1111757" transform="translate(49.983 28.859)">
              <g id="Grupo_1111756" data-name="Grupo 1111756">
                <path id="Trazado_902359" data-name="Trazado 902359" d="M102.544,341.583l-2.551-1.473-2.807,1.621,2.551,1.473Z" transform="translate(-97.186 -340.11)" fill="#e8b969"/>
              </g>
            </g>
            <g id="Grupo_1111758" data-name="Grupo 1111758" transform="translate(49.983 30.479)">
              <path id="Trazado_902360" data-name="Trazado 902360" d="M99.737,343.217l-2.551-1.473v29.644l2.551,1.473Z" transform="translate(-97.186 -341.744)" fill="#d6934b"/>
            </g>
            <g id="Grupo_1111759" data-name="Grupo 1111759" transform="translate(52.535 30.332)">
              <path id="Trazado_902361" data-name="Trazado 902361" d="M102.565,341.595v29.644l-2.807,1.621V343.216Z" transform="translate(-99.758 -341.595)" fill="#e3ae52"/>
            </g>
          </g>
          <g id="Grupo_1111775" data-name="Grupo 1111775" transform="translate(49.983 28.859)">
            <g id="Grupo_1111767" data-name="Grupo 1111767">
              <g id="Grupo_1111762" data-name="Grupo 1111762">
                <g id="Grupo_1111761" data-name="Grupo 1111761">
                  <path id="Trazado_902362" data-name="Trazado 902362" d="M102.544,341.583l-2.551-1.473-2.807,1.621,2.551,1.473Z" transform="translate(-97.186 -340.11)" fill="#e8b969"/>
                </g>
              </g>
              <g id="Grupo_1111764" data-name="Grupo 1111764" transform="translate(0 29.644)">
                <g id="Grupo_1111763" data-name="Grupo 1111763">
                  <path id="Trazado_902363" data-name="Trazado 902363" d="M102.544,371.469,99.993,370l-2.807,1.621,2.551,1.473Z" transform="translate(-97.186 -369.996)" fill="#e8b969"/>
                </g>
              </g>
              <g id="Grupo_1111765" data-name="Grupo 1111765" transform="translate(0 1.621)">
                <path id="Trazado_902364" data-name="Trazado 902364" d="M99.737,343.217l-2.551-1.473v29.644l2.551,1.473Z" transform="translate(-97.186 -341.744)" fill="#d6934b"/>
              </g>
              <g id="Grupo_1111766" data-name="Grupo 1111766" transform="translate(2.551 1.473)">
                <path id="Trazado_902365" data-name="Trazado 902365" d="M102.565,341.595v29.644l-2.807,1.621V343.216Z" transform="translate(-99.758 -341.595)" fill="#e3ae52"/>
              </g>
              <path id="Trazado_902366" data-name="Trazado 902366" d="M100.523,364.745l46.754,26.993v-2.143L100.523,362.6Z" transform="translate(-97.213 -340.292)" fill="#c98f4d"/>
              <path id="Trazado_902367" data-name="Trazado 902367" d="M100.523,362.592l46.754,26.994,1.828-1.056-46.753-26.993Z" transform="translate(-97.213 -340.283)" fill="#e8b969"/>
            </g>
            <g id="Grupo_1111770" data-name="Grupo 1111770" transform="translate(3.31 8.925)">
              <g id="Grupo_1111768" data-name="Grupo 1111768" transform="translate(0 1.055)">
                <path id="Trazado_902368" data-name="Trazado 902368" d="M100.523,352.315l46.754,26.994v-2.143l-46.754-26.993Z" transform="translate(-100.523 -350.172)" fill="#c98f4d"/>
              </g>
              <g id="Grupo_1111769" data-name="Grupo 1111769">
                <path id="Trazado_902369" data-name="Trazado 902369" d="M100.523,350.163l46.754,26.993L149.1,376.1l-46.753-26.993Z" transform="translate(-100.523 -349.108)" fill="#e8b969"/>
              </g>
            </g>
            <g id="Grupo_1111772" data-name="Grupo 1111772" transform="translate(49.984 28.859)">
              <g id="Grupo_1111771" data-name="Grupo 1111771">
                <path id="Trazado_902370" data-name="Trazado 902370" d="M152.936,370.677l-2.551-1.473-2.807,1.621,2.551,1.473Z" transform="translate(-147.578 -369.204)" fill="#e8b969"/>
              </g>
            </g>
            <g id="Grupo_1111773" data-name="Grupo 1111773" transform="translate(49.984 30.479)">
              <path id="Trazado_902371" data-name="Trazado 902371" d="M150.129,372.311l-2.551-1.473v29.644l2.551,1.473Z" transform="translate(-147.578 -370.838)" fill="#d6934b"/>
            </g>
            <g id="Grupo_1111774" data-name="Grupo 1111774" transform="translate(52.536 30.332)">
              <path id="Trazado_902372" data-name="Trazado 902372" d="M152.957,370.689v29.644l-2.807,1.621V372.31Z" transform="translate(-150.15 -370.689)" fill="#e3ae52"/>
            </g>
          </g>
        </g>
        <g id="Grupo_1111783" data-name="Grupo 1111783" transform="translate(32.303 63.958)">
          <path id="Trazado_902373" data-name="Trazado 902373" d="M56.295,350.71l-1.062.613-.844-.613-10.151,5.861,81.221,47.2h1.906l10.151-5.861Z" transform="translate(-44.237 -342.775)" fill="#c1c8e0"/>
          <path id="Trazado_902374" data-name="Trazado 902374" d="M135.364,394.816l-81.221-47.2.325-3.8,81.222,47.2Z" transform="translate(-44.317 -342.719)" fill="#9ea4b7"/>
          <path id="Trazado_902375" data-name="Trazado 902375" d="M135.693,391.011l-81.222-47.2,1.906-1.1,81.221,47.2Z" transform="translate(-44.32 -342.71)" fill="#a7adc2"/>
          <path id="Trazado_902376" data-name="Trazado 902376" d="M129.65,398.119l-81.221-47.2,5.668-3.272,81.221,47.2Z" transform="translate(-44.271 -342.75)" fill="#6177c2"/>
          <g id="Grupo_1111778" data-name="Grupo 1111778" transform="translate(5.718 2.201)">
            <g id="Grupo_1111777" data-name="Grupo 1111777">
              <path id="Trazado_902377" data-name="Trazado 902377" d="M56.341,344.929l-.325,3.8-2.9,1.673L50,348.589Z" transform="translate(-50.002 -344.929)" fill="#717684"/>
            </g>
          </g>
          <path id="Trazado_902378" data-name="Trazado 902378" d="M128.558,402.424l-81.221-47.2-.489-4.835,81.221,47.2Z" transform="translate(-44.258 -342.772)" fill="#8a8fa0"/>
          <path id="Trazado_902379" data-name="Trazado 902379" d="M127.38,395.81l-81.222-47.2,1.906-1.1,81.221,47.2Z" transform="translate(-44.253 -342.749)" fill="#a7adc2"/>
          <path id="Trazado_902380" data-name="Trazado 902380" d="M127.386,397.966l-81.221-47.2-.007-2.146,81.222,47.2Z" transform="translate(-44.253 -342.758)" fill="#949aac"/>
          <path id="Trazado_902381" data-name="Trazado 902381" d="M138.193,390.295l.006,2.147-.677.392-.466,5.386-7.841,4.527-.489-4.835-.677.391-.006-2.146Z" transform="translate(-44.915 -343.095)" fill="#717684"/>
          <g id="Grupo_1111780" data-name="Grupo 1111780" transform="translate(83.126 47.2)">
            <g id="Grupo_1111779" data-name="Grupo 1111779">
              <path id="Trazado_902382" data-name="Trazado 902382" d="M136.288,391.4l-1.907-1.1-6.339,3.66,1.906,1.1Z" transform="translate(-128.041 -390.295)" fill="#a7adc2"/>
            </g>
          </g>
          <g id="Grupo_1111782" data-name="Grupo 1111782" transform="translate(3.812 1.1)">
            <g id="Grupo_1111781" data-name="Grupo 1111781">
              <path id="Trazado_902383" data-name="Trazado 902383" d="M56.326,344.92l-1.906-1.1-6.339,3.66,1.906,1.1Z" transform="translate(-48.08 -343.819)" fill="#a7adc2"/>
            </g>
          </g>
        </g>
        <g id="Grupo_1111787" data-name="Grupo 1111787" transform="translate(30.337 28.549)">
          <path id="Trazado_902384" data-name="Trazado 902384" d="M61.779,387.241a14.574,14.574,0,0,1-13.188-.024c-3.653-2.109-3.672-5.518-.042-7.615a14.577,14.577,0,0,1,13.188.024C65.391,381.735,65.409,385.145,61.779,387.241Z" transform="translate(-42.284 -307.587)" fill="#c1c8e0"/>
          <g id="Grupo_1111786" data-name="Grupo 1111786" transform="translate(0 0)">
            <g id="Grupo_1111785" data-name="Grupo 1111785">
              <path id="Trazado_902385" data-name="Trazado 902385" d="M54.967,377.466a2.88,2.88,0,0,0-.733.771,3.509,3.509,0,0,0-.187,1.853c.077.319.883.515,1.337.558,1,.1,2.053.11,2.053.11a3.309,3.309,0,0,1,.862-.411,7.826,7.826,0,0,1,1.692.578,18.676,18.676,0,0,0,4.548.418c1.671-.155,1.547-.991,1.547-.991s.124-1.074-.4-1.337a14.4,14.4,0,0,0-2.768-.192Z" transform="translate(-42.35 -307.583)" fill="#161b29"/>
              <path id="Trazado_902386" data-name="Trazado 902386" d="M54.951,375.735a7.911,7.911,0,0,0-.561,2.463,1.238,1.238,0,0,0,.386.926,10.019,10.019,0,0,0,2.567.476,26.532,26.532,0,0,1,4.543.868c1.242.294,3.634.128,3.784-.169a2.537,2.537,0,0,0,.077-1s-.048-1.153-.86-1.426-5.33-1.671-5.33-1.671l-2.42-1.924Z" transform="translate(-42.353 -307.557)" fill="#404759"/>
              <path id="Trazado_902387" data-name="Trazado 902387" d="M51.181,348.9a33.495,33.495,0,0,0,1.587,6.6c.618,1.718.944,4.245,1.891,5.925s5.083,1.63,5.6.782a23.257,23.257,0,0,0,1.094-4.525s-2.716-11.091-3.082-12.1-.939-7.434-.939-7.434l-6.151,2.444Z" transform="translate(-42.327 -307.265)" fill="#295ea9"/>
              <path id="Trazado_902388" data-name="Trazado 902388" d="M54.935,357.642a16.338,16.338,0,0,0-.935,4.62c-.141,1.75.381,13.6.3,14.418s1.328,1.106,2.846,1.043,2.881-.634,3.007-1.161,1.449-16.777,1.225-18.73S54.935,357.642,54.935,357.642Z" transform="translate(-42.35 -307.416)" fill="#295ea9"/>
              <path id="Trazado_902389" data-name="Trazado 902389" d="M44.889,382.137c-.553.25-.668,0-.941.575a4.421,4.421,0,0,0-.154,1.761,9.781,9.781,0,0,0,.978.958c.183.09.9.379.9.379a5.653,5.653,0,0,0,1.909,2.233,7.43,7.43,0,0,0,3.58.668,3.35,3.35,0,0,0,2.032-.677,3.174,3.174,0,0,0-.047-1.128c-.291-.614-2.2-1.737-2.2-1.737Z" transform="translate(-42.267 -307.62)" fill="#161b29"/>
              <path id="Trazado_902390" data-name="Trazado 902390" d="M77.683,318.36a14.547,14.547,0,0,1,1.076,3.28c-.016.309-11.605,4.186-13.1,4.131s-2.258-3.616-1.905-4.286,1.836-.825,2.847-1.023S77.683,318.36,77.683,318.36Z" transform="translate(-42.428 -307.105)" fill="#5c92ff"/>
              <path id="Trazado_902391" data-name="Trazado 902391" d="M65.607,325.755c-.227.121-3.518-.492-4.2-.154s-.628.89-1.643.955-2.706-9.252-1.708-9.918,4.39.016,5.2.313S66.716,321.669,65.607,325.755Z" transform="translate(-42.38 -307.088)" fill="#5c92ff"/>
              <path id="Trazado_902392" data-name="Trazado 902392" d="M78.055,320.87a1.189,1.189,0,0,0,1.388.393,8.892,8.892,0,0,0,2.819-1.418.647.647,0,0,0-.194-.691l-.655.065s.395-.344.562-.339a19.025,19.025,0,0,0,3.014.1c.375-.148.073-.984.073-.984s.381-.093.4-.428a.336.336,0,0,0-.323-.357s-3.367-.717-3.852-.671a3.988,3.988,0,0,0-1.718.738,14.431,14.431,0,0,1-1.77,1.034S76.668,320.345,78.055,320.87Z" transform="translate(-42.539 -307.09)" fill="#ffa399"/>
              <path id="Trazado_902393" data-name="Trazado 902393" d="M44.629,378.766c-.051.739-.5,3.478-.552,4.024s.234.768.657,1.338,1.542,1.356,1.872,2.134a3.963,3.963,0,0,0,3.345,1.8c1.763.13,3.167-.231,3.107-1.053a4.78,4.78,0,0,0-.293-1.374s-3.414-3.25-3.743-4.026-1.066-2.508-1.066-2.508Z" transform="translate(-42.27 -307.593)" fill="#404759"/>
              <path id="Trazado_902394" data-name="Trazado 902394" d="M45.329,336.164c-.924,1.67-2.567,4.383-2.949,7.44a33.927,33.927,0,0,0,.836,10.236,38.283,38.283,0,0,1,.264,8.971c-.079,1.144,6.633,4.22,6.95,2.707.215-1.023,2.322-12.368,2.722-13.12s1.47-1.723,1.839-2.874.043-8.6-1.125-9.869S45.329,336.164,45.329,336.164Z" transform="translate(-42.255 -307.249)" fill="#2c6bb8"/>
              <path id="Trazado_902395" data-name="Trazado 902395" d="M43.474,339.837a7.147,7.147,0,0,0-.675,1.835c-.293,1.2,1.534,3.12,4.436,4a9.707,9.707,0,0,0,7.805-.617,14.846,14.846,0,0,0,2.562-1.448l.125-3.3Z" transform="translate(-42.259 -307.278)" fill="#1d2329"/>
              <g id="Grupo_1111784" data-name="Grupo 1111784" transform="translate(0.157 32.879)">
                <path id="Trazado_902396" data-name="Trazado 902396" d="M47.177,347.082a2.38,2.38,0,0,1-.777-.182c-.444-.165-4.281-1.925-3.97-3.045.181-.65,1.181-3.571,1.224-3.695l.813.279c-.011.029-.95,2.77-1.183,3.553a11.329,11.329,0,0,0,3.75,2.216c.217-.679.683-2.685.958-3.934l.1-.445,4.691,1.323v.325c0,.934-.008,3.144-.081,3.477l-.839-.184c.035-.2.058-1.608.061-2.967l-3.187-.9c-.24,1.076-.771,3.387-.989,3.855A.574.574,0,0,1,47.177,347.082Z" transform="translate(-42.413 -340.16)" fill="#2c6bb8"/>
              </g>
              <path id="Trazado_902397" data-name="Trazado 902397" d="M50.436,365.693c-.23,1.56-.971,14.313-.86,16.053a4.373,4.373,0,0,1-5.293-.879c-.309-.5-1.294-11.037-1.282-12.943S44.037,357.9,44.037,357.9Z" transform="translate(-42.261 -307.424)" fill="#2c6bb8"/>
              <path id="Trazado_902398" data-name="Trazado 902398" d="M59.792,315.866a8.3,8.3,0,0,0-4.677,1.759c-1.156,1.107-4.468,4.695-5.322,7.091s-5.988,13.613-6.571,15.1,4.062,4.12,6.368,4.458c4.3.627,6.888-1.352,7.562-2.327a82.538,82.538,0,0,0,4.613-10.728c1.655-4.666,3.1-9.388,2.467-11.649S59.792,315.866,59.792,315.866Z" transform="translate(-42.262 -307.084)" fill="#4280ff"/>
              <path id="Trazado_902399" data-name="Trazado 902399" d="M59.6,313.884a6.226,6.226,0,0,1-.855,2.577c-.431.532-.621.621-.643,1.375a9.617,9.617,0,0,0,2.354,4.125c.773.546,1.44-.179,1.743-.508s1.377-1.336,2.213-1.234a4.881,4.881,0,0,0,2.573-.053,7.777,7.777,0,0,0,1.725-2.993c.583-.067.967.044.771-.858a2.314,2.314,0,0,1,.174-1.71c.192-.484.865-3.566-.167-4.048S59.6,313.884,59.6,313.884Z" transform="translate(-42.383 -307.041)" fill="#ffa399"/>
              <path id="Trazado_902400" data-name="Trazado 902400" d="M69.616,312.539a1.575,1.575,0,0,0-.447,1.251,3.465,3.465,0,0,1-.137,1.066,3.054,3.054,0,0,0-1.3,1.021,15.449,15.449,0,0,0-.675,1.516L65.952,317a1.022,1.022,0,0,0-.93-1.3c-1.209-.141-1.683,1.162-2.533,1.561a2.315,2.315,0,0,1-2.146.035,2.858,2.858,0,0,1-1.081-1.43,10.71,10.71,0,0,1-.205-4.351c.26-2.386,1.392-3.081,2.611-3.389a5.133,5.133,0,0,1,5.12-.76,6.6,6.6,0,0,1,3.957,3.124c.462,1.014-.588,1.979-.7,2.058S69.616,312.539,69.616,312.539Z" transform="translate(-42.39 -307.013)" fill="#1c2134"/>
              <path id="Trazado_902401" data-name="Trazado 902401" d="M65.453,315.576c-.3-.109-.847.364-1,1.032a1.633,1.633,0,0,0,.434,1.574c.3.192.582-1.129.652-1.464S65.731,315.676,65.453,315.576Z" transform="translate(-42.434 -307.082)" fill="#ffa399"/>
              <path id="Trazado_902402" data-name="Trazado 902402" d="M55.66,325.078c-2.135-1.694-4.942-2.554-6.32,1.957-.614,2.011-2.2,10.66-2.466,13.056s4.181,2.259,5.826-1.285,3.753-7.97,3.82-10.051S56.526,325.765,55.66,325.078Z" transform="translate(-42.292 -307.148)" fill="#5c92ff"/>
              <path id="Trazado_902403" data-name="Trazado 902403" d="M66.408,340.235c-.059-.1,5.87.594,5.87.594l-1.591.547-4.5,1-5.782-.68,1.276-1.227Z" transform="translate(-42.402 -307.281)" fill="#161b29"/>
            </g>
            <path id="Trazado_902404" data-name="Trazado 902404" d="M61.277,343.85a5.6,5.6,0,0,0,1.5.629A13.786,13.786,0,0,0,65.581,344a12.777,12.777,0,0,0,2.122-.925,2.466,2.466,0,0,0,.516-.476s1.116-.235,1.327-.67,0-.661,0-.661l-2.553.809-1.836-.114s-.921-.861-1.434-.769-2.224.4-2.45.736A5.373,5.373,0,0,0,61.277,343.85Z" transform="translate(-42.408 -307.289)" fill="#ffa399"/>
            <path id="Trazado_902405" data-name="Trazado 902405" d="M63.4,342.721a4.848,4.848,0,0,0,1.22-.32c.367-.07,1.907,0,2.305-.019s.507-.741.093-.926a22.642,22.642,0,0,0-2.529-.256,3.728,3.728,0,0,0-1.608-.115c-.565.135-1.725.089-1.956.354S63.4,342.721,63.4,342.721Z" transform="translate(-42.406 -307.288)" fill="#ffa399"/>
            <path id="Trazado_902406" data-name="Trazado 902406" d="M47.844,337.651c-.459.745-1.3,2.644-.913,3.627s2.866,1.73,6.918,2.476a40.078,40.078,0,0,0,7.7.779,2.428,2.428,0,0,0,.167-3.007,1.549,1.549,0,0,0-1.164-.859c-.383-.015-7-2.247-7.846-2.644S47.844,337.651,47.844,337.651Z" transform="translate(-42.292 -307.261)" fill="#5c92ff"/>
          </g>
        </g>
        <g id="Grupo_1111792" data-name="Grupo 1111792" transform="translate(147.016 47.144)">
          <path id="Trazado_902407" data-name="Trazado 902407" d="M159.886,362.765l21.645,12.5h11.344L174.545,354.3Z" transform="translate(-159.886 -325.99)" fill="#c1c8e0"/>
          <g id="Grupo_1111789" data-name="Grupo 1111789" transform="translate(11.344 14.467)">
            <g id="Grupo_1111788" data-name="Grupo 1111788">
              <path id="Trazado_902408" data-name="Trazado 902408" d="M193.144,375.251l14.659-8.464V352.942l-14.659,8.464Z" transform="translate(-171.499 -340.446)" fill="#ffba17"/>
              <path id="Trazado_902409" data-name="Trazado 902409" d="M171.323,348.807l21.644,12.5,14.659-8.464-21.644-12.5Z" transform="translate(-171.323 -340.344)" fill="#ed9507"/>
              <path id="Trazado_902410" data-name="Trazado 902410" d="M171.323,362.721l21.644,12.5V361.373l-21.644-12.5Z" transform="translate(-171.323 -340.413)" fill="#ffc626"/>
            </g>
            <path id="Trazado_902411" data-name="Trazado 902411" d="M181.707,354.8l1.044.6,14.659-8.463-1.044-.6Z" transform="translate(-171.407 -340.392)" fill="#a15902"/>
            <path id="Trazado_902412" data-name="Trazado 902412" d="M181.707,368.716l1.044.6V355.474l-1.044-.6Z" transform="translate(-171.407 -340.462)" fill="#a15902"/>
            <path id="Trazado_902413" data-name="Trazado 902413" d="M200.875,356.8l-1.043.6-21.645-12.5,1.044-.6Z" transform="translate(-171.378 -340.376)" fill="#a15902"/>
            <path id="Trazado_902414" data-name="Trazado 902414" d="M201.051,370.749l-1.043.6V357.508l1.043-.6Z" transform="translate(-171.555 -340.478)" fill="#a15902"/>
          </g>
          <g id="Grupo_1111791" data-name="Grupo 1111791" transform="translate(11.344 0)">
            <g id="Grupo_1111790" data-name="Grupo 1111790">
              <path id="Trazado_902415" data-name="Trazado 902415" d="M193.144,360.667,207.8,352.2V338.358l-14.659,8.464Z" transform="translate(-171.499 -325.861)" fill="#ffba17"/>
              <path id="Trazado_902416" data-name="Trazado 902416" d="M171.323,334.223l21.644,12.5,14.659-8.464-21.644-12.5Z" transform="translate(-171.323 -325.759)" fill="#ffda38"/>
              <path id="Trazado_902417" data-name="Trazado 902417" d="M171.323,348.137l21.644,12.5V346.789l-21.644-12.5Z" transform="translate(-171.323 -325.828)" fill="#ffc626"/>
            </g>
            <path id="Trazado_902418" data-name="Trazado 902418" d="M181.707,340.218l1.044.6,14.659-8.463-1.044-.6Z" transform="translate(-171.407 -325.807)" fill="#a15902"/>
            <path id="Trazado_902419" data-name="Trazado 902419" d="M181.707,354.132l1.044.6V340.89l-1.044-.6Z" transform="translate(-171.407 -325.877)" fill="#a15902"/>
            <path id="Trazado_902420" data-name="Trazado 902420" d="M200.875,342.218l-1.043.6-21.645-12.5,1.044-.6Z" transform="translate(-171.378 -325.791)" fill="#a15902"/>
            <path id="Trazado_902421" data-name="Trazado 902421" d="M201.051,356.165l-1.043.6V342.923l1.043-.6Z" transform="translate(-171.555 -325.893)" fill="#a15902"/>
          </g>
        </g>
      </g>
    </g>
  </g>
</svg>
