<svg xmlns="http://www.w3.org/2000/svg" xmlns:xlink="http://www.w3.org/1999/xlink" width="1328" height="1138" viewBox="0 0 1328 1138">
  <defs>
    <clipPath id="clip-path">
      <rect id="Rectángulo_404954" data-name="Rectángulo 404954" width="1328" height="1138" transform="translate(0 0)" fill="#ecf6ff"/>
    </clipPath>
    <linearGradient id="linear-gradient" x1="0.5" y1="0.934" x2="0.5" y2="0.106" gradientUnits="objectBoundingBox">
      <stop offset="0" stop-color="#fcf9e8" stop-opacity="0"/>
      <stop offset="0.163" stop-color="#fcf9e8" stop-opacity="0.678"/>
      <stop offset="0.33" stop-color="#fcf9e8"/>
      <stop offset="0.522" stop-color="#fcf9e8"/>
      <stop offset="0.729" stop-color="#fcf9e8"/>
      <stop offset="0.882" stop-color="#fcf9e8" stop-opacity="0.216"/>
      <stop offset="1" stop-color="#fcf9e8" stop-opacity="0"/>
    </linearGradient>
  </defs>
  <g id="Enmascarar_grupo_1098784" data-name="Enmascarar grupo 1098784" clip-path="url(#clip-path)">
    <path id="Trazado_908288" data-name="Trazado 908288" d="M0,1230.02H1376V0H0Z" transform="translate(-22 -52.808)" fill="url(#linear-gradient)"/>
    <g id="Grupo_1115262" data-name="Grupo 1115262" transform="translate(586.958 -106.294)" opacity="0.388">
      <g id="Elipse_11714" data-name="Elipse 11714" transform="translate(0 187.17)" fill="#fbe9cc" stroke="#707070" stroke-width="1" opacity="0.503">
        <ellipse cx="229.569" cy="438.472" rx="229.569" ry="438.472" stroke="none"/>
        <ellipse cx="229.569" cy="438.472" rx="229.069" ry="437.972" fill="none"/>
      </g>
      <g id="Elipse_11715" data-name="Elipse 11715" transform="translate(620.401 0)" fill="#fdf4e5" stroke="#707070" stroke-width="1" opacity="0.503">
        <ellipse cx="229.569" cy="438.472" rx="229.569" ry="438.472" stroke="none"/>
        <ellipse cx="229.569" cy="438.472" rx="229.069" ry="437.972" fill="none"/>
      </g>
      <g id="Trazado_908289" data-name="Trazado 908289" transform="translate(558.883 690.931)" fill="#fdf4e5" opacity="0.426">
        <path d="M 120.9151840209961 461.3821105957031 C 112.7737731933594 461.3821105957031 104.6362457275391 459.8150634765625 96.72859954833984 456.7245178222656 C 89.01294708251953 453.708984375 81.42100524902344 449.2073364257812 74.16377258300781 443.3446960449219 C 67.02912139892578 437.5810546875 60.1460075378418 430.4450073242188 53.70559692382812 422.1347045898438 C 47.32094955444336 413.8964233398438 41.31624221801758 404.43359375 35.85818481445312 394.0091247558594 C 30.39753723144531 383.5795288085938 25.43947792053223 372.1021118164062 21.1218318939209 359.8956298828125 C 16.76153755187988 347.5687561035156 13.01636028289795 334.3900451660156 9.990302085876465 320.7256469726562 C 6.907831192016602 306.8064575195312 4.540419101715088 292.2398071289062 2.953713417053223 277.4304809570312 C 1.325536966323853 262.2337036132812 0.5000075697898865 246.5924072265625 0.5000075697898865 230.9410552978516 C 0.5000075697898865 215.2897033691406 1.325536966323853 199.6484069824219 2.953713417053223 184.4516448974609 C 4.540419101715088 169.6422882080078 6.907831192016602 155.0756988525391 9.990302085876465 141.1565246582031 C 13.01636028289795 127.4921112060547 16.76153755187988 114.3134078979492 21.1218318939209 101.9864654541016 C 25.43947792053223 89.78005218505859 30.39753723144531 78.30258178710938 35.85818481445312 67.87299346923828 C 41.31624221801758 57.44852447509766 47.32094955444336 47.98570251464844 53.70559692382812 39.74740982055664 C 60.1460075378418 31.43711471557617 67.02912139892578 24.30105590820312 74.16377258300781 18.53746795654297 C 81.42100524902344 12.67476081848145 89.01294708251953 8.173113822937012 96.72859954833984 5.157584667205811 C 104.6362457275391 2.067055225372314 112.7737731933594 0.4999964833259583 120.9151840209961 0.4999964833259583 C 129.0565948486328 0.4999964833259583 137.1941223144531 2.067055225372314 145.1017761230469 5.157584667205811 C 152.8174133300781 8.173113822937012 160.4093627929688 12.67476081848145 167.6665954589844 18.53746795654297 C 174.8012390136719 24.30105590820312 181.6843566894531 31.43711471557617 188.1247711181641 39.74740982055664 C 194.5094146728516 47.98570251464844 200.5141296386719 57.44852447509766 205.9721832275391 67.87299346923828 C 211.4328308105469 78.30258178710938 216.3908843994141 89.78005218505859 220.7085418701172 101.9864654541016 C 225.0688323974609 114.3134078979492 228.8140106201172 127.4921112060547 231.8400726318359 141.1565246582031 C 234.9225311279297 155.0756988525391 237.2899475097656 169.6422882080078 238.8766479492188 184.4516448974609 C 240.5048370361328 199.6484069824219 241.3303680419922 215.2897033691406 241.3303680419922 230.9410552978516 C 241.3303680419922 246.5924072265625 240.5048370361328 262.2337036132812 238.8766479492188 277.4304809570312 C 237.2899475097656 292.2398071289062 234.9225311279297 306.8064575195312 231.8400726318359 320.7256469726562 C 228.8140106201172 334.3900451660156 225.0688323974609 347.5687561035156 220.7085418701172 359.8956298828125 C 216.3908843994141 372.1021118164062 211.4328308105469 383.5795288085938 205.9721832275391 394.0091247558594 C 200.5141296386719 404.43359375 194.5094146728516 413.8964233398438 188.1247711181641 422.1347045898438 C 181.6843566894531 430.4450073242188 174.8012390136719 437.5810546875 167.6665954589844 443.3446960449219 C 160.4093627929688 449.2073364257812 152.8174133300781 453.708984375 145.1017761230469 456.7245178222656 C 137.1941223144531 459.8150634765625 129.0565948486328 461.3821105957031 120.9151840209961 461.3821105957031 Z" stroke="none"/>
        <path d="M 120.9151840209961 460.8821105957031 C 128.9940643310547 460.8821105957031 137.0703582763672 459.3265991210938 144.9197692871094 456.2588195800781 C 152.5876617431641 453.2619934082031 160.1350708007812 448.7861633300781 167.3524169921875 442.9557495117188 C 174.4570007324219 437.2164001464844 181.3128967285156 430.1081237792969 187.7295989990234 421.8284606933594 C 194.09619140625 413.6134033203125 200.0848236083984 404.1755981445312 205.5291900634766 393.7772216796875 C 210.9788970947266 383.3685913085938 215.9274139404297 371.9130554199219 220.2371826171875 359.7289428710938 C 224.5907135009766 347.4211120605469 228.3302459716797 334.2621765136719 231.3518829345703 320.6175231933594 C 234.4303588867188 306.7163391113281 236.7947692871094 292.1682434082031 238.3794708251953 277.3772277832031 C 240.0057678222656 262.1980590820312 240.8303680419922 246.5746459960938 240.8303680419922 230.9410552978516 C 240.8303680419922 215.3074645996094 240.0057678222656 199.6840515136719 238.3794708251953 184.5049438476562 C 236.7947692871094 169.7138824462891 234.4303588867188 155.1657562255859 231.3518829345703 141.2645874023438 C 228.3302459716797 127.6199951171875 224.5907135009766 114.4609985351562 220.2371826171875 102.1532287597656 C 215.9274139404297 89.96905517578125 210.9788970947266 78.51358795166016 205.5291900634766 68.10493469238281 C 200.0848236083984 57.70652770996094 194.09619140625 48.26870346069336 187.7295989990234 40.05370330810547 C 181.3128356933594 31.77399635314941 174.4570007324219 24.66570281982422 167.3524169921875 18.9264087677002 C 160.1350708007812 13.09593772888184 152.5876617431641 8.620114326477051 144.9197692871094 5.623290538787842 C 137.0703582763672 2.555525779724121 128.9940643310547 0.9999964833259583 120.9151840209961 0.9999964833259583 C 112.8363037109375 0.9999964833259583 104.760009765625 2.555525779724121 96.91059875488281 5.623290538787842 C 89.24271392822266 8.620114326477051 81.69530487060547 13.09593772888184 74.47795104980469 18.9264087677002 C 67.37335968017578 24.66570281982422 60.51753616333008 31.77399635314941 54.10077285766602 40.05370330810547 C 47.73418426513672 48.26870346069336 41.74553680419922 57.70652770996094 36.30118560791016 68.10493469238281 C 30.85147857666016 78.51358795166016 25.9029483795166 89.96905517578125 21.59318351745605 102.1532287597656 C 17.23965454101562 114.4609985351562 13.50012493133545 127.6199951171875 10.47847843170166 141.2645874023438 C 7.400007724761963 155.1657562255859 5.035595893859863 169.7138824462891 3.450889825820923 184.5049438476562 C 1.824595808982849 199.6840515136719 1.000007510185242 215.3074645996094 1.000007510185242 230.9410552978516 C 1.000007510185242 246.5746459960938 1.824595808982849 262.1980590820312 3.450889825820923 277.3772277832031 C 5.035595893859863 292.1682434082031 7.400007724761963 306.7163391113281 10.47847843170166 320.6175231933594 C 13.50012493133545 334.2621765136719 17.23965454101562 347.4211120605469 21.59318351745605 359.7289428710938 C 25.9029483795166 371.9130554199219 30.85147857666016 383.3685913085938 36.30118560791016 393.7772216796875 C 41.74553680419922 404.1755981445312 47.73418426513672 413.6134033203125 54.10077285766602 421.8284606933594 C 60.51747894287109 430.1081237792969 67.37335968017578 437.2164001464844 74.47795104980469 442.9557495117188 C 81.69530487060547 448.7861633300781 89.24271392822266 453.2619934082031 96.91059875488281 456.2588195800781 C 104.760009765625 459.3265991210938 112.8363037109375 460.8821105957031 120.9151840209961 460.8821105957031 M 120.9151840209961 461.8821105957031 C 54.13559722900391 461.8821105957031 7.550407644885127e-06 358.4862976074219 7.550407644885127e-06 230.9410552978516 C 7.550407644885127e-06 103.395881652832 54.13559722900391 -3.525677811921923e-06 120.9151840209961 -3.525677811921923e-06 C 187.6947784423828 -3.525677811921923e-06 241.8303680419922 103.395881652832 241.8303680419922 230.9410552978516 C 241.8303680419922 358.4862976074219 187.6947784423828 461.8821105957031 120.9151840209961 461.8821105957031 Z" stroke="none" fill="#707070"/>
      </g>
    </g>
    <g id="Grupo_1115263" data-name="Grupo 1115263" transform="translate(-524.272 -52.808)" opacity="0.388">
      <g id="Elipse_11716" data-name="Elipse 11716" transform="translate(162.575 149.404)" fill="#fdf4e5" stroke="#707070" stroke-width="1" opacity="0.503">
        <ellipse cx="272.984" cy="521.393" rx="272.984" ry="521.393" stroke="none"/>
        <ellipse cx="272.984" cy="521.393" rx="272.484" ry="520.893" fill="none"/>
      </g>
      <g id="Elipse_11717" data-name="Elipse 11717" transform="translate(0 405.346)" fill="#f5c87f" stroke="#707070" stroke-width="1" opacity="0.503">
        <ellipse cx="272.984" cy="521.393" rx="272.984" ry="521.393" stroke="none"/>
        <ellipse cx="272.984" cy="521.393" rx="272.484" ry="520.893" fill="none"/>
      </g>
      <g id="Elipse_11718" data-name="Elipse 11718" transform="translate(258.405 0)" fill="#fbe9cc" stroke="#707070" stroke-width="1" opacity="0.426">
        <ellipse cx="143.782" cy="274.615" rx="143.782" ry="274.615" stroke="none"/>
        <ellipse cx="143.782" cy="274.615" rx="143.282" ry="274.115" fill="none"/>
      </g>
    </g>
  </g>
</svg>
