<svg xmlns="http://www.w3.org/2000/svg" xmlns:xlink="http://www.w3.org/1999/xlink" width="85" height="85" viewBox="0 0 85 85">
  <defs>
    <clipPath id="clip-path">
      <rect id="Rectángulo_404714" data-name="Rectángulo 404714" width="53.927" height="53.955" fill="none"/>
    </clipPath>
  </defs>
  <g id="Grupo_1110250" data-name="Grupo 1110250" transform="translate(-311.051 -1500)">
    <circle id="Elipse_11627" data-name="Elipse 11627" cx="42.5" cy="42.5" r="42.5" transform="translate(311.051 1500)" fill="#ff7c32"/>
    <g id="Grupo_1114873" data-name="Grupo 1114873" transform="translate(327.099 1514.522)">
      <g id="Grupo_1114872" data-name="Grupo 1114872" clip-path="url(#clip-path)">
        <path id="Trazado_906749" data-name="Trazado 906749" d="M30.729,4.489a26.19,26.19,0,1,1-26.19,26.19,26.16,26.16,0,0,1,26.19-26.19" transform="translate(-3.765 -3.724)" fill="#f5c87f" fill-rule="evenodd"/>
        <path id="Trazado_906750" data-name="Trazado 906750" d="M224.805,115.771a25.247,25.247,0,0,1,.619,5.758,26.106,26.106,0,0,1-7.616,18.512h-.062c-3.343-1.672-2.6-6.191-1.734-8.792.929-2.6-2.043-7.12-5.758-8.544-3.777-1.424-2.724-3.1-1.053-6.13s5.572-2.972,7.8-1.857a10.661,10.661,0,0,0,4.706,1.052,25.815,25.815,0,0,0,3.1,0" transform="translate(-172.271 -94.573)" fill="#fff" fill-rule="evenodd"/>
        <path id="Trazado_906751" data-name="Trazado 906751" d="M193.212,18.65a27.236,27.236,0,0,1,7.987,5.7c-5.077,3.1-6.625.929-11.144,2.91-1.548.681-3.282.433-2.848-1.176a14.769,14.769,0,0,1,3.034-4.891,29.186,29.186,0,0,1,2.972-2.539" transform="translate(-155.227 -15.47)" fill="#fff" fill-rule="evenodd"/>
        <path id="Trazado_906752" data-name="Trazado 906752" d="M10.673,44.774q1.579-7.894,12.259-15.231c3.158.929,5.758,3.591,7.8,7.863.991,2.1,1.115,3.839-.929,4.52-3.467,1.115-10.959.433-10.278,2.786.681,2.415,2.662,3.158,7.616,3.715,5.015.619,11.764,2.229,11.64,5.634-.186,3.405-3.467,4.086-5.139,7.12-1.672,3.1,1.734,12.445-3.158,10.835-4.953-1.548-9.1-11.578-10.03-16.469-.867-4.829-4.767-9.659-8.854-10.525a2.849,2.849,0,0,1-.929-.248" transform="translate(-8.847 -24.505)" fill="#fff" fill-rule="evenodd"/>
        <path id="Trazado_906753" data-name="Trazado 906753" d="M35.021,12a5.662,5.662,0,0,0,.867,2.786,7.329,7.329,0,0,0,11.888.062c2.476-3.715,3.9-7.182,6.934-9.411-7.987-1.548-14.178-1.3-17.522,1.857A6.282,6.282,0,0,0,35.021,12" transform="translate(-29.046 -3.738)" fill="#b4c0b4" fill-rule="evenodd"/>
        <path id="Trazado_906754" data-name="Trazado 906754" d="M185.5,239.417a5.64,5.64,0,0,0-.867-2.724,7.357,7.357,0,0,0-11.95-.062c-2.477,3.653-3.839,7.12-6.934,9.411,7.987,1.486,14.178,1.3,17.522-1.857a6.721,6.721,0,0,0,2.229-4.767" transform="translate(-137.485 -193.763)" fill="#b4c0b4" fill-rule="evenodd"/>
        <path id="Trazado_906755" data-name="Trazado 906755" d="M212.185,128.628a.789.789,0,0,1-.241-.038.776.776,0,0,1-.5-.977c.99-3.016-2.442-6.808-5.239-7.891-1.634-.616-2.56-1.346-2.909-2.293-.505-1.374.3-2.834,1.32-4.682l.137-.25c1.941-3.524,6.416-3.385,8.826-2.177,2.056.969,3.208,1.256,7.163.37a.774.774,0,1,1,.337,1.51c-4.379.983-5.857.607-8.176-.488-1.892-.947-5.343-1.106-6.794,1.531l-.139.251c-.83,1.5-1.485,2.69-1.222,3.4.177.481.853.946,2.009,1.382,3.4,1.317,7.476,5.794,6.158,9.819a.774.774,0,0,1-.736.533" transform="translate(-168.505 -90.868)" fill="#6a7f9a"/>
        <path id="Trazado_906756" data-name="Trazado 906756" d="M184.75,36.965a2.365,2.365,0,0,1-1.561-.5,1.84,1.84,0,0,1-.5-2.008,15.327,15.327,0,0,1,3.2-5.206.775.775,0,0,1,1.156,1.032,14.1,14.1,0,0,0-2.865,4.575c-.028.1-.081.352.013.432a2.112,2.112,0,0,0,1.777-.164,12.7,12.7,0,0,1,5.07-1.073,10.729,10.729,0,0,0,5.983-1.79.774.774,0,0,1,.806,1.323A12.188,12.188,0,0,1,191.12,35.6a11.219,11.219,0,0,0-4.522.944,4.675,4.675,0,0,1-1.847.419" transform="translate(-151.46 -24.05)" fill="#6a7f9a"/>
        <path id="Trazado_906757" data-name="Trazado 906757" d="M32.3,107.457a4.083,4.083,0,0,1-1.256-.222c-5.422-1.695-9.613-12.118-10.552-17.06-.843-4.695-4.543-9.139-8.251-9.914a.774.774,0,0,1-.6-.916.761.761,0,0,1,.915-.6c4.345.908,8.5,5.8,9.456,11.147.909,4.78,4.974,14.452,9.5,15.866.412.136.956.244,1.244.023.706-.541.584-2.893.486-4.783-.109-2.131-.224-4.335.516-5.7a11.693,11.693,0,0,1,2.7-3.1c1.258-1.121,2.252-2.005,2.346-3.7.077-2.126-4.123-3.979-10.962-4.825-4.938-.555-7.438-1.336-8.265-4.272a1.6,1.6,0,0,1,.2-1.385c.753-1.106,2.752-1.346,5.953-1.646a24.6,24.6,0,0,0,4.629-.7,1.485,1.485,0,0,0,.983-.755,3.671,3.671,0,0,0-.516-2.7.773.773,0,1,1,1.4-.659c.789,1.677.966,2.974.54,3.967a2.972,2.972,0,0,1-1.924,1.616,25.473,25.473,0,0,1-4.968.773c-1.612.15-4.614.431-4.823.985.555,2.007,2.05,2.685,6.971,3.239,4.673.578,12.48,2.18,12.327,6.431-.128,2.351-1.519,3.588-2.865,4.784a10.3,10.3,0,0,0-2.37,2.681c-.529.98-.422,3.054-.329,4.884.135,2.6.26,5.054-1.092,6.091a2.239,2.239,0,0,1-1.4.446" transform="translate(-9.644 -58.988)" fill="#6a7f9a"/>
        <path id="Trazado_906758" data-name="Trazado 906758" d="M170.411,243.952a47.54,47.54,0,0,1-8.564-.916.773.773,0,0,1-.32-1.382c2.067-1.529,3.321-3.627,4.774-6.056.61-1.023,1.248-2.087,1.981-3.168a7.79,7.79,0,0,1,6.538-3.374h.03a7.957,7.957,0,0,1,6.663,3.438.774.774,0,0,1-1.284.864,6.414,6.414,0,0,0-5.379-2.754h-.024a6.252,6.252,0,0,0-5.258,2.687c-.721,1.063-1.344,2.1-1.941,3.1a25.717,25.717,0,0,1-3.888,5.4c7.574,1.218,12.57.58,15.238-1.939a5.994,5.994,0,0,0,1.986-4.205.774.774,0,0,1,1.549,0,7.542,7.542,0,0,1-2.468,5.326c-2.11,1.992-5.245,2.976-9.633,2.976" transform="translate(-133.723 -189.997)" fill="#6a7f9a"/>
        <path id="Trazado_906759" data-name="Trazado 906759" d="M214.628,189.34a.774.774,0,0,1-.175-1.528c8.193-1.9,13.348-8.09,15.328-18.4a.773.773,0,1,1,1.519.292c-2.1,10.966-7.653,17.565-16.5,19.616a.769.769,0,0,1-.175.02" transform="translate(-177.387 -140.002)" fill="#6a7f9a"/>
        <path id="Trazado_906760" data-name="Trazado 906760" d="M38.082,14.891h-.047a7.8,7.8,0,0,1-6.542-3.422.773.773,0,1,1,1.293-.849,6.261,6.261,0,0,0,5.258,2.724,6.177,6.177,0,0,0,5.341-2.67c.68-1.021,1.282-2.025,1.86-2.989a26.436,26.436,0,0,1,3.972-5.519C41.691.9,36.693,1.543,33.972,4.115a5.716,5.716,0,0,0-1.924,4.143.774.774,0,1,1-1.549,0A7.33,7.33,0,0,1,32.9,2.994c3.3-3.12,9.257-3.791,18.2-2.058a.774.774,0,0,1,.311,1.383c-2.063,1.515-3.353,3.669-4.846,6.161-.591.984-1.205,2.01-1.9,3.056a7.85,7.85,0,0,1-6.589,3.355" transform="translate(-25.298 -0.001)" fill="#6a7f9a"/>
        <path id="Trazado_906761" data-name="Trazado 906761" d="M.781,47.427a.764.764,0,0,1-.145-.014.772.772,0,0,1-.614-.905C2.12,35.5,7.67,28.88,16.518,26.828a.763.763,0,0,1,.928.579.773.773,0,0,1-.578.929C8.673,30.237,3.515,36.448,1.54,46.8a.773.773,0,0,1-.759.629" transform="translate(-0.006 -22.236)" fill="#6a7f9a"/>
        <path id="Trazado_906762" data-name="Trazado 906762" d="M191.7,27.115a.776.776,0,0,1-.774-.749A25.483,25.483,0,0,0,167.729,1.851a.773.773,0,0,1-.7-.839.745.745,0,0,1,.838-.7,27.036,27.036,0,0,1,24.6,26.007.775.775,0,0,1-.749.8H191.7" transform="translate(-138.543 -0.253)" fill="#6a7f9a"/>
        <path id="Trazado_906763" data-name="Trazado 906763" d="M24.735,185.406c-.021,0-.045,0-.068,0A27.056,27.056,0,0,1,0,159.4a.775.775,0,0,1,.749-.8.755.755,0,0,1,.8.748A25.5,25.5,0,0,0,24.8,183.861a.774.774,0,0,1-.068,1.545" transform="translate(0 -131.548)" fill="#6a7f9a"/>
      </g>
    </g>
  </g>
</svg>
