<svg xmlns="http://www.w3.org/2000/svg" xmlns:xlink="http://www.w3.org/1999/xlink" width="90" height="87" viewBox="0 0 90 87">
  <defs>
    <clipPath id="clip-path">
      <rect id="Rect치ngulo_404757" data-name="Rect치ngulo 404757" width="69.682" height="67.822" fill="none"/>
    </clipPath>
  </defs>
  <g id="Grupo_1115051" data-name="Grupo 1115051" transform="translate(-249 -6005)">
    <g id="Grupo_1115048" data-name="Grupo 1115048" transform="translate(259.051 6022.753)">
      <g id="Grupo_1115047" data-name="Grupo 1115047" transform="translate(0 0)" clip-path="url(#clip-path)">
        <path id="Trazado_907046" data-name="Trazado 907046" d="M67.412,45.277H2.059A2.021,2.021,0,0,1,.038,43.255V24.815A2.02,2.02,0,0,1,2.059,22.8H67.412a2.02,2.02,0,0,1,2.021,2.019v18.44a2.021,2.021,0,0,1-2.021,2.021" transform="translate(0.037 22.331)" fill="#fff296"/>
        <path id="Trazado_907047" data-name="Trazado 907047" d="M68.772,44.284a.921.921,0,0,1,0,1.841H42.205a29.185,29.185,0,0,1,3.642,2.356H68.772a.921.921,0,0,1,0,1.841H48.065A33.344,33.344,0,0,1,50.5,52.856H68.772a.921.921,0,0,1,0,1.841H51.965c.594.792,1.148,1.623,1.7,2.534h15.1a.921.921,0,0,1,0,1.841H54.677c.416.812.812,1.643,1.188,2.534H68.772a.921.921,0,0,1,0,1.841H56.6c.277.812.534,1.663.772,2.534h11.4a.921.921,0,0,1,0,1.841H56.934a.857.857,0,0,1-.1-.02.436.436,0,0,1-.158.02.91.91,0,0,1-.891-.693c-4.1-16.154-16.945-20.647-18.074-21H33.436c4.751,2.593,12.293,8.473,15.382,20.548a.944.944,0,0,1-.673,1.128.964.964,0,0,1-.238.02.945.945,0,0,1-.891-.693c-4.1-16.154-16.945-20.647-18.074-21H24.686c4.751,2.593,12.293,8.473,15.362,20.548a.944.944,0,0,1-.673,1.128.812.812,0,0,1-.218.02.91.91,0,0,1-.891-.693c-4.1-16.134-16.965-20.647-18.094-21H15.916C20.667,48.718,28.21,54.6,31.278,66.674a.948.948,0,0,1-.653,1.128.964.964,0,0,1-.238.02.91.91,0,0,1-.891-.693c-4.1-16.134-16.945-20.647-18.074-21H7.146C11.9,48.718,19.44,54.6,22.508,66.674a.916.916,0,0,1-.653,1.128.964.964,0,0,1-.238.02.945.945,0,0,1-.891-.693c-4.1-16.154-16.945-20.647-18.074-21H.93a.921.921,0,1,1,0-1.841H16.253v-3.6a7.612,7.612,0,0,1-2.514.416,10.143,10.143,0,0,1-5.226-1.524c-2.989-1.841-4.791-4.929-4.593-7.9a.922.922,0,0,1,.455-.732,7.2,7.2,0,0,1,2.752-.93A8.575,8.575,0,0,1,3.92,23.162a.953.953,0,0,1,.455-.732,7.2,7.2,0,0,1,2.752-.93A8.575,8.575,0,0,1,3.92,14.649a.922.922,0,0,1,.455-.732,8.956,8.956,0,0,1,9.126.515,10.288,10.288,0,0,1,2.752,2.455V15.7a.929.929,0,0,1,.93-.93.913.913,0,0,1,.911.93v1.188a10.689,10.689,0,0,1,2.771-2.455,8.956,8.956,0,0,1,9.126-.515.922.922,0,0,1,.455.732c0,.139.02.277.02.436A8.708,8.708,0,0,1,27.239,21.5a7.2,7.2,0,0,1,2.752.93.953.953,0,0,1,.455.732,8.575,8.575,0,0,1-3.207,6.849,7.2,7.2,0,0,1,2.752.93.953.953,0,0,1,.455.732c.2,2.969-1.6,6.058-4.593,7.9A10.143,10.143,0,0,1,20.628,41.1a7.729,7.729,0,0,1-2.534-.416v3.6h31.12V38.306a10.477,10.477,0,0,1-3.939.732,13.946,13.946,0,0,1-7.186-2.1c-4.1-2.514-6.572-6.75-6.3-10.809a.953.953,0,0,1,.455-.732,10.02,10.02,0,0,1,4.593-1.346,12.117,12.117,0,0,1-5.048-9.007,7.3,7.3,0,0,1,0-.93.919.919,0,0,1,.455-.713,10.038,10.038,0,0,1,4.593-1.366C33.5,9.482,31.555,5.721,31.793,2.118a.953.953,0,0,1,.455-.732c3.464-2.079,8.374-1.8,12.472.713a13.98,13.98,0,0,1,4.494,4.375V3.563a.9.9,0,0,1,.911-.911.913.913,0,0,1,.93.911v2.91A13.716,13.716,0,0,1,55.528,2.1c4.1-2.514,9.007-2.791,12.491-.713a.932.932,0,0,1,.436.732c.257,3.6-1.7,7.364-5.048,9.918A10.191,10.191,0,0,1,68.02,13.4a.9.9,0,0,1,.436.713c.257,3.623-1.7,7.384-5.048,9.938A10.172,10.172,0,0,1,68.02,25.4a.932.932,0,0,1,.436.732c.277,4.058-2.2,8.295-6.3,10.809a13.946,13.946,0,0,1-7.186,2.1,10.375,10.375,0,0,1-3.92-.732v5.978ZM61.19,11.343c3.365-2.059,5.444-5.385,5.444-8.611-2.87-1.465-6.79-1.128-10.155.93-3.346,2.059-5.444,5.4-5.424,8.631,2.87,1.465,6.79,1.109,10.136-.95m0,12.016c3.365-2.059,5.444-5.4,5.444-8.611-2.87-1.485-6.79-1.128-10.155.93-3.346,2.059-5.444,5.4-5.424,8.631,2.87,1.465,6.79,1.109,10.136-.95m0,12.016c3.365-2.059,5.444-5.4,5.444-8.631-2.87-1.465-6.79-1.109-10.155.95-3.346,2.059-5.444,5.385-5.424,8.611,2.851,1.465,6.79,1.128,10.136-.93m-6.909-20.39a10.912,10.912,0,0,1-3.227-.693V18.47a13.758,13.758,0,0,1,3.227-3.484m0,12a10.3,10.3,0,0,1-3.227-.673v4.177a13.835,13.835,0,0,1,3.227-3.5m-5.068,3.5V26.309a10.546,10.546,0,0,1-3.247.673,14.293,14.293,0,0,1,3.247,3.5m0-6.176v-.02c0-3.227-2.1-6.553-5.444-8.611-3.365-2.059-7.285-2.415-10.155-.93,0,3.207,2.079,6.553,5.444,8.611,3.346,2.059,7.285,2.415,10.155.95m0-5.84V14.293a11.179,11.179,0,0,1-3.247.693,14.214,14.214,0,0,1,3.247,3.484m0-6.176v-.02c0-3.207-2.1-6.553-5.444-8.611-3.365-2.039-7.285-2.4-10.155-.93,0,3.227,2.079,6.553,5.444,8.611,3.346,2.059,7.265,2.415,10.155.95m0,24.013c0-3.227-2.1-6.553-5.444-8.611-3.365-2.059-7.285-2.415-10.155-.95,0,3.227,2.079,6.572,5.444,8.631a12.038,12.038,0,0,0,6.2,1.821,8.748,8.748,0,0,0,3.959-.891M28.605,15.263a7.272,7.272,0,0,0-6.77.732,7.307,7.307,0,0,0-3.741,5.721,7.364,7.364,0,0,0,6.79-.732,7.342,7.342,0,0,0,3.722-5.721m0,8.512a7.272,7.272,0,0,0-6.77.732,7.307,7.307,0,0,0-3.741,5.721,7.364,7.364,0,0,0,6.79-.732,7.342,7.342,0,0,0,3.722-5.721m0,8.512a7.272,7.272,0,0,0-6.77.732,7.307,7.307,0,0,0-3.741,5.721,7.364,7.364,0,0,0,6.79-.732,7.342,7.342,0,0,0,3.722-5.721M19.46,23.993a6.56,6.56,0,0,1-1.366-.337V25.4a11.414,11.414,0,0,1,1.366-1.406m0,8.512a6.561,6.561,0,0,1-1.366-.337v1.742a11.414,11.414,0,0,1,1.366-1.406m-3.207,1.406V32.169a6.384,6.384,0,0,1-1.346.337,9.974,9.974,0,0,1,1.346,1.406m0-8.512V23.656a6.384,6.384,0,0,1-1.346.337A9.974,9.974,0,0,1,16.253,25.4m-6.77-4.415a7.324,7.324,0,0,0,6.77.732A7.282,7.282,0,0,0,12.531,16a7.307,7.307,0,0,0-6.79-.732,7.367,7.367,0,0,0,3.741,5.721m0,8.512a7.324,7.324,0,0,0,6.77.732,7.282,7.282,0,0,0-3.722-5.721,7.307,7.307,0,0,0-6.79-.732A7.367,7.367,0,0,0,9.482,29.5m0,8.512a7.324,7.324,0,0,0,6.77.732,7.282,7.282,0,0,0-3.722-5.721,7.307,7.307,0,0,0-6.79-.732,7.367,7.367,0,0,0,3.741,5.721" transform="translate(0 0)"/>
        <path id="Trazado_907048" data-name="Trazado 907048" d="M41.37,1.825c0,3.227-2.079,6.553-5.444,8.611-3.346,2.059-7.265,2.415-10.136.95-.02-3.227,2.079-6.572,5.424-8.631C34.58.7,38.5.36,41.37,1.825" transform="translate(25.264 0.907)" fill="#fff296"/>
        <path id="Trazado_907049" data-name="Trazado 907049" d="M41.37,7.9c0,3.207-2.079,6.553-5.444,8.611-3.346,2.059-7.265,2.415-10.136.95-.02-3.227,2.079-6.572,5.424-8.631C34.58,6.771,38.5,6.414,41.37,7.9" transform="translate(25.264 6.849)" fill="#fff296"/>
        <path id="Trazado_907050" data-name="Trazado 907050" d="M41.37,13.951c0,3.227-2.079,6.572-5.444,8.631-3.346,2.059-7.285,2.4-10.136.93-.02-3.227,2.079-6.553,5.424-8.611,3.365-2.059,7.285-2.415,10.155-.95" transform="translate(25.264 12.793)" fill="#fff296"/>
        <path id="Trazado_907051" data-name="Trazado 907051" d="M32.579,17.441v.02c-2.87,1.465-6.81,1.109-10.155-.95-3.365-2.059-5.444-5.4-5.444-8.611,2.87-1.485,6.79-1.128,10.155.93,3.346,2.059,5.444,5.385,5.444,8.611" transform="translate(16.634 6.849)" fill="#dbca0b"/>
        <path id="Trazado_907052" data-name="Trazado 907052" d="M32.579,11.364v.02c-2.89,1.465-6.81,1.109-10.155-.95C19.059,8.374,16.98,5.049,16.98,1.822c2.87-1.465,6.79-1.109,10.155.93,3.346,2.059,5.444,5.4,5.444,8.611" transform="translate(16.634 0.91)" fill="#dbca0b"/>
        <path id="Trazado_907053" data-name="Trazado 907053" d="M27.135,14.9c3.346,2.059,5.444,5.385,5.444,8.611a8.748,8.748,0,0,1-3.959.891,12.038,12.038,0,0,1-6.2-1.821c-3.365-2.059-5.444-5.4-5.444-8.631,2.87-1.465,6.79-1.109,10.155.95" transform="translate(16.634 12.793)" fill="#dbca0b"/>
        <path id="Trazado_907054" data-name="Trazado 907054" d="M12.881,8.707a7.272,7.272,0,0,1,6.77-.732A7.342,7.342,0,0,1,15.93,13.7a7.364,7.364,0,0,1-6.79.732,7.307,7.307,0,0,1,3.741-5.721" transform="translate(8.954 7.288)" fill="#fff296"/>
        <path id="Trazado_907055" data-name="Trazado 907055" d="M12.881,13.007a7.272,7.272,0,0,1,6.77-.732A7.342,7.342,0,0,1,15.93,18a7.364,7.364,0,0,1-6.79.732,7.307,7.307,0,0,1,3.741-5.721" transform="translate(8.954 11.5)" fill="#fff296"/>
        <path id="Trazado_907056" data-name="Trazado 907056" d="M12.881,17.307a7.272,7.272,0,0,1,6.77-.732A7.342,7.342,0,0,1,15.93,22.3a7.364,7.364,0,0,1-6.79.732,7.307,7.307,0,0,1,3.741-5.721" transform="translate(8.954 15.713)" fill="#fff296"/>
        <path id="Trazado_907057" data-name="Trazado 907057" d="M13.412,14.428a7.324,7.324,0,0,1-6.77-.732A7.367,7.367,0,0,1,2.9,7.975a7.307,7.307,0,0,1,6.79.732,7.282,7.282,0,0,1,3.722,5.721" transform="translate(2.841 7.288)" fill="#dbca0b"/>
        <path id="Trazado_907058" data-name="Trazado 907058" d="M13.412,18.728A7.324,7.324,0,0,1,6.641,18,7.367,7.367,0,0,1,2.9,12.275a7.307,7.307,0,0,1,6.79.732,7.282,7.282,0,0,1,3.722,5.721" transform="translate(2.841 11.5)" fill="#dbca0b"/>
        <path id="Trazado_907059" data-name="Trazado 907059" d="M13.412,23.028a7.324,7.324,0,0,1-6.77-.732A7.367,7.367,0,0,1,2.9,16.575a7.307,7.307,0,0,1,6.79.732,7.282,7.282,0,0,1,3.722,5.721" transform="translate(2.841 15.713)" fill="#dbca0b"/>
      </g>
    </g>
    <rect id="Rect치ngulo_404760" data-name="Rect치ngulo 404760" width="90" height="87" transform="translate(249 6005)" fill="none"/>
  </g>
</svg>
