<svg xmlns="http://www.w3.org/2000/svg" xmlns:xlink="http://www.w3.org/1999/xlink" width="90" height="87" viewBox="0 0 90 87">
  <defs>
    <clipPath id="clip-path">
      <rect id="Rect치ngulo_404758" data-name="Rect치ngulo 404758" width="78.907" height="65.078" fill="none"/>
    </clipPath>
  </defs>
  <g id="Grupo_1115052" data-name="Grupo 1115052" transform="translate(-879 -6005)">
    <rect id="Rect치ngulo_404759" data-name="Rect치ngulo 404759" width="90" height="87" transform="translate(879 6005)" fill="none"/>
    <g id="Grupo_1115050" data-name="Grupo 1115050" transform="translate(885.025 6026.16)">
      <g id="Grupo_1115049" data-name="Grupo 1115049" transform="translate(0 0)" clip-path="url(#clip-path)">
        <path id="Trazado_907060" data-name="Trazado 907060" d="M74.242,42.628H4.484A4.485,4.485,0,0,1,0,38.144v-15.8a4.483,4.483,0,0,1,4.484-4.484H74.242a4.483,4.483,0,0,1,4.484,4.484v15.8a4.485,4.485,0,0,1-4.484,4.484" transform="translate(0 22.168)" fill="#fff296"/>
        <path id="Trazado_907061" data-name="Trazado 907061" d="M77.677,39.24a1.042,1.042,0,0,1,0,2.084H46.527a35.693,35.693,0,0,1,3.854,2.51h27.3a1.048,1.048,0,0,1,1.031,1.053,1.028,1.028,0,0,1-1.031,1.031H52.891c.874.807,1.726,1.726,2.6,2.712H77.677a1.042,1.042,0,0,1,0,2.084H57.149c.627.852,1.233,1.748,1.815,2.712H77.677a1.042,1.042,0,0,1,0,2.084H60.107c.448.852.852,1.748,1.255,2.712H77.677a1.028,1.028,0,0,1,1.031,1.031,1.048,1.048,0,0,1-1.031,1.053H62.192c.291.852.56,1.77.807,2.689H77.677a1.042,1.042,0,0,1,0,2.084H62.505c-.045,0-.067-.022-.112-.022a.381.381,0,0,1-.157.022,1.031,1.031,0,0,1-1.008-.784C56.746,46.68,42.717,41.727,41.462,41.324H36.936c5.2,2.891,13.379,9.323,16.718,22.455a1.069,1.069,0,0,1-.762,1.277.919.919,0,0,1-.247.022,1.031,1.031,0,0,1-1.008-.784c-4.482-17.637-18.488-22.567-19.766-22.97H27.344c5.2,2.891,13.379,9.323,16.718,22.455a1.069,1.069,0,0,1-.762,1.277.919.919,0,0,1-.247.022,1.031,1.031,0,0,1-1.008-.784C37.563,46.68,23.535,41.727,22.28,41.324H17.753c5.2,2.891,13.379,9.323,16.718,22.455a1.069,1.069,0,0,1-.762,1.277,1,1,0,0,1-.247.022,1.031,1.031,0,0,1-1.008-.784C27.972,46.68,13.943,41.727,12.688,41.324H8.161c5.2,2.891,13.379,9.323,16.718,22.455a1.069,1.069,0,0,1-.762,1.277,1,1,0,0,1-.247.022,1.031,1.031,0,0,1-1.008-.784C18.358,46.657,4.374,41.727,3.1,41.324h-1.9a1.042,1.042,0,0,1,0-2.084H15.4V30.276c-4.437-.65-7.911-5.244-7.911-10.891,0-6.073,4.011-11,8.942-11s8.942,4.93,8.942,11c0,5.647-3.451,10.241-7.888,10.891v2.891L19.7,32.091a1.039,1.039,0,0,1,1.389.471,1.074,1.074,0,0,1-.493,1.412l-3.115,1.5V39.24H28.308V37.559a1.042,1.042,0,0,1,2.084,0V39.24H45v-5.2l-2.913-2.4a1.012,1.012,0,0,1-.134-1.457,1.034,1.034,0,0,1,1.457-.157L45,31.351V24.92a12.481,12.481,0,1,1,13.491-13.2,8.636,8.636,0,0,1-3.339,16.606,8.544,8.544,0,0,1-2.846-.515,8.8,8.8,0,0,1-5.222,3.182V39.24h8.247V36.752a1.042,1.042,0,1,1,2.084,0V39.24h6.947V33.548a1.042,1.042,0,0,1,2.084,0V39.24ZM61.721,19.676a6.552,6.552,0,0,0-4.975-6.32,2.71,2.71,0,0,0-.4-.112,6.884,6.884,0,0,0-1.188-.112,6.571,6.571,0,0,0-6.566,6.544,6.373,6.373,0,0,0,.224,1.614,2.448,2.448,0,0,1,.112.381,5.511,5.511,0,0,0,.56,1.233,6.486,6.486,0,0,0,5.67,3.339,6.575,6.575,0,0,0,6.566-6.566m-6.566-8.628a7.333,7.333,0,0,1,1.21.09A10.4,10.4,0,1,0,46.056,22.9a8.58,8.58,0,0,0,1.053-.067c-.09-.224-.134-.471-.2-.695-.067-.269-.179-.515-.224-.784a8.565,8.565,0,0,1,8.471-10.309m-4.8,15.821a8.018,8.018,0,0,1-2.151-2.107c-.381.067-.74.112-1.12.157v3.967a6.466,6.466,0,0,0,3.272-2.017M23.31,19.385c0-4.908-3.093-8.919-6.88-8.919s-6.857,4.011-6.857,8.919c0,4.93,3.07,8.942,6.857,8.942s6.88-4.011,6.88-8.942" transform="translate(0.2 0)"/>
        <path id="Trazado_907062" data-name="Trazado 907062" d="M29.928,6.084A6.538,6.538,0,0,1,28.337,18.97a6.486,6.486,0,0,1-5.67-3.339,5.511,5.511,0,0,1-.56-1.233A2.448,2.448,0,0,0,22,14.017a6.373,6.373,0,0,1-.224-1.614A6.571,6.571,0,0,1,28.337,5.86a6.884,6.884,0,0,1,1.188.112,2.709,2.709,0,0,1,.4.112" transform="translate(27.018 7.272)" fill="#078c2b"/>
        <path id="Trazado_907063" data-name="Trazado 907063" d="M36.708,9.984a7.333,7.333,0,0,0-1.21-.09A8.565,8.565,0,0,0,27.027,20.2c.045.269.157.515.224.784.067.224.112.471.2.695a8.579,8.579,0,0,1-1.053.067A10.409,10.409,0,1,1,36.708,9.984" transform="translate(19.857 1.154)" fill="#078c2b"/>
        <path id="Trazado_907064" data-name="Trazado 907064" d="M11.218,4.67c3.787,0,6.88,4.011,6.88,8.919,0,4.93-3.093,8.942-6.88,8.942s-6.857-4.011-6.857-8.942c0-4.908,3.07-8.919,6.857-8.919" transform="translate(5.412 5.795)" fill="#078c2b"/>
      </g>
    </g>
  </g>
</svg>
