<svg xmlns="http://www.w3.org/2000/svg" xmlns:xlink="http://www.w3.org/1999/xlink" width="89" height="89" viewBox="0 0 89 89">
  <defs>
    <clipPath id="clip-path">
      <rect id="Rectángulo_404865" data-name="Rectángulo 404865" width="62.194" height="59.928" fill="none"/>
    </clipPath>
  </defs>
  <g id="Grupo_1115184" data-name="Grupo 1115184" transform="translate(-1121 -7579)">
    <circle id="Elipse_11692" data-name="Elipse 11692" cx="44.5" cy="44.5" r="44.5" transform="translate(1121 7579)" fill="#fbe9cc"/>
    <g id="Grupo_1115169" data-name="Grupo 1115169" transform="translate(1133.858 7594.506)">
      <g id="Grupo_1115168" data-name="Grupo 1115168" clip-path="url(#clip-path)">
        <path id="Trazado_907572" data-name="Trazado 907572" d="M165.586,51.729a6.864,6.864,0,1,1,6.864-6.864,6.872,6.872,0,0,1-6.864,6.864m0-11.32a4.456,4.456,0,1,0,4.456,4.456,4.461,4.461,0,0,0-4.456-4.456" transform="translate(-120.493 -28.848)" fill="#231f20"/>
        <path id="Trazado_907573" data-name="Trazado 907573" d="M182.926,13.54a1.2,1.2,0,0,1-1.2-1.2V9.2a1.2,1.2,0,0,1,2.409,0v3.131a1.2,1.2,0,0,1-1.2,1.2" transform="translate(-137.954 -6.073)" fill="#231f20"/>
        <path id="Trazado_907574" data-name="Trazado 907574" d="M182.926,107.54a1.2,1.2,0,0,1-1.2-1.2V103.2a1.2,1.2,0,1,1,2.409,0v3.131a1.2,1.2,0,0,1-1.2,1.2" transform="translate(-137.954 -77.433)" fill="#231f20"/>
        <path id="Trazado_907575" data-name="Trazado 907575" d="M226.557,63.909h-3.131a1.2,1.2,0,1,1,0-2.409h3.131a1.2,1.2,0,0,1,0,2.409" transform="translate(-168.699 -46.688)" fill="#231f20"/>
        <path id="Trazado_907576" data-name="Trazado 907576" d="M132.557,63.909h-3.131a1.2,1.2,0,1,1,0-2.409h3.131a1.2,1.2,0,0,1,0,2.409" transform="translate(-97.339 -46.688)" fill="#231f20"/>
        <path id="Trazado_907577" data-name="Trazado 907577" d="M213.778,94.76a1.2,1.2,0,0,1-.851-.353l-2.214-2.214a1.2,1.2,0,1,1,1.7-1.7l2.214,2.214a1.2,1.2,0,0,1-.851,2.056" transform="translate(-159.694 -68.427)" fill="#231f20"/>
        <path id="Trazado_907578" data-name="Trazado 907578" d="M147.309,28.292a1.2,1.2,0,0,1-.851-.353l-2.214-2.214a1.2,1.2,0,1,1,1.7-1.7l2.214,2.214a1.2,1.2,0,0,1-.851,2.056" transform="translate(-109.234 -17.968)" fill="#231f20"/>
        <path id="Trazado_907579" data-name="Trazado 907579" d="M145.1,94.76a1.2,1.2,0,0,1-.851-2.056l2.214-2.214a1.2,1.2,0,1,1,1.7,1.7l-2.214,2.214a1.2,1.2,0,0,1-.851.353" transform="translate(-109.235 -68.427)" fill="#231f20"/>
        <path id="Trazado_907580" data-name="Trazado 907580" d="M211.564,28.292a1.2,1.2,0,0,1-.851-2.056l2.214-2.214a1.2,1.2,0,1,1,1.7,1.7l-2.214,2.214a1.2,1.2,0,0,1-.851.353" transform="translate(-159.694 -17.968)" fill="#231f20"/>
        <path id="Trazado_907581" data-name="Trazado 907581" d="M32.937,27.944a7.687,7.687,0,0,1-5.962-3.1c-2.5-3.1-3.065-7.3-1.681-12.485A41.293,41.293,0,0,1,30.126,1.733,3.394,3.394,0,0,1,32.938,0h.035A3.357,3.357,0,0,1,35.758,1.64c4.46,6.8,8.65,16.329,3.281,23.082a7.841,7.841,0,0,1-6.077,3.222Zm.035-25.536h-.006a1.07,1.07,0,0,0-.8.6C29.588,7.156,24.1,17.444,28.849,23.33a5.338,5.338,0,0,0,4.089,2.206h.016a5.494,5.494,0,0,0,4.2-2.313c3.541-4.454,2.362-11.46-3.41-20.262a1.03,1.03,0,0,0-.772-.553m-1.824-.039h0Z" transform="translate(-18.642 0.001)" fill="#231f20"/>
        <path id="Trazado_907582" data-name="Trazado 907582" d="M56.075,83.787a1.2,1.2,0,0,1-1.2-1.2V66.2a1.2,1.2,0,1,1,2.409,0V82.582a1.2,1.2,0,0,1-1.2,1.2" transform="translate(-41.655 -49.345)" fill="#231f20"/>
        <path id="Trazado_907583" data-name="Trazado 907583" d="M38.352,163.932A1.2,1.2,0,0,1,37.4,162a63.251,63.251,0,0,1,22.239-18.179A67.188,67.188,0,0,1,89.19,137a1.2,1.2,0,0,1,0,2.409A64.764,64.764,0,0,0,60.7,145.978a60.83,60.83,0,0,0-21.389,17.48,1.2,1.2,0,0,1-.958.473" transform="translate(-28.201 -104.003)" fill="#231f20"/>
        <path id="Trazado_907584" data-name="Trazado 907584" d="M81.41,182.1a1.2,1.2,0,0,1-.8-2.1,66.111,66.111,0,0,1,41.149-16.482,1.2,1.2,0,1,1,.1,2.406,63.7,63.7,0,0,0-39.649,15.873,1.2,1.2,0,0,1-.8.306" transform="translate(-60.887 -124.131)" fill="#231f20"/>
        <path id="Trazado_907585" data-name="Trazado 907585" d="M146.6,201.583a1.2,1.2,0,0,1-.561-2.271,66.8,66.8,0,0,1,24.667-7.334,1.2,1.2,0,1,1,.235,2.4,64.4,64.4,0,0,0-23.782,7.069,1.2,1.2,0,0,1-.559.138" transform="translate(-110.375 -145.735)" fill="#231f20"/>
        <path id="Trazado_907586" data-name="Trazado 907586" d="M22.232,188.5a1.2,1.2,0,0,1-.665-.2,31.683,31.683,0,0,0-15.2-5.168,1.2,1.2,0,1,1,.192-2.4A34.068,34.068,0,0,1,22.9,186.292a1.2,1.2,0,0,1-.667,2.208" transform="translate(-3.995 -137.198)" fill="#231f20"/>
        <path id="Trazado_907587" data-name="Trazado 907587" d="M26.334,160.048a1.2,1.2,0,0,1-.665-.2,46.169,46.169,0,0,0-22.143-7.531,1.2,1.2,0,0,1,.192-2.4A48.555,48.555,0,0,1,27,157.84a1.2,1.2,0,0,1-.667,2.208" transform="translate(-1.836 -113.803)" fill="#231f20"/>
        <path id="Trazado_907588" data-name="Trazado 907588" d="M31.243,136.19a1.2,1.2,0,0,1-.665-.2A61.447,61.447,0,0,0,1.108,125.964a1.2,1.2,0,0,1,.192-2.4,63.83,63.83,0,0,1,30.61,10.42,1.2,1.2,0,0,1-.667,2.208" transform="translate(0 -93.799)" fill="#231f20"/>
      </g>
    </g>
  </g>
</svg>
