<svg xmlns="http://www.w3.org/2000/svg" xmlns:xlink="http://www.w3.org/1999/xlink" width="89" height="89" viewBox="0 0 89 89">
  <defs>
    <clipPath id="clip-path">
      <rect id="Rectángulo_404869" data-name="Rectángulo 404869" width="56.438" height="53.809" fill="none"/>
    </clipPath>
  </defs>
  <g id="Grupo_1115181" data-name="Grupo 1115181" transform="translate(2981 4092)">
    <g id="Grupo_1115060" data-name="Grupo 1115060" transform="translate(-3791 -11671)">
      <circle id="Elipse_11692" data-name="Elipse 11692" cx="44.5" cy="44.5" r="44.5" transform="translate(810 7579)" fill="#fbe9cc"/>
    </g>
    <g id="Grupo_1115177" data-name="Grupo 1115177" transform="translate(-2964.969 -4076.219)">
      <g id="Grupo_1115176" data-name="Grupo 1115176" clip-path="url(#clip-path)">
        <path id="Trazado_907617" data-name="Trazado 907617" d="M71.933,98.076a6.687,6.687,0,1,0-6.687,6.687,6.694,6.694,0,0,0,6.687-6.687M65.246,103.2a5.121,5.121,0,1,1,5.122-5.121,5.126,5.126,0,0,1-5.122,5.121" transform="translate(-35.131 -54.827)"/>
        <path id="Trazado_907618" data-name="Trazado 907618" d="M71.241,101.377a2.691,2.691,0,1,0,2.689,2.69,2.694,2.694,0,0,0-2.689-2.69m0,3.816a1.125,1.125,0,1,1,1.124-1.125,1.126,1.126,0,0,1-1.124,1.125" transform="translate(-41.125 -60.818)"/>
        <path id="Trazado_907619" data-name="Trazado 907619" d="M53.352,34.947A10.547,10.547,0,0,0,44.43,17.038h0A10.556,10.556,0,0,0,28.638,3.087a.684.684,0,0,0-.051.076c-.006.006-.014.007-.02.013L13.013,18.731q-.136.131-.267.266l-.049.049c-.006.005-.007.012-.012.018a10.434,10.434,0,0,0-2.6,9.744l-6.85,6.85q-.136.131-.266.266l-.049.049c-.005.005-.007.012-.012.018A10.552,10.552,0,1,0,20.339,47.223a10.531,10.531,0,0,0,16.931,3.77l.006,0,.017-.017q.278-.258.536-.535L53.35,34.949l0,0M29.675,4.283a.745.745,0,0,0,.051-.076c.006-.006.014-.007.02-.013A8.995,8.995,0,0,1,42.467,16.913h0L30.606,28.748a10.471,10.471,0,0,0-4.848-11.472l10.6-10.6a.783.783,0,0,0-1.107-1.107L24.286,16.535a10.372,10.372,0,0,0-6.384-.478ZM13.85,20.109l.274-.275A8.981,8.981,0,0,1,26.967,32.38l-.575.574v0A8.981,8.981,0,0,1,13.85,20.109M21.8,36.768a10.545,10.545,0,0,0-1.457,2.506,10.546,10.546,0,0,0-1.457-2.5,9.468,9.468,0,0,0,2.915,0M10.632,30.476A10.558,10.558,0,0,0,12.018,32.8a10.549,10.549,0,0,0-1.457-.113,10.518,10.518,0,0,0-2.436.295ZM10.56,52.243A8.982,8.982,0,0,1,4.072,37.036l.275-.275A8.99,8.99,0,1,1,10.56,52.243m10.562-8.995a8.995,8.995,0,1,1,15.622,6.059l-.575.574v0a8.979,8.979,0,0,1-15.047-6.634m18.517-4.534L48,30.352a.783.783,0,0,0-1.107-1.107L38.836,37.3a10.427,10.427,0,0,0-10.056-4.52L42.386,19.206a9.047,9.047,0,0,1,6.1-.31L38.137,29.245a.783.783,0,0,0,1.107,1.107L50.071,19.525A8.985,8.985,0,0,1,52.244,33.84h0L40.384,45.675a10.353,10.353,0,0,0-.745-6.961" transform="translate(0 0.001)"/>
        <path id="Trazado_907620" data-name="Trazado 907620" d="M16.369,91.39a6.686,6.686,0,1,0,6.687,6.686,6.694,6.694,0,0,0-6.687-6.686m0,11.807a5.121,5.121,0,1,1,5.122-5.121,5.126,5.126,0,0,1-5.122,5.121" transform="translate(-5.809 -54.827)"/>
        <path id="Trazado_907621" data-name="Trazado 907621" d="M22.362,101.377a2.691,2.691,0,1,0,2.691,2.69,2.693,2.693,0,0,0-2.691-2.69m0,3.816a1.125,1.125,0,1,1,1.125-1.125,1.126,1.126,0,0,1-1.125,1.125" transform="translate(-11.802 -60.818)"/>
        <path id="Trazado_907622" data-name="Trazado 907622" d="M40.808,62.454a6.686,6.686,0,1,0-6.686-6.687,6.695,6.695,0,0,0,6.686,6.687m0-11.807a5.121,5.121,0,1,1-5.12,5.12,5.127,5.127,0,0,1,5.12-5.12" transform="translate(-20.471 -29.445)"/>
        <path id="Trazado_907623" data-name="Trazado 907623" d="M46.8,64.449a2.691,2.691,0,1,0-2.689-2.691A2.694,2.694,0,0,0,46.8,64.449m0-3.816a1.125,1.125,0,1,1-1.124,1.125A1.126,1.126,0,0,1,46.8,60.634" transform="translate(-26.464 -35.436)"/>
      </g>
    </g>
  </g>
</svg>
