<svg xmlns="http://www.w3.org/2000/svg" xmlns:xlink="http://www.w3.org/1999/xlink" width="89" height="89" viewBox="0 0 89 89">
  <defs>
    <clipPath id="clip-path">
      <rect id="Rectángulo_404866" data-name="Rectángulo 404866" width="64.458" height="63.522" fill="none"/>
    </clipPath>
  </defs>
  <g id="Grupo_1115182" data-name="Grupo 1115182" transform="translate(2678 4092)">
    <g id="Grupo_1115186" data-name="Grupo 1115186">
      <g id="Grupo_1115061" data-name="Grupo 1115061" transform="translate(-3488 -11671)">
        <circle id="Elipse_11692" data-name="Elipse 11692" cx="44.5" cy="44.5" r="44.5" transform="translate(810 7579)" fill="#fbe9cc"/>
      </g>
      <g id="Grupo_1115171" data-name="Grupo 1115171" transform="translate(-2662.826 -4079.154)">
        <g id="Grupo_1115170" data-name="Grupo 1115170" clip-path="url(#clip-path)">
          <path id="Trazado_907589" data-name="Trazado 907589" d="M17.21,236.311a1.143,1.143,0,0,1-.808-1.951l6.17-6.17a1.143,1.143,0,0,1,.808-.335h8.154l6.593-3.736a1.142,1.142,0,0,1,1.1-.015l7.313,3.885a1.143,1.143,0,0,1,.453.437l2.514,4.342a1.143,1.143,0,0,1-1.978,1.145l-2.35-4.059-6.47-3.437-6.31,3.576a1.143,1.143,0,0,1-.563.149H23.853l-5.835,5.836a1.139,1.139,0,0,1-.808.335" transform="translate(-12.396 -172.789)" fill="#231f20"/>
          <path id="Trazado_907590" data-name="Trazado 907590" d="M143.208,205.455a1.143,1.143,0,0,1-.431-2.2l7.029-2.855,3.011-3.872a1.138,1.138,0,0,1,.284-.26l6.4-4.113a1.144,1.144,0,0,1,1.245.006l7.027,4.612h5.143a1.143,1.143,0,0,1,0,2.285h-5.484a1.143,1.143,0,0,1-.627-.187l-6.692-4.392-5.61,3.607-3.08,3.959a1.144,1.144,0,0,1-.471.357l-7.313,2.971a1.142,1.142,0,0,1-.43.084" transform="translate(-109.6 -148.103)" fill="#231f20"/>
          <path id="Trazado_907591" data-name="Trazado 907591" d="M233.21,218.227a1.143,1.143,0,0,1-.721-2.029l3.656-2.971A1.143,1.143,0,1,1,237.586,215l-3.657,2.971a1.136,1.136,0,0,1-.72.256" transform="translate(-179.035 -164.303)" fill="#231f20"/>
          <path id="Trazado_907592" data-name="Trazado 907592" d="M100.6,150.979a4.863,4.863,0,0,1-4.056-2.186l-5.289-7.934a1.143,1.143,0,0,1,.363-1.614l6.856-4.113a1.142,1.142,0,0,1,1.571.4l4.772,8.063a4.9,4.9,0,0,1-4.216,7.386m-6.779-10.39,4.624,6.937a2.6,2.6,0,0,0,4.4-2.769l-4.187-7.073Z" transform="translate(-70.256 -104.126)" fill="#231f20"/>
          <path id="Trazado_907593" data-name="Trazado 907593" d="M71.095,178.917a1.142,1.142,0,0,1-.987-.565l-3.885-6.627a1.143,1.143,0,0,1,.352-1.529l7.542-5.026a1.143,1.143,0,1,1,1.267,1.9L68.74,171.5l3.34,5.7a1.143,1.143,0,0,1-.985,1.721" transform="translate(-50.969 -127.277)" fill="#231f20"/>
          <path id="Trazado_907594" data-name="Trazado 907594" d="M145.9,143.139a1.142,1.142,0,0,1-.974-.544L138.2,131.667l-6.919,4.082a1.143,1.143,0,0,1-1.161-1.968l7.885-4.651a1.142,1.142,0,0,1,1.553.385l7.313,11.883a1.143,1.143,0,0,1-.972,1.742" transform="translate(-99.953 -99.498)" fill="#231f20"/>
          <path id="Trazado_907595" data-name="Trazado 907595" d="M4.017,16.464a1.142,1.142,0,0,1-.991-.572L.153,10.915A1.142,1.142,0,0,1,.571,9.355L16.507.154a1.143,1.143,0,0,1,1.561.418l2.873,4.977a1.143,1.143,0,0,1-.418,1.561L4.587,16.31a1.136,1.136,0,0,1-.57.153M2.7,10.762l1.731,3L18.39,5.7l-1.731-3Z" transform="translate(0 -0.001)" fill="#231f20"/>
          <path id="Trazado_907596" data-name="Trazado 907596" d="M51.4,73.679a1.142,1.142,0,0,1-.985-.561L36.695,49.929a1.143,1.143,0,0,1,1.967-1.163L52.378,71.954a1.143,1.143,0,0,1-.982,1.724" transform="translate(-28.186 -37.189)" fill="#231f20"/>
          <path id="Trazado_907597" data-name="Trazado 907597" d="M70.479,62.818a1.142,1.142,0,0,1-.991-.572L56.066,39a1.143,1.143,0,0,1,1.979-1.143L71.468,61.1a1.143,1.143,0,0,1-.988,1.714" transform="translate(-43.136 -28.764)" fill="#231f20"/>
        </g>
      </g>
    </g>
  </g>
</svg>
