<svg xmlns="http://www.w3.org/2000/svg" xmlns:xlink="http://www.w3.org/1999/xlink" width="89" height="89" viewBox="0 0 89 89">
  <defs>
    <clipPath id="clip-path">
      <rect id="Rectángulo_404867" data-name="Rectángulo 404867" width="71.404" height="42.692" fill="none"/>
    </clipPath>
  </defs>
  <g id="Grupo_1115185" data-name="Grupo 1115185" transform="translate(3288 3807)">
    <g id="Grupo_1115062" data-name="Grupo 1115062" transform="translate(-4098 -11386)">
      <circle id="Elipse_11692" data-name="Elipse 11692" cx="44.5" cy="44.5" r="44.5" transform="translate(810 7579)" fill="#fbe9cc"/>
    </g>
    <g id="Grupo_1115173" data-name="Grupo 1115173" transform="translate(-3280.904 -3783.682)">
      <g id="Grupo_1115172" data-name="Grupo 1115172" clip-path="url(#clip-path)">
        <path id="Trazado_907598" data-name="Trazado 907598" d="M26.692,130.063a1.294,1.294,0,0,1-.822-.3l-4.4-3.622a1.293,1.293,0,0,1-.313-1.618l1.552-2.846a1.294,1.294,0,1,1,2.271,1.239l-1.04,1.907,3.034,2.5,10.639-3.31,2.351-2.585a1.294,1.294,0,1,1,1.915,1.74l-2.587,2.846a1.3,1.3,0,0,1-.573.365L27.076,130a1.29,1.29,0,0,1-.384.058" transform="translate(-15.567 -89.7)" fill="#231f20"/>
        <path id="Trazado_907599" data-name="Trazado 907599" d="M61.576,42.693a1.294,1.294,0,0,1-1.164-1.856l3.22-6.668a.421.421,0,0,0-.018-.4l-1.076-1.793a1.293,1.293,0,0,1-.048-1.244c3.73-7.459,4.5-13.645,2.288-18.384-2.808-6.016-9.638-7.7-9.707-7.721-.042-.01-.087-.023-.128-.037-6.19-2.153-15.067-2.077-18.6-1.945A22.8,22.8,0,0,0,23.892,6.834a31.649,31.649,0,0,0-10.01,12.53,1.3,1.3,0,0,1-.809.758A28.75,28.75,0,0,0,3.315,26a19.751,19.751,0,0,0,7.375,1.92l2.712-2.26a1.294,1.294,0,1,1,1.656,1.988l-3.1,2.587a1.275,1.275,0,0,1-.878.3c-.294-.011-7.24-.313-10.656-3.444a1.293,1.293,0,0,1-.064-1.844,32.264,32.264,0,0,1,11.36-7.4A33.927,33.927,0,0,1,22.387,4.729,25.382,25.382,0,0,1,36.25.057c3.665-.138,12.882-.21,19.484,2.066.856.215,8.149,2.226,11.375,9.1,2.511,5.352,1.841,12.085-1.99,20.023l.714,1.189a3,3,0,0,1,.13,2.857l-3.22,6.669a1.293,1.293,0,0,1-1.166.731" transform="translate(0 0)" fill="#231f20"/>
        <path id="Trazado_907600" data-name="Trazado 907600" d="M101.731,117.569a1.294,1.294,0,0,1-1.294-1.294,20.056,20.056,0,0,0-5.056-13.059,1.294,1.294,0,0,1,1.832-1.827,22.321,22.321,0,0,1,5.812,14.886,1.294,1.294,0,0,1-1.294,1.294" transform="translate(-70.425 -74.877)" fill="#231f20"/>
        <path id="Trazado_907601" data-name="Trazado 907601" d="M133.294,114.6A1.294,1.294,0,0,1,132,113.309V98.3a1.294,1.294,0,1,1,2.587,0v15.006a1.294,1.294,0,0,1-1.294,1.294" transform="translate(-97.848 -71.91)" fill="#231f20"/>
        <path id="Trazado_907602" data-name="Trazado 907602" d="M192.245,115.344a1.294,1.294,0,0,1-1.256-1.608l1.264-5.056a.424.424,0,0,0-.17-.45l-5.332-3.677A4.051,4.051,0,0,1,185,101.218V99.3a1.294,1.294,0,1,1,2.587,0v1.915a1.465,1.465,0,0,0,.633,1.206l5.332,3.677a3.024,3.024,0,0,1,1.211,3.208l-1.264,5.056a1.294,1.294,0,0,1-1.254.98" transform="translate(-137.136 -72.652)" fill="#231f20"/>
        <path id="Trazado_907603" data-name="Trazado 907603" d="M140.387,120.525a27.42,27.42,0,0,1-7.482-1.093,1.294,1.294,0,0,1,.775-2.468c.111.035,9.235,2.814,14.185-1.2a1.294,1.294,0,1,1,1.63,2.009,14.321,14.321,0,0,1-9.108,2.754" transform="translate(-97.847 -85.596)" fill="#231f20"/>
        <path id="Trazado_907604" data-name="Trazado 907604" d="M14.847,54.96a1.294,1.294,0,0,1-1.175-.752l-1.552-3.363a1.294,1.294,0,0,1,1.175-1.836H19.5a1.294,1.294,0,1,1,0,2.587H15.316l.705,1.528a1.294,1.294,0,0,1-1.174,1.836" transform="translate(-8.895 -36.329)" fill="#231f20"/>
        <path id="Trazado_907605" data-name="Trazado 907605" d="M252.715,21.443a1.294,1.294,0,0,1-.745-2.352c2.214-1.557,3.352-3.013,3.2-4.1-.176-1.3-2.211-2.281-2.747-2.472a1.294,1.294,0,0,1,.872-2.436c.411.147,4.028,1.525,4.439,4.561.291,2.152-1.148,4.36-4.28,6.563a1.287,1.287,0,0,1-.743.235" transform="translate(-186.371 -7.419)" fill="#231f20"/>
      </g>
    </g>
  </g>
</svg>
