<svg xmlns="http://www.w3.org/2000/svg" width="90" height="90" viewBox="0 0 90 90">
  <g id="Grupo_1115077" data-name="Grupo 1115077" transform="translate(-336 -8751)">
    <g id="Grupo_1107636" data-name="Grupo 1107636" transform="translate(0.219 4918)">
      <g id="Grupo_1098742" data-name="Grupo 1098742" transform="translate(-867.539 3444.258)">
        <g id="Rectángulo_400898" data-name="Rectángulo 400898" transform="translate(1203.32 388.742)" fill="#fff" stroke="#fff" stroke-width="3" opacity="0.859">
          <rect width="90" height="90" rx="45" stroke="none"/>
          <rect x="1.5" y="1.5" width="87" height="87" rx="43.5" fill="none"/>
        </g>
        <g id="Rectángulo_400907" data-name="Rectángulo 400907" transform="translate(1203.32 388.742)" fill="none" stroke="#fff" stroke-width="3">
          <rect width="90" height="90" rx="45" stroke="none"/>
          <rect x="1.5" y="1.5" width="87" height="87" rx="43.5" fill="none"/>
        </g>
      </g>
    </g>
    <g id="reshot-icon-mountain-TX5DLYHGPW" transform="translate(352.262 8770)">
      <path id="Trazado_907445" data-name="Trazado 907445" d="M56.713,110.281l-3.51-4.719a1.249,1.249,0,0,0-2.106,0L48.2,109.4l-3.275-4.319-3.51-4.719a1.249,1.249,0,0,0-2.106,0L27.54,115.941l-2.393-3.218a1.249,1.249,0,0,0-2.106,0l-7.729,10.233h.472c3.867-2.65,9.512-4.322,15.8-4.322a30.345,30.345,0,0,1,13.39,2.911A32.767,32.767,0,0,1,54,120.316a31.192,31.192,0,0,1,12.067,2.3L58.323,112.4" transform="translate(-12.158 -89.382)" fill="#bcae8a"/>
      <g id="Grupo_1115072" data-name="Grupo 1115072" transform="translate(3.153 10.403)" opacity="0.1">
        <path id="Trazado_907446" data-name="Trazado 907446" d="M332.793,155.756l3.564-4.725-.593-.8a1.249,1.249,0,0,0-2.106,0l-2.9,3.839Z" transform="translate(-297.871 -144.457)" fill="#231f20"/>
        <path id="Trazado_907447" data-name="Trazado 907447" d="M134.57,117.752l12.5-16.592-.593-.8a1.249,1.249,0,0,0-2.106,0l-11.768,15.579Z" transform="translate(-120.378 -99.786)" fill="#231f20"/>
        <path id="Trazado_907448" data-name="Trazado 907448" d="M25.74,219.723l-.593-.8a1.249,1.249,0,0,0-2.106,0l-7.729,10.233h.472a22.037,22.037,0,0,1,4.625-2.378Z" transform="translate(-15.312 -205.988)" fill="#231f20"/>
      </g>
      <path id="Trazado_907449" data-name="Trazado 907449" d="M40.055,283.335a32.767,32.767,0,0,1,9.029-1.23,31.194,31.194,0,0,1,12.068,2.3v19.3H9.822V284.745h1.044S23.067,276,40.055,283.335Z" transform="translate(-7.241 -251.171)" fill="#b0e046"/>
      <path id="Trazado_907450" data-name="Trazado 907450" d="M227.9,104.622a4.333,4.333,0,0,0,3.2-1.409l-2.12-2.851a1.249,1.249,0,0,0-2.106,0l-2.165,2.866A4.333,4.333,0,0,0,227.9,104.622Z" transform="translate(-199.729 -89.382)" fill="#ede1ca"/>
      <path id="Trazado_907451" data-name="Trazado 907451" d="M61.151,387.525c-4.673-4.5-14.03-7.568-24.813-7.568-12.32,0-22.78,4.007-26.517,9.572v3.351h51.33Z" transform="translate(-7.24 -340.345)" fill="#36cc6b"/>
      <g id="Grupo_1115073" data-name="Grupo 1115073" transform="translate(2.581 35.37)">
        <path id="Trazado_907452" data-name="Trazado 907452" d="M22.138,345.456l-.039-.378c.007-.082.011-.164.011-.248a2.921,2.921,0,0,0-5.046-2.005,2.392,2.392,0,1,0-4.438-.809,2.133,2.133,0,0,0-2.8,2.027v9.039C11.988,349.859,16.408,347.158,22.138,345.456Z" transform="translate(-9.824 -339.268)" fill="#2da555"/>
        <path id="Trazado_907453" data-name="Trazado 907453" d="M419.505,376.079a2.771,2.771,0,0,0-1.367.359,3.371,3.371,0,0,0-6.717-.174,25.335,25.335,0,0,1,9.3,5.106c.055-.027.11-.055.164-.086v-4.841A2.773,2.773,0,0,0,419.505,376.079Z" transform="translate(-369.553 -369.714)" fill="#2da555"/>
      </g>
      <g id="Grupo_1115074" data-name="Grupo 1115074" transform="translate(7.194 0.843)">
        <path id="Trazado_907454" data-name="Trazado 907454" d="M351.187,56.307a2.683,2.683,0,0,1,1.888.773,3.36,3.36,0,0,1,6.665.524,2.1,2.1,0,1,1,.7,4.084h-9.253a2.691,2.691,0,0,1,0-5.382Z" transform="translate(-317.801 -49.5)" fill="#b8e5f4"/>
        <path id="Trazado_907455" data-name="Trazado 907455" d="M298.19,14.892a2.679,2.679,0,0,1,1.644.562h.29a3.36,3.36,0,0,1,3.249-2.549q0-.071,0-.143a2.691,2.691,0,0,0-4.578-1.918,3.36,3.36,0,0,0-6.665.524,2.1,2.1,0,1,0-.7,4.084h5.112A2.678,2.678,0,0,1,298.19,14.892Z" transform="translate(-264.804 -8.084)" fill="#b8e5f4"/>
        <path id="Trazado_907456" data-name="Trazado 907456" d="M115.163,52.469a1.761,1.761,0,0,1,1.761-1.761h6.02a1.761,1.761,0,0,1,1.761,1.761h0a1.761,1.761,0,0,1-1.761,1.761h-6.02a1.761,1.761,0,0,1-1.761-1.761Z" transform="translate(-108.794 -46.264)" fill="#b8e5f4"/>
        <circle id="Elipse_11693" data-name="Elipse 11693" cx="1.761" cy="1.761" r="1.761" transform="translate(0 4.444)" fill="#b8e5f4"/>
      </g>
      <g id="Grupo_1115075" data-name="Grupo 1115075" transform="translate(1.738)">
        <path id="Trazado_907457" data-name="Trazado 907457" d="M353.2,55.292h-9.253a3.534,3.534,0,1,1,1.447-6.759,4.2,4.2,0,0,1,7.818.869,2.945,2.945,0,0,1-.012,5.89Zm-9.253-5.382a1.848,1.848,0,0,0,0,3.7H353.2a1.259,1.259,0,1,0-.419-2.447.843.843,0,0,1-1.123-.776,2.517,2.517,0,0,0-4.993-.393.843.843,0,0,1-1.42.451A1.839,1.839,0,0,0,343.945,49.91Z" transform="translate(-305.103 -41.417)" fill="#231f20"/>
        <path id="Trazado_907458" data-name="Trazado 907458" d="M292.882,9.055h-.29a.843.843,0,0,1-.516-.176,1.845,1.845,0,0,0-2.257,0,.843.843,0,0,1-.516.176h-5.112a2.945,2.945,0,0,1-.012-5.89A4.2,4.2,0,0,1,292,2.3a3.537,3.537,0,0,1,4.981,3.225q0,.1-.005.189a.843.843,0,0,1-.839.8A2.512,2.512,0,0,0,293.7,8.415.843.843,0,0,1,292.882,9.055Zm-8.691-4.2a1.259,1.259,0,1,0,0,2.519h4.846a3.539,3.539,0,0,1,3.359-.253,4.2,4.2,0,0,1,2.8-2.189,1.848,1.848,0,0,0-3.047-.724.843.843,0,0,1-1.421-.451,2.517,2.517,0,0,0-4.993.393.843.843,0,0,1-1.123.776A1.255,1.255,0,0,0,284.191,4.85Z" transform="translate(-252.106)" fill="#231f20"/>
        <path id="Trazado_907459" data-name="Trazado 907459" d="M115.7,47.833h-6.02a2.6,2.6,0,1,1,0-5.208h6.02a2.6,2.6,0,1,1,0,5.208Zm-6.02-3.522a.918.918,0,1,0,0,1.837h6.02a.918.918,0,1,0,0-1.837Z" transform="translate(-96.097 -38.181)" fill="#231f20"/>
        <path id="Trazado_907460" data-name="Trazado 907460" d="M48.593,47.832a2.6,2.6,0,1,1,2.6-2.6A2.607,2.607,0,0,1,48.593,47.832Zm0-3.522a.918.918,0,1,0,.918.918A.919.919,0,0,0,48.593,44.31Z" transform="translate(-41.376 -38.18)" fill="#231f20"/>
        <path id="Trazado_907461" data-name="Trazado 907461" d="M263.636,189.225a.843.843,0,0,0-.189,1.177l5.291,7.32a.843.843,0,0,0,1.366-.988l-5.291-7.32A.843.843,0,0,0,263.636,189.225Z" transform="translate(-236.02 -169.354)" fill="#231f20"/>
        <path id="Trazado_907462" data-name="Trazado 907462" d="M54.711,115.116v0a.828.828,0,0,0-.05-.118l-.01-.018a.837.837,0,0,0-.062-.1l-.006-.01-7.744-10.214a.843.843,0,0,0-1.343,1.018l6.023,7.944-.035-.01-.317-.093-.351-.1-.319-.087c-.129-.034-.258-.067-.388-.1-.095-.024-.189-.048-.284-.071q-.316-.076-.635-.146l-.27-.057c-.144-.03-.288-.06-.433-.088l-.291-.055q-.226-.042-.454-.081l-.253-.043q-.341-.056-.685-.105l-.2-.027q-.263-.036-.527-.068l-.26-.03q-.253-.028-.508-.053l-.231-.023q-.362-.033-.726-.059l-.114-.007q-.316-.021-.633-.037l-.237-.01q-.27-.011-.542-.019l-.227-.006c-.25-.005-.5-.009-.752-.009q-.293,0-.585,0l-.188,0c-.131,0-.263.005-.394.009l-.247.01-.332.013-.273.015-.3.017-.29.021-.282.021-.305.027-.264.024-.316.033-.251.027-.325.04-.237.029-.331.046-.228.032-.337.053-.218.034-.342.06-.21.037c-.116.021-.231.044-.346.067l-.2.039c-.116.023-.231.048-.347.073l-.2.042c-.116.026-.231.053-.347.079l-.193.044c-.115.028-.23.057-.345.085l-.191.047c-.114.029-.228.06-.342.091l-.181.048a30.93,30.93,0,0,0-11.7-2.81c-.666-.041-1.332-.065-2-.065q-.722,0-1.417.032L16.438,108.7,25.11,97.221a5.174,5.174,0,0,0,6.137-.008l.846,1.138,3.27,4.313,2.7,3.731a.843.843,0,1,0,1.366-.988l-2.339-3.236,2.524-3.342a.515.515,0,0,1,.381-.242.509.509,0,0,1,.377.237l3.51,4.719a.843.843,0,1,0,1.352-1.006l-3.514-4.724a2.176,2.176,0,0,0-1.725-.912h0a2.177,2.177,0,0,0-1.725.912l-2.229,2.951-2.6-3.425-1.39-1.868h0l-2.124-2.856c-.029-.038-.059-.075-.09-.112a2.241,2.241,0,0,0-1.128-.733l-.022-.006-.066-.015-.053-.012a1.988,1.988,0,0,0-.208-.027l-.035,0-.057,0-.066,0h0a1.959,1.959,0,0,0-.245.015,2.123,2.123,0,0,0-1.118.509,2.494,2.494,0,0,0-.362.387L15.388,107.3l-1.726-2.321a2.176,2.176,0,0,0-1.725-.912h0a2.176,2.176,0,0,0-1.725.912l-7.477,9.9H2.581a.843.843,0,0,0-.843.843v18.961a.843.843,0,0,0,.843.843h51.33a.843.843,0,0,0,.843-.843v-19.3A.838.838,0,0,0,54.711,115.116Zm-25.613,5.8a51.955,51.955,0,0,0-13.417,1.7,3.759,3.759,0,0,0-4.741-3.163,3.231,3.231,0,0,0-6.377-.134,2.956,2.956,0,0,0-1.14.292V116.56h.2a.829.829,0,0,0,.129-.01l.029-.007a.823.823,0,0,0,.1-.023l.035-.014A.815.815,0,0,0,4,116.472c.014-.007.028-.016.042-.024s.042-.022.061-.036c.076-.052.153-.1.23-.154a27.12,27.12,0,0,1,9.155-3.488,33.054,33.054,0,0,1,5.937-.532q.852,0,1.7.044a33.982,33.982,0,0,1,11.339,2.79,17.232,17.232,0,0,1,4.209,2.889.843.843,0,1,0,1.165-1.219,17.452,17.452,0,0,0-2.759-2.131,32.594,32.594,0,0,1,6.767-.692q.388,0,.773.009l.244.008c.176.005.351.01.526.018l.283.016c.161.009.322.017.482.028l.293.023c.156.012.312.024.467.038l.292.029c.155.015.31.031.464.048l.287.035c.155.019.309.038.462.059l.279.04c.155.023.311.046.465.071l.268.045q.235.04.469.083l.256.049q.238.046.474.1l.242.052q.241.053.481.11l.226.055q.245.061.487.125l.21.056q.249.068.5.141l.191.056q.255.077.507.159l.169.055q.262.087.521.179l.144.051q.273.1.541.2l.112.043.115.047v7.13a3.561,3.561,0,0,0-1.264.033,4.216,4.216,0,0,0-7.964-.124A51.156,51.156,0,0,0,29.1,120.912Zm-24.86,7.31q-.131.115-.259.232l-.025.023q-.122.112-.241.226l-.025.024q-.134.129-.264.26v-6.7a1.29,1.29,0,0,1,1.7-1.227.843.843,0,0,0,1.1-.928,1.531,1.531,0,0,1-.02-.233,1.545,1.545,0,1,1,3.09,0,1.521,1.521,0,0,1-.2.756.843.843,0,0,0,1.347.993A2.06,2.06,0,0,1,11.945,121a2.081,2.081,0,0,1,2.079,2.079v.011a27.291,27.291,0,0,0-9.781,5.131Zm41.205-4.711a2.529,2.529,0,0,1,4.882.772.843.843,0,0,0,1.256.687,1.963,1.963,0,0,1,1.487-.175v2.694A27.463,27.463,0,0,0,45.443,123.511ZM28.579,93.626l1.663,2.236a3.511,3.511,0,0,1-2.069.678,3.461,3.461,0,0,1-2.049-.661l1.7-2.248a.515.515,0,0,1,.381-.242A.509.509,0,0,1,28.579,93.626ZM11.555,105.992a.515.515,0,0,1,.381-.242.509.509,0,0,1,.376.237l2.393,3.218a.841.841,0,0,0,.086.1l1.02,1.411a31.558,31.558,0,0,0-4.147.721,27.877,27.877,0,0,0-5.713,1.978ZM3.424,133.835v-2.244l.027-.039c.03-.041.06-.082.09-.123l.087-.116c.044-.058.089-.116.135-.173l.028-.035c1.844-2.3,5.03-4.353,9.088-5.848l.045-.017q.408-.15.825-.291l.137-.046q.377-.126.761-.246l.243-.074A49.207,49.207,0,0,1,29.1,122.6a48.994,48.994,0,0,1,14.962,2.212.834.834,0,0,0,.125.053,24.738,24.738,0,0,1,8.883,4.828v4.144H3.424Z" transform="translate(-1.738 -82.142)" fill="#231f20"/>
      </g>
      <g id="Grupo_1115076" data-name="Grupo 1115076" transform="translate(3.421 32.974)" opacity="0.1">
        <rect id="Rectángulo_404770" data-name="Rectángulo 404770" width="1.798" height="19.2" fill="#231f20"/>
      </g>
    </g>
  </g>
</svg>
