<svg xmlns="http://www.w3.org/2000/svg" width="90" height="90" viewBox="0 0 90 90">
  <g id="Grupo_1115082" data-name="Grupo 1115082" transform="translate(-757 -8751)">
    <g id="Grupo_1115080" data-name="Grupo 1115080">
      <g id="Grupo_1107637" data-name="Grupo 1107637" transform="translate(0.219 4918)">
        <g id="Grupo_1098742" data-name="Grupo 1098742" transform="translate(-446.539 3444.258)">
          <g id="Rectángulo_400898" data-name="Rectángulo 400898" transform="translate(1203.32 388.742)" fill="#fff" stroke="#fff" stroke-width="3" opacity="0.859">
            <rect width="90" height="90" rx="45" stroke="none"/>
            <rect x="1.5" y="1.5" width="87" height="87" rx="43.5" fill="none"/>
          </g>
          <g id="Rectángulo_400907" data-name="Rectángulo 400907" transform="translate(1203.32 388.742)" fill="none" stroke="#fff" stroke-width="3">
            <rect width="90" height="90" rx="45" stroke="none"/>
            <rect x="1.5" y="1.5" width="87" height="87" rx="43.5" fill="none"/>
          </g>
        </g>
      </g>
    </g>
    <g id="reshot-icon-wind-ER6Q95XJA7" transform="translate(770 8766.338)" style="isolation: isolate">
      <g id="Layer_1" data-name="Layer 1">
        <g id="Vector">
          <path id="Trazado_907473" data-name="Trazado 907473" d="M53.94,56.11c-2.6,0-4.89-.67-6.37-3.06-.5-.81-.63-1.56.11-2.24s1.5-1.29,2.57-.64a12.05,12.05,0,0,1,1.21.8c1.49,1.17,3,1.34,4.49.05,1.17-1,2-2.28,1.36-3.81a4,4,0,0,0-4-2.75H38.58c-1.55,0-3-.37-3-2.08s1.35-2.16,2.92-2.15H54.06c4.45,0,7.62,3.5,7.58,8.11a7.57,7.57,0,0,1-7.7,7.77Z" fill="#cecece"/>
          <path id="Trazado_907474" data-name="Trazado 907474" d="M53.94,7.89c-2.6,0-4.89.67-6.37,3.06-.5.81-.63,1.56.11,2.24s1.5,1.29,2.57.64a12.051,12.051,0,0,0,1.21-.8c1.49-1.17,3-1.34,4.49,0,1.17,1,2,2.28,1.36,3.81a4,4,0,0,1-4,2.75c-4.91-.05-9.82,0-14.73,0-1.55,0-3,.37-3,2.08s1.35,2.16,2.92,2.15H54.06c4.45,0,7.62-3.5,7.58-8.11a7.57,7.57,0,0,0-7.7-7.82Z" fill="#cecece"/>
          <rect id="Rectángulo_404771" data-name="Rectángulo 404771" width="18.73" height="4.64" rx="1.98" transform="translate(39.28 29.64)" fill="#cecece"/>
          <path id="Trazado_907475" data-name="Trazado 907475" d="M10.06,56.11c2.6,0,4.89-.67,6.37-3.06.5-.81.63-1.56-.11-2.24s-1.5-1.29-2.57-.64a12.05,12.05,0,0,0-1.21.8c-1.49,1.17-3,1.34-4.49.05-1.17-1-2-2.28-1.36-3.81a4,4,0,0,1,4-2.75H25.42c1.55,0,3-.37,3-2.08S27,40.25,25.46,40.26H9.9c-4.45,0-7.62,3.5-7.58,8.11a7.57,7.57,0,0,0,7.74,7.74Z" fill="#cecece"/>
          <path id="Trazado_907476" data-name="Trazado 907476" d="M10.06,7.89c2.6,0,4.89.67,6.37,3.06.5.81.63,1.56-.11,2.24s-1.5,1.29-2.57.64a12.05,12.05,0,0,1-1.21-.8c-1.49-1.17-3-1.34-4.49,0-1.17,1-2,2.28-1.36,3.81a4,4,0,0,0,4,2.75c4.91-.05,9.82,0,14.73,0,1.55,0,3,.37,3,2.08S27,23.75,25.46,23.74H9.9c-4.45,0-7.62-3.5-7.58-8.11a7.57,7.57,0,0,1,7.74-7.74Z" fill="#cecece"/>
          <rect id="Rectángulo_404772" data-name="Rectángulo 404772" width="18.73" height="4.64" rx="1.98" transform="translate(24.72 34.28) rotate(180)" fill="#cecece"/>
        </g>
        <g id="Line">
          <path id="Trazado_907477" data-name="Trazado 907477" d="M53.94,56.11c-2.6,0-4.89-.67-6.37-3.06-.5-.81-.63-1.56.11-2.24s1.5-1.29,2.57-.64a12.05,12.05,0,0,1,1.21.8c1.49,1.17,3,1.34,4.49.05,1.17-1,2-2.28,1.36-3.81a4,4,0,0,0-4-2.75H38.58c-1.55,0-3-.37-3-2.08s1.35-2.16,2.92-2.15H54.06c4.45,0,7.62,3.5,7.58,8.11a7.57,7.57,0,0,1-7.7,7.77Z" fill="none" stroke="#000" stroke-linecap="round" stroke-linejoin="round" stroke-width="2"/>
          <path id="Trazado_907478" data-name="Trazado 907478" d="M53.94,7.89c-2.6,0-4.89.67-6.37,3.06-.5.81-.63,1.56.11,2.24s1.5,1.29,2.57.64a12.051,12.051,0,0,0,1.21-.8c1.49-1.17,3-1.34,4.49,0,1.17,1,2,2.28,1.36,3.81a4,4,0,0,1-4,2.75c-4.91-.05-9.82,0-14.73,0-1.55,0-3,.37-3,2.08s1.35,2.16,2.92,2.15H54.06c4.45,0,7.62-3.5,7.58-8.11a7.57,7.57,0,0,0-7.7-7.82Z" fill="none" stroke="#000" stroke-linecap="round" stroke-linejoin="round" stroke-width="2"/>
          <rect id="Rectángulo_404773" data-name="Rectángulo 404773" width="18.73" height="4.64" rx="1.98" transform="translate(39.28 29.64)" fill="none" stroke="#000" stroke-linecap="round" stroke-linejoin="round" stroke-width="2"/>
          <path id="Trazado_907479" data-name="Trazado 907479" d="M10.06,56.11c2.6,0,4.89-.67,6.37-3.06.5-.81.63-1.56-.11-2.24s-1.5-1.29-2.57-.64a12.05,12.05,0,0,0-1.21.8c-1.49,1.17-3,1.34-4.49.05-1.17-1-2-2.28-1.36-3.81a4,4,0,0,1,4-2.75H25.42c1.55,0,3-.37,3-2.08S27,40.25,25.46,40.26H9.9c-4.45,0-7.62,3.5-7.58,8.11a7.57,7.57,0,0,0,7.74,7.74Z" fill="none" stroke="#000" stroke-linecap="round" stroke-linejoin="round" stroke-width="2"/>
          <path id="Trazado_907480" data-name="Trazado 907480" d="M10.06,7.89c2.6,0,4.89.67,6.37,3.06.5.81.63,1.56-.11,2.24s-1.5,1.29-2.57.64a12.05,12.05,0,0,1-1.21-.8c-1.49-1.17-3-1.34-4.49,0-1.17,1-2,2.28-1.36,3.81a4,4,0,0,0,4,2.75c4.91-.05,9.82,0,14.73,0,1.55,0,3,.37,3,2.08S27,23.75,25.46,23.74H9.9c-4.45,0-7.62-3.5-7.58-8.11a7.57,7.57,0,0,1,7.74-7.74Z" fill="none" stroke="#000" stroke-linecap="round" stroke-linejoin="round" stroke-width="2"/>
          <rect id="Rectángulo_404774" data-name="Rectángulo 404774" width="18.73" height="4.64" rx="1.98" transform="translate(24.72 34.28) rotate(180)" fill="none" stroke="#000" stroke-linecap="round" stroke-linejoin="round" stroke-width="2"/>
        </g>
        <g id="Shadow" opacity="0.25" style="mix-blend-mode: multiply;isolation: isolate">
          <path id="Trazado_907481" data-name="Trazado 907481" d="M8,34.28h5a2,2,0,0,1-2-2v-.67a2,2,0,0,1,2-2H8a2,2,0,0,0-2,2v.67a2,2,0,0,0,2,2Z"/>
          <path id="Trazado_907482" data-name="Trazado 907482" d="M25.57,19.52H15.66C19,19.5,22.27,19.51,25.57,19.52Z"/>
          <path id="Trazado_907483" data-name="Trazado 907483" d="M2.32,15.6c0,4.61,3.13,8.07,7.58,8.11,5.19.06,10.38,0,15.56,0H14.9a7.41,7.41,0,0,1-7.17-5.3,5.07,5.07,0,0,1-1-1.62,3,3,0,0,1,1-3.44,7.4,7.4,0,0,1,5.1-5.13,10.6,10.6,0,0,0-2.69-.33A7.57,7.57,0,0,0,2.32,15.6Z"/>
          <path id="Trazado_907484" data-name="Trazado 907484" d="M13.75,50.17c-.32.2-.64.4-.95.62a2.73,2.73,0,0,0,.25.23,3,3,0,0,0,3.72.45,1.59,1.59,0,0,0-.45-.66C15.61,50.15,14.82,49.52,13.75,50.17Z"/>
          <path id="Trazado_907485" data-name="Trazado 907485" d="M15.66,44.46h9.91C22.27,44.49,19,44.5,15.66,44.46Z"/>
          <path id="Trazado_907486" data-name="Trazado 907486" d="M7.65,50.65a3,3,0,0,1-1-3.44,5.07,5.07,0,0,1,1-1.62,7.41,7.41,0,0,1,7.17-5.3h-5c-4.45,0-7.62,3.5-7.58,8.11a7.57,7.57,0,0,0,7.74,7.71,10.6,10.6,0,0,0,2.69-.33,7.4,7.4,0,0,1-5.02-5.13Z"/>
        </g>
        <g id="Highligth" style="mix-blend-mode: overlay;isolation: isolate">
          <path id="Trazado_907487" data-name="Trazado 907487" d="M24.72,32.29v-.67a2,2,0,0,0-2-2h-5a2,2,0,0,1,2,2v.67a2,2,0,0,1-2,2h5A2,2,0,0,0,24.72,32.29Z" fill="#fff" style="mix-blend-mode: overlay;isolation: isolate"/>
          <path id="Trazado_907488" data-name="Trazado 907488" d="M51,34.28h5a2,2,0,0,0,2-2v-.67a2,2,0,0,0-2-2H51a2,2,0,0,1,2,2v.67A2,2,0,0,1,51,34.28Z" fill="#fff" style="mix-blend-mode: overlay;isolation: isolate"/>
          <path id="Trazado_907489" data-name="Trazado 907489" d="M38.43,19.52h0Z" fill="#fff" style="mix-blend-mode: overlay;isolation: isolate"/>
          <path id="Trazado_907490" data-name="Trazado 907490" d="M48.34,44.46h0Z" fill="#fff" style="mix-blend-mode: overlay;isolation: isolate"/>
          <path id="Trazado_907491" data-name="Trazado 907491" d="M25.39,19.51H20.57c1.48,0,2.79.43,2.81,2.07s-1.29,2.14-2.81,2.15h4.89c1.57,0,2.94-.45,2.92-2.15S26.94,19.5,25.39,19.51Z" fill="#fff" style="mix-blend-mode: overlay;isolation: isolate"/>
          <path id="Trazado_907492" data-name="Trazado 907492" d="M25.46,40.26H20.57c1.52,0,2.83.49,2.81,2.15s-1.33,2.05-2.81,2.07h4.82c1.55,0,3-.37,3-2.08S27,40.25,25.46,40.26Z" fill="#fff" style="mix-blend-mode: overlay;isolation: isolate"/>
          <path id="Trazado_907493" data-name="Trazado 907493" d="M50.25,50.17c-1.07-.65-1.86,0-2.57.64a1.59,1.59,0,0,0-.45.66A3,3,0,0,0,51,51a2.73,2.73,0,0,0,.25-.23C50.89,50.57,50.57,50.37,50.25,50.17Z" fill="#fff" style="mix-blend-mode: overlay;isolation: isolate"/>
          <path id="Trazado_907494" data-name="Trazado 907494" d="M16.32,50.81c-.71-.66-1.5-1.29-2.57-.64a12.05,12.05,0,0,0-1.21.8,5.59,5.59,0,0,1-.77.5,1.91,1.91,0,0,1-.34,1.58,6.22,6.22,0,0,1-1.56,1.72,4.5,4.5,0,0,1-.18,1.31h.37c2.6,0,4.89-.67,6.37-3.06A1.546,1.546,0,0,0,16.32,50.81Z" fill="#fff" style="mix-blend-mode: overlay;isolation: isolate"/>
          <path id="Trazado_907495" data-name="Trazado 907495" d="M54.1,40.29c-5.19-.06-10.38,0-15.56,0H49.1a7.41,7.41,0,0,1,7.17,5.3,5.07,5.07,0,0,1,1,1.62,3,3,0,0,1-1,3.44,7.4,7.4,0,0,1-5.1,5.13,10.6,10.6,0,0,0,2.69.33A7.57,7.57,0,0,0,61.6,48.4C61.72,43.79,58.55,40.33,54.1,40.29Z" fill="#fff" style="mix-blend-mode: overlay;isolation: isolate"/>
          <path id="Trazado_907496" data-name="Trazado 907496" d="M53.94,7.89a10.6,10.6,0,0,0-2.69.33,7.4,7.4,0,0,1,5.1,5.13,3,3,0,0,1,1,3.44,5.07,5.07,0,0,1-1,1.62,7.41,7.41,0,0,1-7.17,5.3h5c4.45,0,7.62-3.5,7.58-8.11a7.57,7.57,0,0,0-7.82-7.71Z" fill="#fff" style="mix-blend-mode: overlay;isolation: isolate"/>
        </g>
      </g>
    </g>
  </g>
</svg>
