<svg xmlns="http://www.w3.org/2000/svg" width="90" height="90.337" viewBox="0 0 90 90.337">
  <g id="Grupo_1115083" data-name="Grupo 1115083" transform="translate(-1177 -8751)">
    <g id="Rect치ngulo_400907" data-name="Rect치ngulo 400907" transform="translate(1177.243 8751)" fill="none" stroke="#fff" stroke-width="3">
      <rect width="89" height="89" rx="44.5" stroke="none"/>
      <rect x="1.5" y="1.5" width="86" height="86" rx="43" fill="none"/>
    </g>
    <g id="Grupo_1115081" data-name="Grupo 1115081">
      <g id="Grupo_1107638" data-name="Grupo 1107638" transform="translate(0.219 4918.337)">
        <g id="Rect치ngulo_400898" data-name="Rect치ngulo 400898" transform="translate(1176.781 3833)" fill="#fff" stroke="#fff" stroke-width="3" opacity="0.859">
          <rect width="90" height="90" rx="45" stroke="none"/>
          <rect x="1.5" y="1.5" width="87" height="87" rx="43.5" fill="none"/>
        </g>
      </g>
      <g id="reshot-icon-tree-SXHLE8T4FM" transform="translate(1132.729 8767)">
        <path id="Trazado_907463" data-name="Trazado 907463" d="M120.385,308.383l-2.436,2.989,5.41,4.41a5.635,5.635,0,0,0,2.583-2.869Z" transform="translate(-43.716 -272.555)" opacity="0.2"/>
        <path id="Trazado_907464" data-name="Trazado 907464" d="M330.142,261.16l-5.673,4.47a5.555,5.555,0,0,0,2.44,2.986l5.618-4.427Z" transform="translate(-226.243 -230.818)" opacity="0.2"/>
        <path id="Trazado_907465" data-name="Trazado 907465" d="M147.616,212.183l-10.477,8.255V205.745h-7.159V225.49l-9.595-7.82-2.436,2.989,12.031,9.805v8.252h7.159V225.347L150,215.212Z" transform="translate(-43.717 -181.842)" fill="#d68231"/>
        <path id="Trazado_907466" data-name="Trazado 907466" d="M221.5,205.745v12.108a26.107,26.107,0,0,0,7.159,0V205.745Z" transform="translate(-135.238 -181.842)" opacity="0.2"/>
        <ellipse id="Elipse_11694" data-name="Elipse 11694" cx="19.226" cy="16.157" rx="19.226" ry="16.157" transform="translate(70.617 0.931)" fill="#00ad68"/>
        <ellipse id="Elipse_11695" data-name="Elipse 11695" cx="6.034" cy="5.467" rx="6.034" ry="5.467" transform="translate(99.058 26.389)" fill="#7cdfa8"/>
        <g id="Grupo_1115078" data-name="Grupo 1115078" transform="translate(69.417 31.856)">
          <ellipse id="Elipse_11696" data-name="Elipse 11696" cx="6.034" cy="5.467" rx="6.034" ry="5.467" transform="translate(0)" fill="#218649"/>
          <path id="Trazado_907467" data-name="Trazado 907467" d="M191.551,474.081a1.208,1.208,0,0,0-1.205-1.2H174.365a1.208,1.208,0,0,0-1.2,1.2v1.2a1.208,1.208,0,0,0,1.2,1.2h15.981a1.208,1.208,0,0,0,1.205-1.2v-1.2Z" transform="translate(-161.93 -449.793)" fill="#218649"/>
        </g>
        <path id="Trazado_907468" data-name="Trazado 907468" d="M145.076,173.719a10.6,10.6,0,0,0-4.766-1.968,10.6,10.6,0,0,0,1.968,4.766c1.077,1.077,2.576,1.323,3.349.551S146.153,174.8,145.076,173.719Z" transform="translate(-63.462 -151.779)" fill="#7cdfa8"/>
        <g id="Grupo_1115079" data-name="Grupo 1115079" transform="translate(83.673 6.181)">
          <path id="Trazado_907469" data-name="Trazado 907469" d="M284.842,165.35a10.6,10.6,0,0,0,1.968-4.766,10.6,10.6,0,0,0-4.766,1.968c-1.077,1.077-1.324,2.576-.551,3.349S283.766,166.427,284.842,165.35Z" transform="translate(-271.535 -148.091)" fill="#218649"/>
          <path id="Trazado_907470" data-name="Trazado 907470" d="M203.162,57.965a10.6,10.6,0,0,0-1.978-4.762,10.6,10.6,0,0,0-1.979,4.762c0,1.523.886,2.758,1.979,2.758S203.162,59.488,203.162,57.965Z" transform="translate(-199.205 -53.203)" fill="#218649"/>
        </g>
        <path id="Trazado_907471" data-name="Trazado 907471" d="M320.859,83.8a10.6,10.6,0,0,0,1.968-4.766A10.6,10.6,0,0,0,318.061,81c-1.077,1.077-1.323,2.576-.551,3.349S319.782,84.873,320.859,83.8Z" transform="translate(-219.695 -69.831)" fill="#7cdfa8"/>
        <path id="Trazado_907472" data-name="Trazado 907472" d="M107.215,25.764A15.067,15.067,0,0,0,110,17.088C110,7.666,100.957,0,89.842,0S69.686,7.666,69.686,17.088c0,8.108,6.7,14.915,15.647,16.656v7.945l-3.19-2.6a5.9,5.9,0,0,0,.272-1.767,6.99,6.99,0,0,0-13.929,0,6.707,6.707,0,0,0,6.965,6.4,7.458,7.458,0,0,0,2.707-.5l7.175,5.848v4.944H81.852a2.138,2.138,0,0,0-2.135,2.135v1.2a2.138,2.138,0,0,0,2.135,2.135H97.833a2.138,2.138,0,0,0,2.136-2.136v-1.2a2.138,2.138,0,0,0-2.136-2.136H94.352V43.957l7.931-6.249a7.451,7.451,0,0,0,2.809.545,6.707,6.707,0,0,0,6.965-6.4A6.492,6.492,0,0,0,107.215,25.764ZM71.547,17.088c0-8.4,8.207-15.227,18.3-15.227s18.3,6.831,18.3,15.227a13.377,13.377,0,0,1-3.018,8.372h-.028a6.853,6.853,0,0,0-6.83,5.147,21.344,21.344,0,0,1-8.419,1.709C79.754,32.315,71.547,25.484,71.547,17.088Zm26.82,16.428-4.014,3.163V33.742a22.73,22.73,0,0,0,3.83-1.093A5.87,5.87,0,0,0,98.367,33.516ZM75.451,41.858a4.85,4.85,0,0,1-5.1-4.536,5.139,5.139,0,0,1,10.207,0A4.85,4.85,0,0,1,75.451,41.858ZM97.833,55.869a.278.278,0,0,1,.274.274v1.2a.278.278,0,0,1-.274.274H81.852a.278.278,0,0,1-.274-.274v-1.2a.278.278,0,0,1,.274-.274ZM92.491,43.054V54.008h-5.3V48.18L79.9,42.237a6.664,6.664,0,0,0,1.391-1.44l5.9,4.809V34.028a23.671,23.671,0,0,0,5.3,0v6.489l6.695-5.275a6.635,6.635,0,0,0,1.367,1.462Zm12.6-6.662a4.85,4.85,0,0,1-5.1-4.536,5.139,5.139,0,0,1,10.207,0A4.85,4.85,0,0,1,105.092,36.392Z" fill="#1e252b"/>
      </g>
    </g>
  </g>
</svg>
