<svg xmlns="http://www.w3.org/2000/svg" xmlns:xlink="http://www.w3.org/1999/xlink" width="97" height="97" viewBox="0 0 97 97">
  <defs>
    <clipPath id="clip-path">
      <rect id="Rectángulo_404941" data-name="Rectángulo 404941" width="58.913" height="64.145" fill="none"/>
    </clipPath>
  </defs>
  <g id="Grupo_1115223" data-name="Grupo 1115223" transform="translate(-594 -10098)">
    <g id="Grupo_1115210" data-name="Grupo 1115210" transform="translate(-162.633 1347)">
      <g id="Grupo_1115080" data-name="Grupo 1115080" transform="translate(757 8751)">
        <g id="Grupo_1107637" data-name="Grupo 1107637" transform="translate(0 0)">
          <g id="Grupo_1098742" data-name="Grupo 1098742" transform="translate(0 0)">
            <rect id="Rectángulo_400898" data-name="Rectángulo 400898" width="97" height="97" rx="48.5" transform="translate(-0.367 0)" fill="#ff7c32" opacity="0.859"/>
            <rect id="Rectángulo_400907" data-name="Rectángulo 400907" width="97" height="97" rx="48.5" transform="translate(-0.367 0)" fill="none"/>
          </g>
        </g>
      </g>
    </g>
    <g id="Grupo_1115226" data-name="Grupo 1115226" transform="translate(613.044 10114.428)">
      <g id="Grupo_1115225" data-name="Grupo 1115225" transform="translate(0 0)" clip-path="url(#clip-path)">
        <path id="Trazado_908220" data-name="Trazado 908220" d="M15.817,15.037a1.039,1.039,0,0,1-.109-.006.888.888,0,0,1-.774-.988,17.4,17.4,0,0,1,3.478-7.92.888.888,0,0,1,1.393,1.1A15.774,15.774,0,0,0,16.7,14.255a.887.887,0,0,1-.879.781" transform="translate(13.595 5.269)"/>
        <path id="Trazado_908221" data-name="Trazado 908221" d="M18.583,11.771a.886.886,0,0,1-.873-.736c-.464-2.656-4.022-3.713-4.056-3.724a.888.888,0,1,1,.493-1.706c.189.055,4.658,1.391,5.312,5.126a.887.887,0,0,1-.722,1.026.841.841,0,0,1-.153.013" transform="translate(11.849 5.074)"/>
        <path id="Trazado_908222" data-name="Trazado 908222" d="M15.381,11.757A6.56,6.56,0,0,1,12,10.836C9.717,9.474,7.371,6.167,7.516,3.409A.887.887,0,0,1,7.94,2.7c2.358-1.437,6.384-.944,8.665.417a7.162,7.162,0,0,1,3.3,6.722.89.89,0,0,1-.424.713,7.9,7.9,0,0,1-4.1,1.208M12.908,9.312a5.315,5.315,0,0,0,5.235-.044A5.315,5.315,0,0,0,15.7,4.64a8.155,8.155,0,0,0-6.4-.648,8.164,8.164,0,0,0,3.607,5.319" transform="translate(6.839 1.668)"/>
        <path id="Trazado_908223" data-name="Trazado 908223" d="M22.066,13.864A11.072,11.072,0,0,1,17.2,12.685a.891.891,0,0,1-.489-.671,9.784,9.784,0,0,1,3.644-9.557C23.308.306,28.751-.879,32.141.783a.885.885,0,0,1,.487.669c.541,3.737-2.26,8.552-5.216,10.7a9,9,0,0,1-5.346,1.708M18.411,11.29a7.941,7.941,0,0,0,7.958-.569c2.348-1.712,4.674-5.6,4.548-8.533-2.751-1.02-7.169-.006-9.519,1.7a7.941,7.941,0,0,0-2.986,7.4" transform="translate(15.104 0.001)"/>
        <path id="Trazado_908224" data-name="Trazado 908224" d="M38.979,56.68a16.866,16.866,0,0,1-8.392-2.251,2.315,2.315,0,0,0-2.262,0,16.866,16.866,0,0,1-8.392,2.251C8.942,56.68,0,45.8,0,32.436S8.942,8.195,19.933,8.195a17.216,17.216,0,0,1,9.523,2.944,17.216,17.216,0,0,1,9.523-2.944c10.99,0,19.933,10.874,19.933,24.241S49.969,56.68,38.979,56.68m-9.523-4.32a4.087,4.087,0,0,1,2,.524A15.118,15.118,0,0,0,38.979,54.9c10.012,0,18.158-10.079,18.158-22.468S48.991,9.97,38.979,9.97a15.546,15.546,0,0,0-9.009,2.969.89.89,0,0,1-1.028,0A15.546,15.546,0,0,0,19.933,9.97C9.92,9.97,1.775,20.049,1.775,32.436S9.92,54.9,19.933,54.9a15.141,15.141,0,0,0,7.519-2.02,4.069,4.069,0,0,1,2-.525" transform="translate(0 7.464)"/>
        <path id="Trazado_908225" data-name="Trazado 908225" d="M31.616,24.055a.888.888,0,0,1-.85-.632,16.767,16.767,0,0,0-8.338-10.5.887.887,0,0,1,.772-1.6,18.531,18.531,0,0,1,9.267,11.59.886.886,0,0,1-.594,1.1.858.858,0,0,1-.256.038" transform="translate(19.968 10.231)"/>
        <path id="Trazado_908226" data-name="Trazado 908226" d="M15.406,36.737a.889.889,0,0,1-.21-.025c-4.947-1.2-9.221-5.211-11.432-10.731a.888.888,0,1,1,1.649-.661c2,4.991,5.811,8.6,10.2,9.666a.888.888,0,0,1-.208,1.75" transform="translate(3.369 22.552)"/>
        <path id="Trazado_908227" data-name="Trazado 908227" d="M12.8,18.02a.953.953,0,0,1-.3-.05.888.888,0,0,1-.541-1.133c1.657-4.695,6.443-6.961,6.645-7.056a.888.888,0,0,1,.749,1.611c-.042.019-4.316,2.058-5.721,6.036a.886.886,0,0,1-.837.592" transform="translate(10.85 8.832)"/>
      </g>
    </g>
  </g>
</svg>
