<svg xmlns="http://www.w3.org/2000/svg" xmlns:xlink="http://www.w3.org/1999/xlink" width="97" height="97" viewBox="0 0 97 97">
  <defs>
    <clipPath id="clip-path">
      <rect id="Rectángulo_404940" data-name="Rectángulo 404940" width="55.396" height="64.571" fill="none"/>
    </clipPath>
  </defs>
  <g id="Grupo_1115221" data-name="Grupo 1115221" transform="translate(-1218 -10098)">
    <g id="Grupo_1115212" data-name="Grupo 1115212" transform="translate(461.367 1347)">
      <g id="Grupo_1115080" data-name="Grupo 1115080" transform="translate(757 8751)">
        <g id="Grupo_1107637" data-name="Grupo 1107637" transform="translate(0 0)">
          <g id="Grupo_1098742" data-name="Grupo 1098742" transform="translate(0 0)">
            <rect id="Rectángulo_400898" data-name="Rectángulo 400898" width="97" height="97" rx="48.5" transform="translate(-0.367 0)" fill="#ff7c32" opacity="0.859"/>
            <rect id="Rectángulo_400907" data-name="Rectángulo 400907" width="97" height="97" rx="48.5" transform="translate(-0.367 0)" fill="none"/>
          </g>
        </g>
      </g>
    </g>
    <g id="Grupo_1115220" data-name="Grupo 1115220" transform="translate(1238 10111.522)">
      <g id="Grupo_1115219" data-name="Grupo 1115219" transform="translate(0 0)" clip-path="url(#clip-path)">
        <path id="Trazado_908192" data-name="Trazado 908192" d="M15.256,49.426a.867.867,0,0,1-.867-.867V1.992a.867.867,0,1,1,1.734,0V48.559a.867.867,0,0,1-.867.867" transform="translate(12.443 0.974)"/>
        <path id="Trazado_908193" data-name="Trazado 908193" d="M15.254,31.62a.864.864,0,0,1-.865-.865v-6a.865.865,0,0,1,.341-.69l11.032-8.4a.867.867,0,0,1,1.391.69v2.273a8.925,8.925,0,0,1-3.137,6.8l-8.252,6.021a.866.866,0,0,1-.511.166m.867-6.433V29.05l6.823-4.977a7.171,7.171,0,0,0,2.478-5.441v-.526Z" transform="translate(12.443 13.398)"/>
        <path id="Trazado_908194" data-name="Trazado 908194" d="M15.254,28.345a.852.852,0,0,1-.392-.093.865.865,0,0,1-.474-.772v-6a.865.865,0,0,1,.341-.69l11.032-8.4a.867.867,0,0,1,1.391.69v2.273a8.925,8.925,0,0,1-3.137,6.8l-8.252,6.021a.866.866,0,0,1-.511.166m.867-6.433v3.864L22.944,20.8a7.174,7.174,0,0,0,2.478-5.441v-.524Z" transform="translate(12.443 10.566)"/>
        <path id="Trazado_908195" data-name="Trazado 908195" d="M15.254,25.07a.858.858,0,0,1-.392-.093.867.867,0,0,1-.474-.772v-6a.865.865,0,0,1,.341-.69l11.032-8.4a.867.867,0,0,1,1.391.69V12.08a8.926,8.926,0,0,1-3.137,6.8L15.765,24.9a.866.866,0,0,1-.511.166m.867-6.433V22.5l6.823-4.977a7.172,7.172,0,0,0,2.478-5.443v-.522Z" transform="translate(12.443 7.734)"/>
        <path id="Trazado_908196" data-name="Trazado 908196" d="M15.254,21.794a.852.852,0,0,1-.392-.093.865.865,0,0,1-.474-.772v-6a.865.865,0,0,1,.341-.69l11.032-8.4a.873.873,0,0,1,.91-.086.864.864,0,0,1,.481.776V8.806a8.925,8.925,0,0,1-3.137,6.8l-8.252,6.021a.866.866,0,0,1-.511.166m.867-6.433v3.864l6.823-4.977a7.171,7.171,0,0,0,2.478-5.441V8.281Z" transform="translate(12.443 4.902)"/>
        <path id="Trazado_908197" data-name="Trazado 908197" d="M15.254,18.521a.858.858,0,0,1-.392-.093.869.869,0,0,1-.474-.772v-6a.865.865,0,0,1,.341-.69l11.032-8.4a.866.866,0,0,1,1.391.69V5.533a8.925,8.925,0,0,1-3.137,6.8l-8.252,6.021a.866.866,0,0,1-.511.166m.867-6.433v3.864l6.823-4.977a7.174,7.174,0,0,0,2.478-5.441V5.007Z" transform="translate(12.443 2.07)"/>
        <path id="Trazado_908198" data-name="Trazado 908198" d="M21.172,6.195a.867.867,0,0,1-.867-.867V.867a.867.867,0,0,1,1.734,0v4.46a.867.867,0,0,1-.867.867" transform="translate(17.559 0.001)"/>
        <path id="Trazado_908199" data-name="Trazado 908199" d="M20.372,31.62a.866.866,0,0,1-.511-.166l-8.2-5.982A8.952,8.952,0,0,1,8.473,18.63V16.357a.866.866,0,0,1,1.391-.688l11.032,8.4a.863.863,0,0,1,.343.688v6a.867.867,0,0,1-.867.867M10.205,18.106v.524a7.2,7.2,0,0,0,2.529,5.484L19.5,29.051V25.187Z" transform="translate(7.327 13.397)"/>
        <path id="Trazado_908200" data-name="Trazado 908200" d="M20.372,28.345a.866.866,0,0,1-.511-.166l-8.2-5.982a8.952,8.952,0,0,1-3.189-6.842V13.082a.866.866,0,0,1,1.391-.688l11.032,8.4a.869.869,0,0,1,.343.69v6a.871.871,0,0,1-.867.867M10.205,14.831v.524a7.2,7.2,0,0,0,2.529,5.482L19.5,25.776V21.91Z" transform="translate(7.327 10.565)"/>
        <path id="Trazado_908201" data-name="Trazado 908201" d="M20.372,25.071a.866.866,0,0,1-.511-.166l-8.2-5.982a8.952,8.952,0,0,1-3.189-6.842V9.808A.866.866,0,0,1,9.864,9.12l11.032,8.4a.869.869,0,0,1,.343.69v6a.871.871,0,0,1-.867.867M10.205,11.557v.524a7.2,7.2,0,0,0,2.529,5.482L19.5,22.5V18.636Z" transform="translate(7.327 7.734)"/>
        <path id="Trazado_908202" data-name="Trazado 908202" d="M20.372,21.8a.866.866,0,0,1-.511-.166l-8.2-5.982A8.952,8.952,0,0,1,8.473,8.806V6.533a.866.866,0,0,1,1.391-.688l11.032,8.4a.863.863,0,0,1,.343.688v6a.867.867,0,0,1-.867.867M10.205,8.282v.524a7.2,7.2,0,0,0,2.529,5.484L19.5,19.226V15.363Z" transform="translate(7.327 4.902)"/>
        <path id="Trazado_908203" data-name="Trazado 908203" d="M20.372,18.521a.866.866,0,0,1-.511-.166l-8.2-5.982A8.952,8.952,0,0,1,8.473,5.531V3.258A.866.866,0,0,1,9.864,2.57l11.032,8.4a.863.863,0,0,1,.343.688v6a.867.867,0,0,1-.867.867M10.205,5.007v.524a7.2,7.2,0,0,0,2.529,5.482L19.5,15.952V12.088Z" transform="translate(7.327 2.07)"/>
        <path id="Trazado_908204" data-name="Trazado 908204" d="M9.339,6.195a.867.867,0,0,1-.867-.867V.867a.867.867,0,0,1,1.734,0v4.46a.867.867,0,0,1-.867.867" transform="translate(7.326 0.001)"/>
        <path id="Trazado_908205" data-name="Trazado 908205" d="M54.531,27.83H.867a.866.866,0,1,1,0-1.732H54.531a.866.866,0,1,1,0,1.732" transform="translate(0 22.569)"/>
        <path id="Trazado_908206" data-name="Trazado 908206" d="M20.1,29.914a.867.867,0,0,1-.867-.867V24.555a.867.867,0,0,1,1.734,0v4.492a.867.867,0,0,1-.867.867" transform="translate(16.633 20.485)"/>
        <path id="Trazado_908207" data-name="Trazado 908207" d="M22.728,32.695a.867.867,0,0,1-.867-.867V21.338a.867.867,0,0,1,1.734,0V31.827a.867.867,0,0,1-.867.867" transform="translate(18.904 17.705)"/>
        <path id="Trazado_908208" data-name="Trazado 908208" d="M25.627,35.99a.867.867,0,0,1-.867-.867V17.529a.867.867,0,0,1,1.734,0V35.123a.867.867,0,0,1-.867.867" transform="translate(21.411 14.409)"/>
        <path id="Trazado_908209" data-name="Trazado 908209" d="M27.938,29.718a.868.868,0,0,1-.869-.867V24.78a.868.868,0,0,1,1.736,0v4.071a.867.867,0,0,1-.867.867" transform="translate(23.408 20.681)"/>
        <path id="Trazado_908210" data-name="Trazado 908210" d="M10.411,29.914a.867.867,0,0,1-.867-.867V24.555a.867.867,0,0,1,1.734,0v4.492a.867.867,0,0,1-.867.867" transform="translate(8.253 20.485)"/>
        <path id="Trazado_908211" data-name="Trazado 908211" d="M7.783,32.695a.867.867,0,0,1-.867-.867V21.338a.867.867,0,0,1,1.734,0V31.827a.867.867,0,0,1-.867.867" transform="translate(5.981 17.705)"/>
        <path id="Trazado_908212" data-name="Trazado 908212" d="M4.885,35.99a.867.867,0,0,1-.867-.867V17.529a.867.867,0,1,1,1.734,0V35.123a.867.867,0,0,1-.867.867" transform="translate(3.475 14.409)"/>
        <path id="Trazado_908213" data-name="Trazado 908213" d="M2.575,29.718a.867.867,0,0,1-.867-.867V24.78a.867.867,0,0,1,1.734,0v4.071a.867.867,0,0,1-.867.867" transform="translate(1.477 20.681)"/>
        <path id="Trazado_908214" data-name="Trazado 908214" d="M39.769,42a.864.864,0,0,1-.688-.339C31.967,32.372,15.865,27.844,15.7,27.8a.867.867,0,1,1,.461-1.671c.682.188,16.827,4.733,24.29,14.48A.866.866,0,0,1,39.769,42" transform="translate(13.029 22.568)"/>
        <path id="Trazado_908215" data-name="Trazado 908215" d="M28.329,42a.865.865,0,0,1-.826-.608c-3.11-9.887-16.326-13.559-16.46-13.594a.866.866,0,1,1,.451-1.673c.58.155,14.263,3.946,17.661,14.748a.865.865,0,0,1-.567,1.085.836.836,0,0,1-.259.041" transform="translate(8.995 22.569)"/>
        <path id="Trazado_908216" data-name="Trazado 908216" d="M19.226,42a.867.867,0,0,1-.854-.722C16.774,31.783,6.6,27.812,6.5,27.773a.866.866,0,0,1,.614-1.62c.457.173,11.2,4.347,12.967,14.838a.869.869,0,0,1-.712,1,.931.931,0,0,1-.144.011" transform="translate(5.139 22.568)"/>
        <path id="Trazado_908217" data-name="Trazado 908217" d="M6.159,42a.886.886,0,0,1-.267-.043.867.867,0,0,1-.558-1.091A13.439,13.439,0,0,0,2.967,27.575.867.867,0,0,1,4.2,26.354c.235.239,5.745,5.924,2.786,15.049a.867.867,0,0,1-.824.6" transform="translate(2.348 22.569)"/>
        <path id="Trazado_908218" data-name="Trazado 908218" d="M22.114,30.727a.866.866,0,0,1-.194-1.71c.351-.082,8.671-1.98,13.637-.362A.867.867,0,0,1,35.02,30.3c-4.516-1.471-12.628.382-12.71.4a.876.876,0,0,1-.2.022" transform="translate(18.375 24.217)"/>
        <path id="Trazado_908219" data-name="Trazado 908219" d="M25.742,32.783a.866.866,0,0,1-.358-1.656,10.108,10.108,0,0,1,6.435-.408.866.866,0,1,1-.483,1.663,8.388,8.388,0,0,0-5.238.324.863.863,0,0,1-.356.076" transform="translate(21.51 26.259)"/>
      </g>
    </g>
  </g>
</svg>
