<svg xmlns="http://www.w3.org/2000/svg" xmlns:xlink="http://www.w3.org/1999/xlink" width="85" height="85" viewBox="0 0 85 85">
  <defs>
    <clipPath id="clip-path">
      <rect id="Rect치ngulo_404749" data-name="Rect치ngulo 404749" width="36.219" height="39.731" fill="#fefaf2"/>
    </clipPath>
    <clipPath id="clip-path-2">
      <rect id="Rect치ngulo_404749-2" data-name="Rect치ngulo 404749" width="36.219" height="39.731" fill="#374f37"/>
    </clipPath>
  </defs>
  <g id="Grupo_1115045" data-name="Grupo 1115045" transform="translate(-311.051 -1500)">
    <circle id="Elipse_11627" data-name="Elipse 11627" cx="42.5" cy="42.5" r="42.5" transform="translate(311.051 1500)" fill="#ff7c32"/>
    <g id="Grupo_1114957" data-name="Grupo 1114957" transform="translate(319.625 1526.395)">
      <g id="Grupo_1114942" data-name="Grupo 1114942" clip-path="url(#clip-path)">
        <path id="Trazado_906955" data-name="Trazado 906955" d="M1.63,15.1a2.054,2.054,0,0,0,.929-2.14c-.129-2.972.684-4.495,2.78-5.653a5.348,5.348,0,0,1,2.038-.277s.159-1.191.208-1.538a3.669,3.669,0,0,1,3.6-3.568,1.208,1.208,0,0,1,.314,0,3.761,3.761,0,0,1,2.153.376c.177.09.63.386.63.386s.262-.436.438-.782A3.857,3.857,0,0,1,20.7,1.053a1.142,1.142,0,0,0,1.249.365,5.107,5.107,0,0,1,3.1-.125,5,5,0,0,1,3.185,3.65,7.506,7.506,0,0,1,.147.869s.465.225.715.384a5.244,5.244,0,0,1,2.639,4.281c.055.7.442.7.8.856,3.228,1.413,4.261,5.817,3.37,9.138-.312,1.164-.856,2.024-1.845,2.165-.514.073-.858.2-1.065,1.02-.575,2.271-2.2,2.827-3.9,1.9a2.529,2.529,0,0,1-.922-.868c-.512-.985-.961-.642-1.394.072a3.937,3.937,0,0,1-2.52,2.05,5.71,5.71,0,0,1-3.593-.489,7.516,7.516,0,0,1-1.235-.721c-.008,2.049.067,4.1.094,6.146.036,2.663.065,5.327.214,7.981H16.328c.121-2.661.248-5.315.284-7.981.031-2.293.121-4.585.087-6.879A4.062,4.062,0,0,1,14,26.246a1.614,1.614,0,0,1-1.386-.416,1.609,1.609,0,0,0-2.173-.146c-.378.235-.758.465-1.135.7-1.664,1.04-3.144.695-4.3-1.165-.4-.64-.74-.827-1.321-.635-1.111.366-2.052-.213-2.638-1.5A12.005,12.005,0,0,1,.075,19.6c-.268-2.084.173-3.578,1.556-4.5" transform="translate(0 0)" fill="#fefaf2"/>
      </g>
    </g>
    <g id="Grupo_1115046" data-name="Grupo 1115046" transform="translate(355.844 1526.395)">
      <g id="Grupo_1114942-2" data-name="Grupo 1114942" clip-path="url(#clip-path-2)">
        <path id="Trazado_906955-2" data-name="Trazado 906955" d="M1.63,15.1a2.054,2.054,0,0,0,.929-2.14c-.129-2.972.684-4.495,2.78-5.653a5.348,5.348,0,0,1,2.038-.277s.159-1.191.208-1.538a3.669,3.669,0,0,1,3.6-3.568,1.208,1.208,0,0,1,.314,0,3.761,3.761,0,0,1,2.153.376c.177.09.63.386.63.386s.262-.436.438-.782A3.857,3.857,0,0,1,20.7,1.053a1.142,1.142,0,0,0,1.249.365,5.107,5.107,0,0,1,3.1-.125,5,5,0,0,1,3.185,3.65,7.506,7.506,0,0,1,.147.869s.465.225.715.384a5.244,5.244,0,0,1,2.639,4.281c.055.7.442.7.8.856,3.228,1.413,4.261,5.817,3.37,9.138-.312,1.164-.856,2.024-1.845,2.165-.514.073-.858.2-1.065,1.02-.575,2.271-2.2,2.827-3.9,1.9a2.529,2.529,0,0,1-.922-.868c-.512-.985-.961-.642-1.394.072a3.937,3.937,0,0,1-2.52,2.05,5.71,5.71,0,0,1-3.593-.489,7.516,7.516,0,0,1-1.235-.721c-.008,2.049.067,4.1.094,6.146.036,2.663.065,5.327.214,7.981H16.328c.121-2.661.248-5.315.284-7.981.031-2.293.121-4.585.087-6.879A4.062,4.062,0,0,1,14,26.246a1.614,1.614,0,0,1-1.386-.416,1.609,1.609,0,0,0-2.173-.146c-.378.235-.758.465-1.135.7-1.664,1.04-3.144.695-4.3-1.165-.4-.64-.74-.827-1.321-.635-1.111.366-2.052-.213-2.638-1.5A12.005,12.005,0,0,1,.075,19.6c-.268-2.084.173-3.578,1.556-4.5" transform="translate(0 0)" fill="#374f37"/>
      </g>
    </g>
  </g>
</svg>
