<svg xmlns="http://www.w3.org/2000/svg" xmlns:xlink="http://www.w3.org/1999/xlink" width="89" height="89" viewBox="0 0 89 89">
  <defs>
    <clipPath id="clip-path">
      <rect id="Rectángulo_404864" data-name="Rectángulo 404864" width="67.222" height="57.24" fill="none"/>
    </clipPath>
  </defs>
  <g id="Grupo_1115183" data-name="Grupo 1115183" transform="translate(-810 -7579)">
    <circle id="Elipse_11692" data-name="Elipse 11692" cx="44.5" cy="44.5" r="44.5" transform="translate(810 7579)" fill="#fbe9cc"/>
    <g id="Grupo_1115167" data-name="Grupo 1115167" transform="translate(819.389 7594.88)">
      <g id="Grupo_1115166" data-name="Grupo 1115166" clip-path="url(#clip-path)">
        <path id="Trazado_907557" data-name="Trazado 907557" d="M12.545,85.034A13.229,13.229,0,0,1,3.8,81.754c-3.911-3.43-4.822-8.315-2.633-14.125A41.7,41.7,0,0,1,8.807,55.716a5.042,5.042,0,0,1,7.487-.1c6.337,6.846,9.426,12.907,9.18,18.015A11.153,11.153,0,0,1,21.5,81.62a13.448,13.448,0,0,1-8.959,3.414M10.614,57.3h0a39.321,39.321,0,0,0-7.2,11.174C1.559,73.4,2.2,77.156,5.383,79.946A10.978,10.978,0,0,0,19.9,79.824a8.831,8.831,0,0,0,3.167-6.31c.214-4.439-2.66-9.911-8.542-16.265a2.637,2.637,0,0,0-3.915.054" transform="translate(0 -41.011)" fill="#231f20"/>
        <path id="Trazado_907558" data-name="Trazado 907558" d="M49.157,139.227a1.2,1.2,0,0,1-1.2-1.2V109.159a1.2,1.2,0,1,1,2.405,0v28.866a1.2,1.2,0,0,1-1.2,1.2" transform="translate(-36.419 -81.987)" fill="#231f20"/>
        <path id="Trazado_907559" data-name="Trazado 907559" d="M35.106,140.05a1.2,1.2,0,0,1-.767-.277l-4.45-3.688a1.2,1.2,0,0,1,1.535-1.852l4.45,3.688a1.2,1.2,0,0,1-.768,2.129" transform="translate(-22.369 -101.733)" fill="#231f20"/>
        <path id="Trazado_907560" data-name="Trazado 907560" d="M49.157,122.21a1.2,1.2,0,0,1-.764-2.132l4.691-3.849a1.2,1.2,0,0,1,1.526,1.859l-4.691,3.849a1.2,1.2,0,0,1-.762.273" transform="translate(-36.418 -88.063)" fill="#231f20"/>
        <path id="Trazado_907561" data-name="Trazado 907561" d="M73.963,33.364a1.2,1.2,0,0,1-.95-1.939c.7-.906,1.454-1.817,2.237-2.708a5.042,5.042,0,0,1,7.487-.1c.821.887,1.6,1.769,2.3,2.622a1.2,1.2,0,0,1-1.853,1.534c-.679-.819-1.424-1.668-2.215-2.523a2.637,2.637,0,0,0-3.915.054c-.75.854-1.471,1.727-2.143,2.594a1.2,1.2,0,0,1-.952.466" transform="translate(-55.259 -20.506)" fill="#231f20"/>
        <path id="Trazado_907562" data-name="Trazado 907562" d="M156.964,33.364a1.2,1.2,0,0,1-.95-1.939c.7-.906,1.455-1.817,2.238-2.708a5.042,5.042,0,0,1,7.487-.1c.821.887,1.6,1.769,2.3,2.622a1.2,1.2,0,0,1-1.853,1.534c-.679-.819-1.424-1.668-2.215-2.523a2.637,2.637,0,0,0-3.915.054c-.751.854-1.472,1.727-2.143,2.594a1.2,1.2,0,0,1-.952.466" transform="translate(-118.293 -20.506)" fill="#231f20"/>
        <path id="Trazado_907563" data-name="Trazado 907563" d="M114.963,6.364a1.2,1.2,0,0,1-.95-1.939c.7-.906,1.454-1.817,2.237-2.708a5.042,5.042,0,0,1,7.487-.1c.821.887,1.6,1.769,2.3,2.622a1.2,1.2,0,0,1-1.853,1.534c-.679-.819-1.424-1.668-2.215-2.523a2.636,2.636,0,0,0-3.914.054c-.751.854-1.472,1.727-2.143,2.594a1.2,1.2,0,0,1-.952.466" transform="translate(-86.396 -0.001)" fill="#231f20"/>
        <path id="Trazado_907564" data-name="Trazado 907564" d="M108.738,85.034a13.228,13.228,0,0,1-8.749-3.28,1.2,1.2,0,1,1,1.586-1.808,10.978,10.978,0,0,0,14.521-.122,8.831,8.831,0,0,0,3.167-6.31c.214-4.439-2.66-9.911-8.542-16.265a2.636,2.636,0,0,0-3.915.054,50.96,50.96,0,0,0-3.885,4.99,1.2,1.2,0,0,1-1.991-1.35A53.389,53.389,0,0,1,105,55.715a5.042,5.042,0,0,1,7.487-.1c6.337,6.846,9.426,12.906,9.18,18.014a11.154,11.154,0,0,1-3.969,7.99,13.448,13.448,0,0,1-8.959,3.414" transform="translate(-75.626 -41.01)" fill="#231f20"/>
        <path id="Trazado_907565" data-name="Trazado 907565" d="M134.657,139.227a1.2,1.2,0,0,1-1.2-1.2V109.159a1.2,1.2,0,0,1,2.405,0v28.866a1.2,1.2,0,0,1-1.2,1.2" transform="translate(-101.352 -81.987)" fill="#231f20"/>
        <path id="Trazado_907566" data-name="Trazado 907566" d="M120.606,140.05a1.2,1.2,0,0,1-.767-.277l-4.45-3.688a1.2,1.2,0,1,1,1.535-1.852l4.45,3.688a1.2,1.2,0,0,1-.768,2.129" transform="translate(-87.302 -101.733)" fill="#231f20"/>
        <path id="Trazado_907567" data-name="Trazado 907567" d="M134.657,122.21a1.2,1.2,0,0,1-.764-2.132l4.691-3.849a1.2,1.2,0,0,1,1.526,1.859l-4.691,3.849a1.2,1.2,0,0,1-.762.273" transform="translate(-101.352 -88.063)" fill="#231f20"/>
        <path id="Trazado_907568" data-name="Trazado 907568" d="M196.738,85.034a13.229,13.229,0,0,1-8.749-3.28,1.2,1.2,0,1,1,1.586-1.808,10.978,10.978,0,0,0,14.521-.122,8.831,8.831,0,0,0,3.167-6.31c.214-4.439-2.66-9.911-8.542-16.265a2.636,2.636,0,0,0-3.915.054,50.958,50.958,0,0,0-3.885,4.99,1.2,1.2,0,0,1-1.991-1.35A53.388,53.388,0,0,1,193,55.715a5.042,5.042,0,0,1,7.487-.1c6.337,6.846,9.426,12.906,9.18,18.014a11.154,11.154,0,0,1-3.969,7.99,13.448,13.448,0,0,1-8.959,3.414" transform="translate(-142.458 -41.01)" fill="#231f20"/>
        <path id="Trazado_907569" data-name="Trazado 907569" d="M222.657,139.227a1.2,1.2,0,0,1-1.2-1.2V109.159a1.2,1.2,0,0,1,2.405,0v28.866a1.2,1.2,0,0,1-1.2,1.2" transform="translate(-168.184 -81.987)" fill="#231f20"/>
        <path id="Trazado_907570" data-name="Trazado 907570" d="M208.607,140.05a1.2,1.2,0,0,1-.767-.277l-4.45-3.688a1.2,1.2,0,0,1,1.535-1.852l4.45,3.688a1.2,1.2,0,0,1-.768,2.129" transform="translate(-154.134 -101.733)" fill="#231f20"/>
        <path id="Trazado_907571" data-name="Trazado 907571" d="M222.657,122.21a1.2,1.2,0,0,1-.764-2.132l4.691-3.849a1.2,1.2,0,0,1,1.526,1.859l-4.691,3.849a1.2,1.2,0,0,1-.762.273" transform="translate(-168.183 -88.063)" fill="#231f20"/>
      </g>
    </g>
  </g>
</svg>
