<svg xmlns="http://www.w3.org/2000/svg" xmlns:xlink="http://www.w3.org/1999/xlink" width="89" height="89" viewBox="0 0 89 89">
  <defs>
    <clipPath id="clip-path">
      <rect id="Rectángulo_404870" data-name="Rectángulo 404870" width="66.426" height="56.925" fill="none"/>
    </clipPath>
  </defs>
  <g id="Grupo_1115180" data-name="Grupo 1115180" transform="translate(3288 4092)">
    <g id="Grupo_1115059" data-name="Grupo 1115059" transform="translate(-4098 -11671)">
      <circle id="Elipse_11692" data-name="Elipse 11692" cx="44.5" cy="44.5" r="44.5" transform="translate(810 7579)" fill="#fbe9cc"/>
    </g>
    <g id="Grupo_1115179" data-name="Grupo 1115179" transform="translate(-3025 -4032.53)">
      <g id="Grupo_1115178" data-name="Grupo 1115178" transform="translate(-252 -43)" clip-path="url(#clip-path)">
        <path id="Trazado_907624" data-name="Trazado 907624" d="M66.179,31.65,55.7,19.063h6.654a1.067,1.067,0,0,0,.839-1.726L49.853.386a1.1,1.1,0,0,0-1.677,0L41.114,9.362,34.052.386a1.1,1.1,0,0,0-1.678,0L25.312,9.361,18.25.386a1.1,1.1,0,0,0-1.677,0L3.235,17.337a1.067,1.067,0,0,0,.839,1.726h6.655L.247,31.65a1.068,1.068,0,0,0,.82,1.75h8.04L2.422,45.347a1.068,1.068,0,0,0,.931,1.588h8.9v8.923a1.067,1.067,0,0,0,2.134,0v-9.99A1.066,1.066,0,0,0,13.322,44.8H5.172l6.686-11.947a1.068,1.068,0,0,0-.932-1.588H3.344L13.825,18.679a1.067,1.067,0,0,0-.82-1.749H6.272L17.412,2.771l6.543,8.316.053-.068-4.971,6.318a1.067,1.067,0,0,0,.839,1.726H26.53L16.049,31.65a1.067,1.067,0,0,0,.82,1.75h8.04L18.224,45.347a1.068,1.068,0,0,0,.931,1.588h8.9v8.923a1.067,1.067,0,0,0,2.134,0v-9.99A1.067,1.067,0,0,0,29.124,44.8h-8.15L27.66,32.855a1.068,1.068,0,0,0-.931-1.588H19.146L29.627,18.679a1.067,1.067,0,0,0-.82-1.749H22.073L33.213,2.771,44.352,16.929H37.619a1.067,1.067,0,0,0-.82,1.749L47.28,31.267H39.7a1.068,1.068,0,0,0-.931,1.588L45.452,44.8H37.3a1.066,1.066,0,0,0-1.067,1.067v9.99a1.067,1.067,0,0,0,2.134,0V46.935h8.9a1.068,1.068,0,0,0,.932-1.588L41.517,33.4h8.04a1.068,1.068,0,0,0,.82-1.75L39.9,19.063h6.654a1.067,1.067,0,0,0,.839-1.726l-4.916-6.249,6.543-8.317L60.154,16.929H53.421a1.067,1.067,0,0,0-.82,1.749L63.082,31.267H55.5a1.068,1.068,0,0,0-.931,1.588L61.254,44.8H53.1a1.066,1.066,0,0,0-1.067,1.067v9.99a1.067,1.067,0,0,0,2.134,0V46.935h8.9A1.068,1.068,0,0,0,64,45.347L57.319,33.4h8.04a1.067,1.067,0,0,0,.82-1.75" transform="translate(0 0)"/>
      </g>
    </g>
  </g>
</svg>
