<svg xmlns="http://www.w3.org/2000/svg" xmlns:xlink="http://www.w3.org/1999/xlink" width="97" height="97" viewBox="0 0 97 97">
  <defs>
    <clipPath id="clip-path">
      <rect id="Rectángulo_404937" data-name="Rectángulo 404937" width="70.054" height="58.037" fill="none"/>
    </clipPath>
  </defs>
  <g id="Grupo_1115224" data-name="Grupo 1115224" transform="translate(-279 -10098)">
    <g id="Grupo_1115209" data-name="Grupo 1115209" transform="translate(-477.633 1347)">
      <g id="Grupo_1115080" data-name="Grupo 1115080" transform="translate(757 8751)">
        <g id="Grupo_1107637" data-name="Grupo 1107637" transform="translate(0 0)">
          <g id="Grupo_1098742" data-name="Grupo 1098742" transform="translate(0 0)">
            <rect id="Rectángulo_400898" data-name="Rectángulo 400898" width="97" height="97" rx="48.5" transform="translate(-0.367 0)" fill="#ff7c32" opacity="0.859"/>
            <rect id="Rectángulo_400907" data-name="Rectángulo 400907" width="97" height="97" rx="48.5" transform="translate(-0.367 0)" fill="none"/>
          </g>
        </g>
      </g>
    </g>
    <g id="Grupo_1115214" data-name="Grupo 1115214" transform="translate(291.946 10117.266)">
      <g id="Grupo_1115213" data-name="Grupo 1115213" transform="translate(0 0)" clip-path="url(#clip-path)">
        <path id="Trazado_908125" data-name="Trazado 908125" d="M69.125,19.367H.929a.928.928,0,1,1,0-1.857h68.2a.928.928,0,1,1,0,1.857" transform="translate(0 17.483)"/>
        <path id="Trazado_908126" data-name="Trazado 908126" d="M20.225,40.555a.927.927,0,0,1-.9-.7C15.155,23.44,1.719,19.37,1.585,19.33A.928.928,0,1,1,2.1,17.547c.6.172,14.595,4.417,19.023,21.851a.928.928,0,0,1-.671,1.129.987.987,0,0,1-.228.028" transform="translate(0.913 17.482)"/>
        <path id="Trazado_908127" data-name="Trazado 908127" d="M24.506,40.555a.927.927,0,0,1-.9-.7C19.447,23.486,6,19.369,5.864,19.329a.928.928,0,1,1,.52-1.783c.594.172,14.593,4.417,19.023,21.851a.931.931,0,0,1-.671,1.129,1.018,1.018,0,0,1-.23.028" transform="translate(5.188 17.482)"/>
        <path id="Trazado_908128" data-name="Trazado 908128" d="M28.786,40.555a.929.929,0,0,1-.9-.7C23.727,23.486,10.28,19.369,10.144,19.329a.928.928,0,0,1,.518-1.783c.6.172,14.595,4.417,19.025,21.851a.93.93,0,0,1-.671,1.129,1.018,1.018,0,0,1-.23.028" transform="translate(9.461 17.482)"/>
        <path id="Trazado_908129" data-name="Trazado 908129" d="M33.067,40.555a.927.927,0,0,1-.9-.7C28,23.44,14.561,19.37,14.427,19.33a.928.928,0,1,1,.516-1.783c.6.172,14.595,4.417,19.025,21.851a.931.931,0,0,1-.671,1.129,1.018,1.018,0,0,1-.23.028" transform="translate(13.735 17.482)"/>
        <path id="Trazado_908130" data-name="Trazado 908130" d="M37.347,40.555a.929.929,0,0,1-.9-.7C32.288,23.486,18.841,19.369,18.7,19.329a.928.928,0,0,1,.52-1.783c.594.172,14.593,4.417,19.023,21.851a.931.931,0,0,1-.671,1.129,1.018,1.018,0,0,1-.23.028" transform="translate(18.009 17.482)"/>
        <path id="Trazado_908131" data-name="Trazado 908131" d="M47.252,21.421H22.836a.928.928,0,1,1,0-1.857H47.252a.928.928,0,1,1,0,1.857" transform="translate(21.873 19.533)"/>
        <path id="Trazado_908132" data-name="Trazado 908132" d="M45.018,23.558H25.073a.928.928,0,1,1,0-1.857H45.018a.928.928,0,1,1,0,1.857" transform="translate(24.107 21.667)"/>
        <path id="Trazado_908133" data-name="Trazado 908133" d="M43.542,25.695H26.549a.928.928,0,0,1,0-1.857H43.542a.928.928,0,1,1,0,1.857" transform="translate(25.583 23.801)"/>
        <path id="Trazado_908134" data-name="Trazado 908134" d="M42.513,27.832H27.582a.928.928,0,1,1,0-1.857H42.513a.928.928,0,1,1,0,1.857" transform="translate(26.612 25.935)"/>
        <path id="Trazado_908135" data-name="Trazado 908135" d="M41.812,29.969H28.284a.928.928,0,1,1,0-1.857H41.812a.928.928,0,1,1,0,1.857" transform="translate(27.313 28.068)"/>
        <path id="Trazado_908136" data-name="Trazado 908136" d="M11.249,23.382c-4.4,0-7.98-4.407-7.98-9.822s3.581-9.82,7.98-9.82,7.98,4.4,7.98,9.82-3.579,9.822-7.98,9.822m0-17.786c-3.375,0-6.123,3.573-6.123,7.964s2.748,7.966,6.123,7.966,6.123-3.573,6.123-7.966S14.624,5.6,11.249,5.6" transform="translate(3.264 3.733)"/>
        <path id="Trazado_908137" data-name="Trazado 908137" d="M26.044,22.273A11.136,11.136,0,1,1,37.18,11.107a.928.928,0,0,1-1.215.885,5.84,5.84,0,0,0-6.8,8.593.929.929,0,0,1-.584,1.387,11.2,11.2,0,0,1-2.536.3m0-20.416a9.28,9.28,0,1,0,0,18.56,8.417,8.417,0,0,0,.943-.052,7.7,7.7,0,0,1,7.17-10.516,7.909,7.909,0,0,1,1.087.076,9.3,9.3,0,0,0-9.2-8.068" transform="translate(14.884 -0.001)"/>
        <path id="Trazado_908138" data-name="Trazado 908138" d="M7.726,24.23A.929.929,0,0,1,6.8,23.3V13.566a.929.929,0,0,1,1.859,0V23.3a.929.929,0,0,1-.929.929" transform="translate(6.787 12.619)"/>
        <path id="Trazado_908139" data-name="Trazado 908139" d="M7.727,17.733a.929.929,0,0,1-.406-1.765l3.315-1.6a.929.929,0,0,1,.809,1.673l-3.315,1.6a.937.937,0,0,1-.4.092" transform="translate(6.788 14.25)"/>
        <path id="Trazado_908140" data-name="Trazado 908140" d="M20.944,26.649a.929.929,0,0,1-.929-.929V11.145a.929.929,0,1,1,1.859,0V25.72a.929.929,0,0,1-.929.929" transform="translate(19.984 10.2)"/>
        <path id="Trazado_908141" data-name="Trazado 908141" d="M28.39,20.34A7.706,7.706,0,1,1,36.1,12.634,7.715,7.715,0,0,1,28.39,20.34m0-13.556a5.85,5.85,0,1,0,5.85,5.85,5.856,5.856,0,0,0-5.85-5.85" transform="translate(20.652 4.92)"/>
        <path id="Trazado_908142" data-name="Trazado 908142" d="M20.943,16.374a.928.928,0,0,1-.014-1.857c2.778-.044,4.447-2.664,4.463-2.692a.929.929,0,0,1,1.575.985c-.088.142-2.232,3.5-6.009,3.563Z" transform="translate(19.985 11.372)"/>
        <path id="Trazado_908143" data-name="Trazado 908143" d="M22.416,17.575a.929.929,0,0,1-.59-.212l-2.946-2.42a.929.929,0,1,1,1.179-1.435l2.946,2.42a.929.929,0,0,1-.59,1.647" transform="translate(18.513 13.275)"/>
        <path id="Trazado_908144" data-name="Trazado 908144" d="M13.493,20.577a.929.929,0,0,1-.929-.929v-2.42a.929.929,0,1,1,1.859,0v2.42a.929.929,0,0,1-.929.929" transform="translate(12.545 16.272)"/>
        <path id="Trazado_908145" data-name="Trazado 908145" d="M25.552,20.944a.929.929,0,0,1-.929-.929V16.857a.929.929,0,0,1,1.859,0v3.158a.929.929,0,0,1-.929.929" transform="translate(24.585 15.905)"/>
        <path id="Trazado_908146" data-name="Trazado 908146" d="M29.581,22.364a.929.929,0,0,1-.929-.929v-6a.929.929,0,1,1,1.859,0v6a.929.929,0,0,1-.929.929" transform="translate(28.608 14.485)"/>
      </g>
    </g>
  </g>
</svg>
