<svg xmlns="http://www.w3.org/2000/svg" xmlns:xlink="http://www.w3.org/1999/xlink" width="97" height="97" viewBox="0 0 97 97">
  <defs>
    <clipPath id="clip-path">
      <rect id="Rectángulo_404939" data-name="Rectángulo 404939" width="68.191" height="64.956" fill="none"/>
    </clipPath>
  </defs>
  <g id="Grupo_1115222" data-name="Grupo 1115222" transform="translate(-909 -10098)">
    <g id="Grupo_1115211" data-name="Grupo 1115211" transform="translate(152.367 1347)">
      <g id="Grupo_1115080" data-name="Grupo 1115080" transform="translate(757 8751)">
        <g id="Grupo_1107637" data-name="Grupo 1107637" transform="translate(0 0)">
          <g id="Grupo_1098742" data-name="Grupo 1098742" transform="translate(0 0)">
            <rect id="Rectángulo_400898" data-name="Rectángulo 400898" width="97" height="97" rx="48.5" transform="translate(-0.367 0)" fill="#ff7c32" opacity="0.859"/>
            <rect id="Rectángulo_400907" data-name="Rectángulo 400907" width="97" height="97" rx="48.5" transform="translate(-0.367 0)" fill="none"/>
          </g>
        </g>
      </g>
    </g>
    <g id="Grupo_1115218" data-name="Grupo 1115218" transform="translate(923.904 10109.521)">
      <g id="Grupo_1115217" data-name="Grupo 1115217" transform="translate(0 0)" clip-path="url(#clip-path)">
        <path id="Trazado_908161" data-name="Trazado 908161" d="M12.355,51.622H1.5a.957.957,0,0,1,0-1.915H11.755l17.77-36.6a.958.958,0,1,1,1.723.837L13.216,51.082a.959.959,0,0,1-.862.54" transform="translate(0.574 13.333)"/>
        <path id="Trazado_908162" data-name="Trazado 908162" d="M10.286,51.621a.959.959,0,0,1-.862-1.377L27.457,13.107a.958.958,0,1,1,1.723.837L11.148,51.081a.955.955,0,0,1-.862.54" transform="translate(9.898 13.333)"/>
        <path id="Trazado_908163" data-name="Trazado 908163" d="M13.806,51.621a.958.958,0,0,1-.862-1.375l18.032-37.14a.958.958,0,0,1,1.723.837L14.668,51.081a.955.955,0,0,1-.862.54" transform="translate(13.632 13.333)"/>
        <path id="Trazado_908164" data-name="Trazado 908164" d="M17.326,51.621a.958.958,0,0,1-.862-1.375L34.5,13.107a.958.958,0,1,1,1.723.837L18.188,51.081a.955.955,0,0,1-.862.54" transform="translate(17.367 13.333)"/>
        <path id="Trazado_908165" data-name="Trazado 908165" d="M20.844,51.621a.94.94,0,0,1-.416-.1.958.958,0,0,1-.443-1.28L38.017,13.107a.957.957,0,1,1,1.721.837L21.706,51.081a.955.955,0,0,1-.862.54" transform="translate(21.102 13.333)"/>
        <path id="Trazado_908166" data-name="Trazado 908166" d="M67.233,51.622H49.2a.958.958,0,0,1-.862-1.377L65.7,14.482H.956a.957.957,0,0,1,0-1.915H67.233a.958.958,0,0,1,.862,1.377L50.73,49.707h16.5a.957.957,0,1,1,0,1.915" transform="translate(0 13.333)"/>
        <path id="Trazado_908167" data-name="Trazado 908167" d="M27.733,17.057H1.5a.957.957,0,1,1,0-1.915H27.733a.957.957,0,1,1,0,1.915" transform="translate(0.573 16.065)"/>
        <path id="Trazado_908168" data-name="Trazado 908168" d="M25.147,19.631H1.5a.957.957,0,1,1,0-1.915H25.147a.957.957,0,1,1,0,1.915" transform="translate(0.573 18.796)"/>
        <path id="Trazado_908169" data-name="Trazado 908169" d="M22.634,22.2H1.5a.957.957,0,1,1,0-1.915H22.634a.957.957,0,1,1,0,1.915" transform="translate(0.573 21.528)"/>
        <path id="Trazado_908170" data-name="Trazado 908170" d="M18.791,24.78H1.5a.957.957,0,1,1,0-1.915H18.791a.957.957,0,1,1,0,1.915" transform="translate(0.574 24.26)"/>
        <path id="Trazado_908171" data-name="Trazado 908171" d="M17.314,27.354H1.5a.957.957,0,1,1,0-1.915H17.314a.957.957,0,1,1,0,1.915" transform="translate(0.574 26.991)"/>
        <path id="Trazado_908172" data-name="Trazado 908172" d="M14.764,29.928H1.5a.957.957,0,1,1,0-1.915H14.764a.957.957,0,1,1,0,1.915" transform="translate(0.574 29.722)"/>
        <path id="Trazado_908173" data-name="Trazado 908173" d="M13.458,7.273a.96.96,0,0,1-.96-.958V.958a.959.959,0,0,1,1.919,0V6.315a.959.959,0,0,1-.958.958" transform="translate(13.261 -0.001)"/>
        <path id="Trazado_908174" data-name="Trazado 908174" d="M16.4,7.626a.957.957,0,0,1-.9-1.286l1.83-5.033a.958.958,0,0,1,1.8.653L17.3,7a.959.959,0,0,1-.9.631" transform="translate(16.385 0.716)"/>
        <path id="Trazado_908175" data-name="Trazado 908175" d="M18.986,8.641a.957.957,0,0,1-.732-1.573L21.7,2.963a.957.957,0,1,1,1.465,1.23L19.722,8.3a.962.962,0,0,1-.736.342" transform="translate(19.13 2.781)"/>
        <path id="Trazado_908176" data-name="Trazado 908176" d="M20.911,10.2a.958.958,0,0,1-.48-1.787L25.072,5.73a.957.957,0,0,1,.954,1.659l-4.637,2.679a.957.957,0,0,1-.478.128" transform="translate(21.169 5.943)"/>
        <path id="Trazado_908177" data-name="Trazado 908177" d="M7.7,12.105a.914.914,0,0,1-.167-.014l-5.276-.93a.958.958,0,0,1,.332-1.888l5.276.932a.957.957,0,0,1-.165,1.9" transform="translate(1.553 9.823)"/>
        <path id="Trazado_908178" data-name="Trazado 908178" d="M8.391,10.2a.957.957,0,0,1-.478-.128L3.274,7.389A.958.958,0,0,1,4.23,5.73L8.872,8.409a.958.958,0,0,1-.48,1.787" transform="translate(2.965 5.943)"/>
        <path id="Trazado_908179" data-name="Trazado 908179" d="M9.7,8.641A.961.961,0,0,1,8.965,8.3L5.521,4.193a.958.958,0,0,1,1.467-1.23l3.444,4.106A.959.959,0,0,1,9.7,8.641" transform="translate(5.619 2.781)"/>
        <path id="Trazado_908180" data-name="Trazado 908180" d="M11.456,7.626a.959.959,0,0,1-.9-.631L8.723,1.96a.958.958,0,0,1,1.8-.653l1.83,5.033a.957.957,0,0,1-.9,1.286" transform="translate(9.195 0.716)"/>
        <path id="Trazado_908181" data-name="Trazado 908181" d="M33.99,23H7.077a.956.956,0,0,1-.938-.763,14.7,14.7,0,1,1,29.1-3,14.9,14.9,0,0,1-.309,3A.957.957,0,0,1,33.99,23M7.879,21.09H33.186A12.788,12.788,0,1,0,7.745,19.239a12.937,12.937,0,0,0,.134,1.851" transform="translate(6.186 4.812)"/>
        <path id="Trazado_908182" data-name="Trazado 908182" d="M26.23,18.108h-4.3a.954.954,0,0,1-.958-.973,17.984,17.984,0,0,1,2.28-7.506.957.957,0,0,1,1.657,0,18,18,0,0,1,2.277,7.506.957.957,0,0,1-.958.973m-3.269-1.915H25.2A15.34,15.34,0,0,0,24.082,12.3a15.254,15.254,0,0,0-1.121,3.889" transform="translate(22.254 9.709)"/>
        <path id="Trazado_908183" data-name="Trazado 908183" d="M28.79,18.09h-4.3a.957.957,0,0,1-.958-.971,17.986,17.986,0,0,1,2.28-7.508,1,1,0,0,1,1.657,0,17.964,17.964,0,0,1,2.277,7.508.954.954,0,0,1-.958.971m-3.269-1.915h2.24a15.24,15.24,0,0,0-1.119-3.893,15.347,15.347,0,0,0-1.121,3.893" transform="translate(24.97 9.726)"/>
        <path id="Trazado_908184" data-name="Trazado 908184" d="M31.35,18.09h-4.3a.954.954,0,0,1-.956-.973,17.962,17.962,0,0,1,2.277-7.506,1,1,0,0,1,1.657,0,17.984,17.984,0,0,1,2.28,7.506.957.957,0,0,1-.958.973m-3.269-1.915h2.24A15.254,15.254,0,0,0,29.2,12.287a15.34,15.34,0,0,0-1.119,3.889" transform="translate(27.687 9.726)"/>
        <path id="Trazado_908185" data-name="Trazado 908185" d="M33.91,18.09h-4.3a.957.957,0,0,1-.958-.971,17.986,17.986,0,0,1,2.28-7.508,1,1,0,0,1,1.657,0,17.964,17.964,0,0,1,2.277,7.508.957.957,0,0,1-.958.971m-3.269-1.915h2.24a15.24,15.24,0,0,0-1.119-3.893,15.347,15.347,0,0,0-1.121,3.893" transform="translate(30.403 9.726)"/>
        <path id="Trazado_908186" data-name="Trazado 908186" d="M41.071,29.928H25.615a.957.957,0,1,1,0-1.915H41.071a.957.957,0,1,1,0,1.915" transform="translate(26.162 29.722)"/>
        <path id="Trazado_908187" data-name="Trazado 908187" d="M39.663,27.354H26.94a.957.957,0,0,1,0-1.915H39.663a.957.957,0,1,1,0,1.915" transform="translate(27.57 26.991)"/>
        <path id="Trazado_908188" data-name="Trazado 908188" d="M38.29,24.78H28.236a.957.957,0,1,1,0-1.915H38.29a.957.957,0,1,1,0,1.915" transform="translate(28.943 24.26)"/>
        <path id="Trazado_908189" data-name="Trazado 908189" d="M37.092,22.2H29.363a.957.957,0,0,1,0-1.915h7.729a.957.957,0,1,1,0,1.915" transform="translate(30.141 21.528)"/>
        <path id="Trazado_908190" data-name="Trazado 908190" d="M35.766,19.631H30.613a.957.957,0,0,1,0-1.915h5.153a.957.957,0,1,1,0,1.915" transform="translate(31.467 18.796)"/>
        <path id="Trazado_908191" data-name="Trazado 908191" d="M34.44,17.057H31.863a.957.957,0,0,1,0-1.915H34.44a.957.957,0,1,1,0,1.915" transform="translate(32.793 16.065)"/>
      </g>
    </g>
  </g>
</svg>
