<svg xmlns="http://www.w3.org/2000/svg" xmlns:xlink="http://www.w3.org/1999/xlink" width="90.914" height="90.914" viewBox="0 0 90.914 90.914">
  <defs>
    <clipPath id="clip-path">
      <rect id="Rectángulo_404820" data-name="Rectángulo 404820" width="55.211" height="58.563" fill="#fcfbfa"/>
    </clipPath>
  </defs>
  <g id="Grupo_1115121" data-name="Grupo 1115121" transform="translate(-5290.512 10865.285)">
    <g id="Grupo_1115118" data-name="Grupo 1115118" transform="translate(630.123)">
      <g id="Grupo_1115111" data-name="Grupo 1115111" transform="translate(4660.389 -10865.285)">
        <rect id="Rectángulo_400898" data-name="Rectángulo 400898" width="90.914" height="90.914" rx="45.457" transform="translate(0 0)" fill="#ff7c32" opacity="0.859"/>
        <rect id="Rectángulo_400907" data-name="Rectángulo 400907" width="90.914" height="90.914" rx="45.457" transform="translate(0 0)" fill="none"/>
      </g>
    </g>
    <g id="Grupo_1115120" data-name="Grupo 1115120" transform="translate(5308.363 -10849.109)">
      <g id="Grupo_1115119" data-name="Grupo 1115119" clip-path="url(#clip-path)">
        <path id="Trazado_907531" data-name="Trazado 907531" d="M61,18a13.935,13.935,0,0,1-2.909-.308A1.161,1.161,0,0,1,57.2,16.8,13.928,13.928,0,0,1,73.7.3a1.16,1.16,0,0,1,.9.9A13.892,13.892,0,0,1,70.8,13.925,13.843,13.843,0,0,1,61,18m-1.667-2.443a11.521,11.521,0,0,0,9.828-3.277,11.576,11.576,0,0,0,3.294-9.845A11.61,11.61,0,0,0,59.333,15.561" transform="translate(-30.477 0)" fill="#fcfbfa"/>
        <path id="Trazado_907532" data-name="Trazado 907532" d="M36.31,73.847h-.056c-2.914-.019-7.8-.052-11.965-.087-7.977-.068-7.977-.068-8.327-.327A37.471,37.471,0,0,1,9.1,66.877C-.2,55.506-2.8,40.183,3.306,32.72c3.25-3.977,8.46-5.2,14.291-3.344a36.677,36.677,0,0,0,20.882.139c5.465-1.464,10.358-.151,13.425,3.6,6.11,7.46,3.51,22.783-5.8,34.157h0a39.446,39.446,0,0,1-4.247,4.455,8.324,8.324,0,0,1-5.551,2.119M17.059,71.356c1.538.038,8.542.1,19.211.169a6.01,6.01,0,0,0,4.045-1.53,37.087,37.087,0,0,0,4-4.192h0c8.643-10.562,11.244-24.566,5.8-31.216-2.5-3.06-6.416-4.065-11.027-2.829a38.963,38.963,0,0,1-22.185-.169c-4.948-1.571-9.136-.647-11.791,2.6-5.446,6.654-2.846,20.657,5.8,31.218a35.334,35.334,0,0,0,6.161,5.949" transform="translate(0 -15.283)" fill="#fcfbfa"/>
        <path id="Trazado_907533" data-name="Trazado 907533" d="M58.12,19.811a1.161,1.161,0,0,1-1.161-1.161v-14a1.161,1.161,0,1,1,2.321,0v14a1.161,1.161,0,0,1-1.161,1.161" transform="translate(-30.514 -1.871)" fill="#fcfbfa"/>
        <path id="Trazado_907534" data-name="Trazado 907534" d="M36.1,78.168a1.161,1.161,0,0,1-.994-.561L26.236,62.888H22.424a1.161,1.161,0,0,1,0-2.321h4.468a1.16,1.16,0,0,1,.994.562L35.765,74.2l6.511-20.792a1.161,1.161,0,0,1,1.108-.814H58.789a1.161,1.161,0,0,1,0,2.321H44.236L37.21,77.354a1.162,1.162,0,0,1-1.108.814" transform="translate(-11.391 -28.175)" fill="#fcfbfa"/>
      </g>
    </g>
  </g>
</svg>
