<svg xmlns="http://www.w3.org/2000/svg" width="51.826" height="52" viewBox="0 0 51.826 52">
  <g id="Grupo_1105560" data-name="Grupo 1105560" transform="translate(-188.73 -5774.494)">
    <rect id="Rectángulo_402557" data-name="Rectángulo 402557" width="26" height="52" rx="5" transform="translate(194.73 5774.494)" fill="#fbe9cc"/>
    <g id="vaca" transform="translate(188.73 5733.881)">
      <g id="Grupo_1105628" data-name="Grupo 1105628" transform="translate(0.759 46.368)">
        <path id="Trazado_894227" data-name="Trazado 894227" d="M369.818,109.58c3.118,0,6.45-1.584,7.724-3.845a7.635,7.635,0,0,0,.686-3.185,2.917,2.917,0,0,0-3.062-3.13c-3.606,0-8.749,2.3-11.159,3.488l1.649,6.394A18.94,18.94,0,0,0,369.818,109.58Z" transform="translate(-327.919 -94.733)" fill="#c38778"/>
        <path id="Trazado_894228" data-name="Trazado 894228" d="M21.92,109.545a27.7,27.7,0,0,0,7.086-1.078l1.106-4.87H29.006s-7.646-4.177-12.5-4.177a3.6,3.6,0,0,0-.93.118,3.974,3.974,0,0,0-1.462,3C14.11,106.225,17.085,109.545,21.92,109.545Z" transform="translate(-13.441 -94.732)" fill="#c38778"/>
        <path id="Trazado_894229" data-name="Trazado 894229" d="M49.4,109.918a18.934,18.934,0,0,1-4.163-.278s-.689-2.806-1.649-5.686c-.836.411-1.344.689-1.344.689H24.171L22.3,109.336a41.716,41.716,0,0,1-6.39.581c-4.266,0-6.891-3-6.891-6.321a6.246,6.246,0,0,1,.613-3.012A2.9,2.9,0,0,0,7.5,103.6c0,4.405,3.6,7.84,8.409,7.84a28.2,28.2,0,0,0,5.377-.48H44.021a28.2,28.2,0,0,0,5.377.48,8.275,8.275,0,0,0,7.724-4.655A10.089,10.089,0,0,1,49.4,109.918Z" transform="translate(-7.5 -95.779)" fill="#8c5e5e"/>
        <path id="Trazado_894230" data-name="Trazado 894230" d="M157.714,140.685H140.055s-4.079,10.27-4.079,15.787c0,4.938,4.206,8.842,4.206,8.842l2.024,3.588c.3,2.381,1.64,3.082,3.093,3.082h6.4c1.143,0,1.951-.9,2.481-1.2a5.078,5.078,0,0,0,.337-.922l.068-4.742,3.093-.565a12.32,12.32,0,0,0,3.4-8.079c0-5.517-3.37-15.787-3.37-15.787Z" transform="translate(-122.971 -131.821)" fill="#c38778"/>
        <path id="Trazado_894231" data-name="Trazado 894231" d="M150.489,164.551a14.844,14.844,0,0,0-2.145-4.676A27.107,27.107,0,0,1,146.2,149.5c0-4.967,1.133-7.039,1.133-7.039H144l-10.3,22.245s-4.206-3.3-4.206-8.235c0-5.517,3.37-15.787,3.37-15.787h-1.518s-3.37,10.27-3.37,15.787,4.511,9.157,4.511,9.157l2.054,4.229s.7,3.037,3.25,3.037h6.289a3.272,3.272,0,0,0,2.913-2.115,4.928,4.928,0,0,1-2.481.6h-6.4c-1.454,0-2.085-.7-2.385-3.082,0,0,9.166-.528,13.177-1.674l.482-.991A11.16,11.16,0,0,0,150.489,164.551Z" transform="translate(-115.781 -131.821)" fill="#8c5e5e"/>
        <path id="Trazado_894232" data-name="Trazado 894232" d="M114.677,53.823a1.119,1.119,0,0,0-.884-.629c-2.354,4.066.036,7.6,4.472,7.6l1.219-3.094A7.113,7.113,0,0,1,114.677,53.823Z" transform="translate(-102.205 -53.186)" fill="#fff0af"/>
        <path id="Trazado_894233" data-name="Trazado 894233" d="M108.205,53.124a1.108,1.108,0,0,0-1.225.838c-1.337,5.343,1.626,6.972,5.2,8.018l.5-1.258C109.064,59.635,107.006,57.823,108.205,53.124Z" transform="translate(-96.617 -53.115)" fill="#ffd064"/>
        <path id="Trazado_894234" data-name="Trazado 894234" d="M354.585,53.96a1.128,1.128,0,0,0-2.108-.209,6.8,6.8,0,0,1-3.245,3.284,32.592,32.592,0,0,0,.6,3.99c1.908-.732,4.039-1.818,5.016-3.742A8.511,8.511,0,0,0,354.585,53.96Z" transform="translate(-314.641 -53.114)" fill="#fff0af"/>
        <path id="Trazado_894235" data-name="Trazado 894235" d="M335.358,91.851a9.968,9.968,0,0,1-1.562.592l1.714,4.351c2.693-.788,5.038-1.907,5.46-4.694a10.913,10.913,0,0,1-4.478,2.8A17.812,17.812,0,0,0,335.358,91.851Z" transform="translate(-300.767 -87.93)" fill="#ffd064"/>
        <path id="Trazado_894236" data-name="Trazado 894236" d="M190.063,87.521l-.86-2.779a4.555,4.555,0,0,0-4.352-3.209H176.1a4.547,4.547,0,0,0-1.212.165,4.619,4.619,0,0,0-2.329,3.044l-.586,1.9s5.571,2.036,5.571,9.7a35.244,35.244,0,0,1-1.811,11.183h11.009a26.657,26.657,0,0,1-2.519-11.183C184.218,88.674,190.063,87.521,190.063,87.521Z" transform="translate(-155.32 -78.656)" fill="#f5fcff"/>
        <path id="Trazado_894237" data-name="Trazado 894237" d="M163.061,88.1l.586-1.9a5.817,5.817,0,0,1,1.621-3.044,4.555,4.555,0,0,0-3.139,3.044l-.859,2.779s5.844,1.153,5.844,8.816a26.657,26.657,0,0,1-2.519,11.183h1.518A26.657,26.657,0,0,0,168.632,97.8C168.632,90.138,163.061,88.1,163.061,88.1Z" transform="translate(-145.704 -80.121)" fill="#d8e2f3"/>
        <path id="Trazado_894238" data-name="Trazado 894238" d="M191.955,327.06c-1.33-1.33-7.337-1.608-10.625-.835-1.546.835-3.557,4.876-3.557,7.62a1.4,1.4,0,0,0,1.524,1.579h12.788a2.967,2.967,0,0,0,2.281-1.267c.011-.116.018-.234.018-.357C194.385,331.816,193,328.1,191.955,327.06Z" transform="translate(-160.537 -298.197)" fill="#ffcdbe"/>
        <path id="Trazado_894239" data-name="Trazado 894239" d="M172.418,338.5c-.448,0-.816-.13-.816-.871a12.693,12.693,0,0,1,2.849-7.62,4.167,4.167,0,0,0-1.9.835c-1.043,1.043-2.429,4.756-2.429,6.74a2.158,2.158,0,0,0,2.3,2.434h12.788a2.1,2.1,0,0,0,2.281-2.077,4.4,4.4,0,0,1-2.281.558Z" transform="translate(-153.658 -301.985)" fill="#ebae9d"/>
      </g>
      <g id="Grupo_1105629" data-name="Grupo 1105629" transform="translate(0 45.609)">
        <path id="Trazado_894240" data-name="Trazado 894240" d="M29.058,88.2H22.769c-2.408,0-3.463-2.109-3.819-3.077a2.882,2.882,0,0,1-2.488-3.153,8.118,8.118,0,0,1,.171-1.517C15.492,79.4,12.2,75.931,12.2,71.02a40.613,40.613,0,0,1,1.3-8.529,31.751,31.751,0,0,1-4.328.294.759.759,0,1,1,0-1.518,29.34,29.34,0,0,0,4.725-.373c.579-2.242,1.16-4.158,1.474-5.161a10.045,10.045,0,0,1-3.379-1.725,23.012,23.012,0,0,0-8.168-2.192,2.169,2.169,0,0,0-2.3,2.371,6.977,6.977,0,0,0,5.053,6.691.759.759,0,1,1-.456,1.448A8.469,8.469,0,0,1,0,54.186,3.689,3.689,0,0,1,3.821,50.3a20.052,20.052,0,0,1,6.561,1.442,8.049,8.049,0,0,1,0-4.708A1.859,1.859,0,0,1,12,45.62a1.884,1.884,0,0,1,1.907,1.049,6.213,6.213,0,0,0,3.89,3.342,5.294,5.294,0,0,1,3.734-1.525h4.418a.759.759,0,1,1,0,1.518H21.535a3.778,3.778,0,0,0-3.626,2.674l-.634,2.05a8.5,8.5,0,0,1,5.283,6.139.759.759,0,0,1-1.472.371,7.064,7.064,0,0,0-4.266-5.058c-.75,2.407-3.106,10.332-3.106,14.838a11.746,11.746,0,0,0,3.361,7.73,12.026,12.026,0,0,1,1.946-3.957A26.305,26.305,0,0,0,21.41,64.048a.759.759,0,0,1,1.518,0,27.84,27.84,0,0,1-1.8,9.667,17.282,17.282,0,0,1,3.222-.459.759.759,0,1,1,.09,1.516c-2.378.142-3.842.6-4.247.987l-.019.019a12.762,12.762,0,0,0-2.2,6.193c0,1.127.5,1.675,1.54,1.675H32.307c1.036,0,1.54-.548,1.54-1.675a12.763,12.763,0,0,0-2.2-6.193l-.019-.019c-.4-.391-1.869-.845-4.247-.987a.759.759,0,1,1,.09-1.516,17.292,17.292,0,0,1,3.222.459,27.84,27.84,0,0,1-1.8-9.667c0-4.248,1.734-6.618,3.189-7.859a8.362,8.362,0,0,1,2.465-1.458l-.635-2.053A3.778,3.778,0,0,0,30.291,50h-1.3a.759.759,0,1,1,0-1.518h1.3a5.293,5.293,0,0,1,3.734,1.525,6.213,6.213,0,0,0,3.89-3.342,1.883,1.883,0,0,1,1.907-1.048,1.859,1.859,0,0,1,1.618,1.41,8.049,8.049,0,0,1,0,4.708A20.053,20.053,0,0,1,48.005,50.3a3.689,3.689,0,0,1,3.821,3.889,8.47,8.47,0,0,1-6.116,8.139.759.759,0,1,1-.456-1.448,6.976,6.976,0,0,0,5.054-6.691,2.169,2.169,0,0,0-2.3-2.371,23.012,23.012,0,0,0-8.168,2.192,10.047,10.047,0,0,1-3.379,1.725c.314,1,.895,2.92,1.474,5.161a29.352,29.352,0,0,0,4.725.373.759.759,0,1,1,0,1.518,31.75,31.75,0,0,1-4.328-.294,40.613,40.613,0,0,1,1.3,8.529c0,4.912-3.3,8.382-4.437,9.435a8.12,8.12,0,0,1,.171,1.517,2.883,2.883,0,0,1-2.488,3.153c-.357.967-1.412,3.077-3.819,3.077Zm-8.439-3.037a2.458,2.458,0,0,0,2.15,1.518h6.289a2.458,2.458,0,0,0,2.15-1.518ZM32.806,74.791a12.024,12.024,0,0,1,1.946,3.958,11.745,11.745,0,0,0,3.361-7.73c0-4.509-2.36-12.441-3.108-14.842-1.4.538-4.589,2.367-4.589,7.871a26.2,26.2,0,0,0,2.389,10.743Zm2.167-23.51a5.391,5.391,0,0,1,.4.949L36,54.283c3.339-1.1,5.01-2.7,3.964-6.884a.338.338,0,0,0-.308-.269.368.368,0,0,0-.384.212,7.605,7.605,0,0,1-4.3,3.939ZM12.212,47.128l-.044,0a.338.338,0,0,0-.308.269c-1.046,4.182.625,5.782,3.964,6.884l.635-2.053a5.393,5.393,0,0,1,.4-.949,7.605,7.605,0,0,1-4.3-3.939.363.363,0,0,0-.339-.215ZM28.786,80.936a.759.759,0,0,1-.542-1.291,4.081,4.081,0,0,0,1.189-2.122.759.759,0,1,1,1.518,0,5.539,5.539,0,0,1-1.625,3.187A.757.757,0,0,1,28.786,80.936Zm-5.747,0a.755.755,0,0,1-.54-.226,5.538,5.538,0,0,1-1.625-3.187.759.759,0,0,1,1.518,0,4.081,4.081,0,0,0,1.189,2.122.759.759,0,0,1-.542,1.291Zm11.2-12.984a.759.759,0,0,1-.759-.759V64.179a.759.759,0,0,1,1.518,0v3.013A.759.759,0,0,1,34.235,67.952Zm-16.644,0a.759.759,0,0,1-.759-.759V64.179a.759.759,0,0,1,1.518,0v3.013A.759.759,0,0,1,17.591,67.952Zm12.8-11.96a7.193,7.193,0,0,1-4.873-2.554.759.759,0,1,1,1.2-.927,5.711,5.711,0,0,0,3.67,1.963.759.759,0,0,1,0,1.518Zm-5.972,0a7.193,7.193,0,0,1-4.873-2.554.759.759,0,1,1,1.2-.927,5.711,5.711,0,0,0,3.67,1.963.759.759,0,1,1,0,1.518Z" transform="translate(0 -45.609)"/>
      </g>
    </g>
  </g>
</svg>
